SplineFontDB: 3.2
FontName: KoreeneSans-Black
FullName: Koreene Sans Black
FamilyName: Koreene Sans Black
Weight: Black
Copyright: (C) Copyright HanYang I&C Co.,Ltd. All rights reserved.
Version: 2.50; ttfautohint (v1.8.4.7-5d5b-dirty)
ItalicAngle: 0
UnderlinePosition: -122
UnderlineWidth: 45
Ascent: 819
Descent: 205
InvalidEm: 0
sfntRevision: 0x00020147
LayerCount: 2
Layer: 0 1 "Back" 1
Layer: 1 1 "Fore" 0
XUID: [1021 531 -1996577725 14098825]
StyleMap: 0x0040
FSType: 0
OS2Version: 4
OS2_WeightWidthSlopeOnly: 0
OS2_UseTypoMetrics: 1
CreationTime: 1068260456
ModificationTime: 1702473900
PfmFamily: 81
TTFWeight: 900
TTFWidth: 5
LineGap: 256
VLineGap: 0
Panose: 0 0 0 0 0 0 0 0 0 0
OS2TypoAscent: 970
OS2TypoAOffset: 0
OS2TypoDescent: -235
OS2TypoDOffset: 0
OS2TypoLinegap: 256
OS2WinAscent: 1098
OS2WinAOffset: 0
OS2WinDescent: 363
OS2WinDOffset: 0
HheadAscent: 970
HheadAOffset: 0
HheadDescent: -235
HheadDOffset: 0
OS2SubXSize: 205
OS2SubYSize: 205
OS2SubXOff: 0
OS2SubYOff: 287
OS2SupXSize: 205
OS2SupYSize: 205
OS2SupXOff: 0
OS2SupYOff: 963
OS2StrikeYSize: 102
OS2StrikeYPos: 512
OS2CapHeight: 735
OS2XHeight: 540
OS2Vendor: 'HY  '
OS2CodePages: 2000019f.00000000
OS2UnicodeRanges: e10002ff.4000001b.00000000.00000000
Lookup: 1 0 0 "'aalt' Access All Alternates lookup 0" { "'aalt' Access All Alternates lookup 0 subtable"  } ['aalt' ('DFLT' <'dflt' > 'cyrl' <'dflt' > 'grek' <'dflt' > 'hang' <'dflt' > 'jamo' <'dflt' > 'latn' <'dflt' > ) ]
Lookup: 3 0 0 "'aalt' Access All Alternates lookup 1" { "'aalt' Access All Alternates lookup 1 subtable"  } ['aalt' ('DFLT' <'dflt' > 'cyrl' <'dflt' > 'grek' <'dflt' > 'hang' <'dflt' > 'jamo' <'dflt' > 'latn' <'dflt' > ) ]
Lookup: 1 0 0 "'locl' Localized Forms in Latin lookup 2" { "'locl' Localized Forms in Latin lookup 2 subtable"  } ['locl' ('latn' <'MOL ' > ) ]
Lookup: 1 0 0 "'locl' Localized Forms in Latin lookup 3" { "'locl' Localized Forms in Latin lookup 3 subtable"  } ['locl' ('latn' <'ROM ' > ) ]

StartChar: exclam
Encoding: 33 33 4
Width: 311
GlyphClass: 2
Flags: W
LayerCount: 2
Fore
SplineSet
66 -2 m 1,0,-1
 66 156 l 1,1,-1
 244 156 l 1,2,-1
 244 -2 l 1,3,-1
 66 -2 l 1,0,-1
226 211 m 1,4,-1
 85 211 l 1,5,-1
 76 741 l 1,6,-1
 233 741 l 1,7,-1
 226 211 l 1,4,-1
EndSplineSet
EndChar

StartChar: quotedbl
Encoding: 34 34 5
Width: 595
GlyphClass: 2
Flags: W
LayerCount: 2
Fore
SplineSet
304 503 m 1,0,-1
 399 812 l 1,1,-1
 550 812 l 1,2,-1
 420 503 l 1,3,-1
 304 503 l 1,0,-1
66 503 m 1,4,-1
 162 812 l 1,5,-1
 313 812 l 1,6,-1
 182 503 l 1,7,-1
 66 503 l 1,4,-1
EndSplineSet
EndChar

StartChar: numbersign
Encoding: 35 35 6
Width: 748
GlyphClass: 2
Flags: W
LayerCount: 2
Fore
SplineSet
51 172 m 1,0,-1
 51 284 l 1,1,-1
 169 284 l 1,2,-1
 188 433 l 1,3,-1
 81 433 l 1,4,-1
 81 544 l 1,5,-1
 203 544 l 1,6,-1
 226 717 l 1,7,-1
 358 717 l 1,8,-1
 336 544 l 1,9,-1
 463 544 l 1,10,-1
 485 717 l 1,11,-1
 617 717 l 1,12,-1
 595 544 l 1,13,-1
 698 544 l 1,14,-1
 698 433 l 1,15,-1
 581 433 l 1,16,-1
 562 284 l 1,17,-1
 669 284 l 1,18,-1
 669 172 l 1,19,-1
 547 172 l 1,20,-1
 525 3 l 1,21,-1
 392 3 l 1,22,-1
 415 172 l 1,23,-1
 287 172 l 1,24,-1
 264 3 l 1,25,-1
 132 3 l 1,26,-1
 155 172 l 1,27,-1
 51 172 l 1,0,-1
302 284 m 1,28,-1
 429 284 l 1,29,-1
 449 433 l 1,30,-1
 320 433 l 1,31,-1
 302 284 l 1,28,-1
EndSplineSet
EndChar

StartChar: dollar
Encoding: 36 36 7
Width: 581
GlyphClass: 2
Flags: W
LayerCount: 2
Fore
SplineSet
34 165 m 1,0,-1
 142 215 l 1,1,2
 199 123 199 123 299 123 c 0,3,4
 337 123 337 123 364 146.5 c 128,-1,5
 391 170 391 170 391 209 c 0,6,7
 391 237 391 237 373 256.5 c 128,-1,8
 355 276 355 276 332 286.5 c 128,-1,9
 309 297 309 297 258.5 318 c 128,-1,10
 208 339 208 339 171 359 c 0,11,12
 59 418 59 418 59 535 c 0,13,14
 59 572 59 572 74 608 c 128,-1,15
 89 644 89 644 129 678.5 c 128,-1,16
 169 713 169 713 227 726 c 1,17,-1
 227 807 l 1,18,-1
 362 807 l 1,19,-1
 362 724 l 1,20,21
 415 718 415 718 465 675 c 128,-1,22
 515 632 515 632 534 586 c 1,23,-1
 424 532 l 1,24,25
 374 610 374 610 294 610 c 0,26,27
 256 610 256 610 231.5 588.5 c 128,-1,28
 207 567 207 567 207 534 c 0,29,30
 207 517 207 517 214 503.5 c 128,-1,31
 221 490 221 490 230.5 481 c 128,-1,32
 240 472 240 472 260 462 c 128,-1,33
 280 452 280 452 298.5 445 c 128,-1,34
 317 438 317 438 349.5 425 c 128,-1,35
 382 412 382 412 409 400 c 0,36,37
 541 341 541 341 541 222 c 0,38,39
 541 139 541 139 492.5 82 c 128,-1,40
 444 25 444 25 362 7 c 1,41,-1
 362 -68 l 1,42,-1
 227 -68 l 1,43,-1
 227 9 l 1,44,45
 171 15 171 15 114 62 c 128,-1,46
 57 109 57 109 34 165 c 1,0,-1
EndSplineSet
EndChar

StartChar: percent
Encoding: 37 37 8
Width: 1019
GlyphClass: 2
Flags: W
LayerCount: 2
Fore
SplineSet
682 175 m 0,0,1
 682 135 682 135 703.5 113 c 128,-1,2
 725 91 725 91 755 91 c 256,3,4
 785 91 785 91 806 113 c 128,-1,5
 827 135 827 135 827 175 c 0,6,7
 827 214 827 214 806.5 237 c 128,-1,8
 786 260 786 260 755 260 c 0,9,10
 723 260 723 260 702.5 237 c 128,-1,11
 682 214 682 214 682 175 c 0,0,1
192 559 m 256,12,13
 192 519 192 519 213.5 497 c 128,-1,14
 235 475 235 475 265 475 c 0,15,16
 296 475 296 475 316.5 497.5 c 128,-1,17
 337 520 337 520 337 559 c 0,18,19
 337 599 337 599 316.5 621.5 c 128,-1,20
 296 644 296 644 265 644 c 0,21,22
 233 644 233 644 212.5 621.5 c 128,-1,23
 192 599 192 599 192 559 c 256,12,13
180 -8 m 1,24,-1
 693 743 l 1,25,-1
 842 743 l 1,26,-1
 327 -8 l 1,27,-1
 180 -8 l 1,24,-1
547 175 m 0,28,29
 547 256 547 256 603.5 312 c 128,-1,30
 660 368 660 368 755 368 c 0,31,32
 847 368 847 368 904.5 312.5 c 128,-1,33
 962 257 962 257 962 175 c 0,34,35
 962 91 962 91 903.5 37.5 c 128,-1,36
 845 -16 845 -16 755 -16 c 0,37,38
 661 -16 661 -16 604 38.5 c 128,-1,39
 547 93 547 93 547 175 c 0,28,29
57 559 m 0,40,41
 57 640 57 640 114 695.5 c 128,-1,42
 171 751 171 751 265 751 c 0,43,44
 358 751 358 751 415 696 c 128,-1,45
 472 641 472 641 472 559 c 0,46,47
 472 476 472 476 414 421.5 c 128,-1,48
 356 367 356 367 265 367 c 0,49,50
 172 367 172 367 114.5 422 c 128,-1,51
 57 477 57 477 57 559 c 0,40,41
EndSplineSet
EndChar

StartChar: ampersand
Encoding: 38 38 9
Width: 698
GlyphClass: 2
Flags: W
LayerCount: 2
Fore
SplineSet
186 203 m 0,0,1
 186 158 186 158 214.5 131.5 c 128,-1,2
 243 105 243 105 289 105 c 0,3,4
 347 105 347 105 397 152 c 1,5,-1
 256 331 l 1,6,7
 186 272 186 272 186 203 c 0,0,1
38 200 m 0,8,9
 38 332 38 332 187 431 c 1,10,11
 127 505 127 505 127 558 c 0,12,13
 127 638 127 638 182.5 684 c 128,-1,14
 238 730 238 730 330 730 c 0,15,16
 413 730 413 730 470 687.5 c 128,-1,17
 527 645 527 645 550 584 c 1,18,-1
 445 538 l 1,19,20
 403 608 403 608 344 608 c 0,21,22
 275 608 275 608 275 554 c 0,23,24
 275 542 275 542 283.5 524 c 128,-1,25
 292 506 292 506 313 476.5 c 128,-1,26
 334 447 334 447 352 423.5 c 128,-1,27
 370 400 370 400 408 352 c 128,-1,28
 446 304 446 304 468 276 c 1,29,30
 483 316 483 316 493 379 c 1,31,-1
 623 355 l 1,32,33
 614 295 614 295 594 241.5 c 128,-1,34
 574 188 574 188 556 160 c 1,35,-1
 685 0 l 1,36,-1
 512 0 l 1,37,-1
 474 48 l 1,38,39
 391 -17 391 -17 289 -17 c 0,40,41
 171 -17 171 -17 104.5 46 c 128,-1,42
 38 109 38 109 38 200 c 0,8,9
EndSplineSet
EndChar

StartChar: quotesingle
Encoding: 39 39 10
Width: 372
GlyphClass: 2
Flags: W
LayerCount: 2
Fore
SplineSet
86 503 m 1,0,-1
 181 812 l 1,1,-1
 333 812 l 1,2,-1
 202 503 l 1,3,-1
 86 503 l 1,0,-1
EndSplineSet
EndChar

StartChar: parenleft
Encoding: 40 40 11
Width: 441
GlyphClass: 2
Flags: W
LayerCount: 2
Fore
SplineSet
110 354 m 0,0,1
 110 624 110 624 279 852 c 1,2,-1
 386 790 l 1,3,4
 383 786 383 786 368 760 c 128,-1,5
 353 734 353 734 348 725.5 c 128,-1,6
 343 717 343 717 328.5 690.5 c 128,-1,7
 314 664 314 664 308 648.5 c 128,-1,8
 302 633 302 633 291.5 604.5 c 128,-1,9
 281 576 281 576 275.5 551.5 c 128,-1,10
 270 527 270 527 264 494.5 c 128,-1,11
 258 462 258 462 255.5 427 c 128,-1,12
 253 392 253 392 253 354 c 0,13,14
 253 222 253 222 285.5 123.5 c 128,-1,15
 318 25 318 25 386 -82 c 1,16,-1
 279 -144 l 1,17,18
 194 -26 194 -26 152 93.5 c 128,-1,19
 110 213 110 213 110 354 c 0,0,1
EndSplineSet
Substitution2: "'sups' Superscript lookup 5 subtable" uni207D
Substitution2: "'aalt' Access All Alternates lookup 0 subtable" uni207D
EndChar

StartChar: parenright
Encoding: 41 41 12
Width: 441
GlyphClass: 2
Flags: W
LayerCount: 2
Fore
SplineSet
56 -82 m 1,0,1
 128 30 128 30 158 131 c 128,-1,2
 188 232 188 232 188 354 c 0,3,4
 188 495 188 495 154.5 590 c 128,-1,5
 121 685 121 685 56 790 c 1,6,-1
 162 852 l 1,7,8
 240 744 240 744 285.5 625.5 c 128,-1,9
 331 507 331 507 331 354 c 0,10,11
 331 208 331 208 287.5 89 c 128,-1,12
 244 -30 244 -30 162 -144 c 1,13,-1
 56 -82 l 1,0,1
EndSplineSet
Substitution2: "'sups' Superscript lookup 5 subtable" uni207E
Substitution2: "'aalt' Access All Alternates lookup 0 subtable" uni207E
EndChar

StartChar: asterisk
Encoding: 42 42 13
Width: 556
GlyphClass: 2
Flags: W
LayerCount: 2
Fore
SplineSet
14 392 m 1,0,-1
 64 509 l 1,1,-1
 220 448 l 1,2,-1
 214 617 l 1,3,-1
 343 617 l 1,4,-1
 338 448 l 1,5,-1
 494 509 l 1,6,-1
 542 392 l 1,7,-1
 363 344 l 1,8,-1
 503 197 l 1,9,-1
 391 115 l 1,10,-1
 279 280 l 1,11,-1
 164 115 l 1,12,-1
 55 197 l 1,13,-1
 195 344 l 1,14,-1
 14 392 l 1,0,-1
EndSplineSet
EndChar

StartChar: plus
Encoding: 43 43 14
Width: 556
GlyphClass: 2
Flags: W
LayerCount: 2
Fore
SplineSet
26 298 m 1,0,-1
 26 425 l 1,1,-1
 206 425 l 1,2,-1
 206 610 l 1,3,-1
 349 610 l 1,4,-1
 349 425 l 1,5,-1
 530 425 l 1,6,-1
 530 298 l 1,7,-1
 349 298 l 1,8,-1
 349 106 l 1,9,-1
 206 106 l 1,10,-1
 206 298 l 1,11,-1
 26 298 l 1,0,-1
EndSplineSet
Substitution2: "'sups' Superscript lookup 5 subtable" uni207A
Substitution2: "'aalt' Access All Alternates lookup 0 subtable" uni207A
EndChar

StartChar: comma
Encoding: 44 44 15
Width: 275
GlyphClass: 2
Flags: W
LayerCount: 2
Fore
SplineSet
-4 -148 m 1,0,-1
 92 161 l 1,1,-1
 243 161 l 1,2,-1
 112 -148 l 1,3,-1
 -4 -148 l 1,0,-1
EndSplineSet
EndChar

StartChar: hyphen
Encoding: 45 45 16
Width: 389
GlyphClass: 2
Flags: W
LayerCount: 2
Fore
SplineSet
34 298 m 1,0,-1
 34 425 l 1,1,-1
 356 425 l 1,2,-1
 356 298 l 1,3,-1
 34 298 l 1,0,-1
EndSplineSet
EndChar

StartChar: period
Encoding: 46 46 17
Width: 275
GlyphClass: 2
Flags: W
LayerCount: 2
Fore
SplineSet
50 0 m 1,0,-1
 50 160 l 1,1,-1
 226 160 l 1,2,-1
 226 0 l 1,3,-1
 50 0 l 1,0,-1
EndSplineSet
EndChar

StartChar: slash
Encoding: 47 47 18
Width: 400
GlyphClass: 2
Flags: W
LayerCount: 2
Fore
SplineSet
-16 -52 m 1,0,-1
 267 783 l 1,1,-1
 417 783 l 1,2,-1
 133 -52 l 1,3,-1
 -16 -52 l 1,0,-1
EndSplineSet
EndChar

StartChar: zero
Encoding: 48 48 19
Width: 550
GlyphClass: 2
Flags: W
LayerCount: 2
Fore
SplineSet
181 367 m 0,0,1
 181 105 181 105 276 105 c 0,2,3
 369 105 369 105 369 367 c 0,4,5
 369 628 369 628 275 628 c 256,6,7
 181 628 181 628 181 367 c 0,0,1
28 367 m 0,8,9
 28 458 28 458 44 528 c 128,-1,10
 60 598 60 598 84.5 639 c 128,-1,11
 109 680 109 680 143.5 706 c 128,-1,12
 178 732 178 732 209.5 741.5 c 128,-1,13
 241 751 241 751 275 751 c 0,14,15
 396 751 396 751 460.5 648 c 128,-1,16
 525 545 525 545 525 367 c 0,17,18
 525 188 525 188 460 85.5 c 128,-1,19
 395 -17 395 -17 276 -17 c 0,20,21
 245 -17 245 -17 214.5 -9 c 128,-1,22
 184 -1 184 -1 149 24.5 c 128,-1,23
 114 50 114 50 88 90.5 c 128,-1,24
 62 131 62 131 45 202.5 c 128,-1,25
 28 274 28 274 28 367 c 0,8,9
EndSplineSet
EndChar

StartChar: one
Encoding: 49 49 20
Width: 550
GlyphClass: 2
Flags: W
LayerCount: 2
Fore
SplineSet
64 492 m 1,0,-1
 64 604 l 1,1,-1
 100 604 l 2,2,3
 182 604 182 604 218.5 638 c 128,-1,4
 255 672 255 672 255 723 c 2,5,-1
 255 739 l 1,6,-1
 386 739 l 1,7,-1
 386 -7 l 1,8,-1
 232 -7 l 1,9,-1
 232 492 l 1,10,-1
 64 492 l 1,0,-1
EndSplineSet
Substitution2: "'subs' Subscript lookup 6 subtable" uni2081
Substitution2: "'sups' Superscript lookup 5 subtable" onesuperior
Substitution2: "'sinf' Scientific Inferiors lookup 4 subtable" uni2081
AlternateSubs2: "'aalt' Access All Alternates lookup 1 subtable" uni2081 onesuperior
EndChar

StartChar: two
Encoding: 50 50 21
Width: 550
GlyphClass: 2
Flags: W
LayerCount: 2
Fore
SplineSet
34 544 m 1,0,1
 54 640 54 640 114.5 695.5 c 128,-1,2
 175 751 175 751 271 751 c 0,3,4
 373 751 373 751 438.5 692 c 128,-1,5
 504 633 504 633 504 534 c 0,6,7
 504 469 504 469 475 418 c 128,-1,8
 446 367 446 367 392 315 c 0,9,10
 383 306 383 306 343 268 c 128,-1,11
 303 230 303 230 274.5 196 c 128,-1,12
 246 162 246 162 224 122 c 1,13,-1
 500 122 l 1,14,-1
 500 0 l 1,15,-1
 43 0 l 1,16,17
 43 48 43 48 57 95 c 128,-1,18
 71 142 71 142 89.5 176.5 c 128,-1,19
 108 211 108 211 142 251.5 c 128,-1,20
 176 292 176 292 198.5 315 c 128,-1,21
 221 338 221 338 260 374 c 0,22,23
 271 384 271 384 276 389 c 0,24,25
 350 459 350 459 350 538 c 0,26,27
 350 580 350 580 328 604 c 128,-1,28
 306 628 306 628 270 628 c 0,29,30
 187 628 187 628 159 506 c 1,31,-1
 34 544 l 1,0,1
EndSplineSet
Substitution2: "'subs' Subscript lookup 6 subtable" uni2082
Substitution2: "'sups' Superscript lookup 5 subtable" twosuperior
Substitution2: "'sinf' Scientific Inferiors lookup 4 subtable" uni2082
AlternateSubs2: "'aalt' Access All Alternates lookup 1 subtable" uni2082 twosuperior
EndChar

StartChar: three
Encoding: 51 51 22
Width: 550
GlyphClass: 2
Flags: W
LayerCount: 2
Fore
SplineSet
19 162 m 1,0,-1
 138 205 l 1,1,2
 176 106 176 106 264 106 c 0,3,4
 308 106 308 106 338.5 135 c 128,-1,5
 369 164 369 164 369 214 c 0,6,7
 369 258 369 258 336 288.5 c 128,-1,8
 303 319 303 319 248 319 c 0,9,10
 212 319 212 319 176 316 c 1,11,-1
 176 437 l 1,12,13
 203 435 203 435 245 435 c 0,14,15
 285 435 285 435 314.5 461.5 c 128,-1,16
 344 488 344 488 344 536 c 0,17,18
 344 577 344 577 319.5 602.5 c 128,-1,19
 295 628 295 628 258 628 c 0,20,21
 187 628 187 628 156 527 c 1,22,-1
 35 564 l 1,23,24
 54 648 54 648 115 699.5 c 128,-1,25
 176 751 176 751 267 751 c 0,26,27
 372 751 372 751 435 694.5 c 128,-1,28
 498 638 498 638 498 550 c 0,29,30
 498 496 498 496 472.5 452.5 c 128,-1,31
 447 409 447 409 407 386 c 1,32,33
 454 368 454 368 489 323 c 128,-1,34
 524 278 524 278 524 214 c 0,35,36
 524 107 524 107 454 45.5 c 128,-1,37
 384 -16 384 -16 266 -16 c 0,38,39
 170 -16 170 -16 103.5 36 c 128,-1,40
 37 88 37 88 19 162 c 1,0,-1
EndSplineSet
Substitution2: "'subs' Subscript lookup 6 subtable" uni2083
Substitution2: "'sups' Superscript lookup 5 subtable" threesuperior
Substitution2: "'sinf' Scientific Inferiors lookup 4 subtable" uni2083
AlternateSubs2: "'aalt' Access All Alternates lookup 1 subtable" uni2083 threesuperior
EndChar

StartChar: four
Encoding: 52 52 23
Width: 550
GlyphClass: 2
Flags: W
LayerCount: 2
Fore
SplineSet
16 266 m 1,0,-1
 330 739 l 1,1,-1
 456 739 l 1,2,-1
 456 267 l 1,3,-1
 537 267 l 1,4,-1
 537 145 l 1,5,-1
 456 145 l 1,6,-1
 456 -4 l 1,7,-1
 308 -4 l 1,8,-1
 308 145 l 1,9,-1
 16 145 l 1,10,-1
 16 266 l 1,0,-1
155 267 m 1,11,-1
 308 267 l 1,12,-1
 308 429 l 2,13,14
 308 474 308 474 312 514 c 1,15,-1
 308 514 l 1,16,17
 284 471 284 471 266 442 c 2,18,-1
 155 267 l 1,11,-1
EndSplineSet
Substitution2: "'subs' Subscript lookup 6 subtable" uni2084
Substitution2: "'sups' Superscript lookup 5 subtable" uni2074
Substitution2: "'sinf' Scientific Inferiors lookup 4 subtable" uni2084
AlternateSubs2: "'aalt' Access All Alternates lookup 1 subtable" uni2084 uni2074
EndChar

StartChar: five
Encoding: 53 53 24
Width: 550
GlyphClass: 2
Flags: W
LayerCount: 2
Fore
SplineSet
28 147 m 1,0,-1
 151 191 l 1,1,2
 165 155 165 155 193.5 130.5 c 128,-1,3
 222 106 222 106 255 106 c 0,4,5
 304 106 304 106 333.5 140 c 128,-1,6
 363 174 363 174 363 234 c 0,7,8
 363 290 363 290 332 326.5 c 128,-1,9
 301 363 301 363 255 363 c 0,10,11
 192 363 192 363 148 294 c 1,12,-1
 53 330 l 1,13,-1
 92 735 l 1,14,-1
 479 735 l 1,15,-1
 479 612 l 1,16,-1
 229 612 l 1,17,-1
 211 456 l 1,18,19
 249 484 249 484 306 484 c 0,20,21
 400 484 400 484 458.5 417 c 128,-1,22
 517 350 517 350 517 237 c 0,23,24
 517 189 517 189 503 146 c 128,-1,25
 489 103 489 103 459.5 66 c 128,-1,26
 430 29 430 29 379 6.5 c 128,-1,27
 328 -16 328 -16 262 -16 c 0,28,29
 173 -16 173 -16 114 29 c 128,-1,30
 55 74 55 74 28 147 c 1,0,-1
EndSplineSet
EndChar

StartChar: six
Encoding: 54 54 25
Width: 550
GlyphClass: 2
Flags: W
LayerCount: 2
Fore
SplineSet
185 238 m 0,0,1
 185 174 185 174 211.5 140 c 128,-1,2
 238 106 238 106 280 106 c 0,3,4
 321 106 321 106 346.5 139.5 c 128,-1,5
 372 173 372 173 372 238 c 256,6,7
 372 303 372 303 347 336 c 128,-1,8
 322 369 322 369 280 369 c 0,9,10
 237 369 237 369 211 335 c 128,-1,11
 185 301 185 301 185 238 c 0,0,1
32 337 m 0,12,13
 32 454 32 454 59 544.5 c 128,-1,14
 86 635 86 635 148.5 693 c 128,-1,15
 211 751 211 751 301 751 c 0,16,17
 459 751 459 751 523 587 c 1,18,-1
 406 547 l 1,19,20
 366 628 366 628 302 628 c 0,21,22
 231 628 231 628 200 523 c 0,23,24
 187 482 187 482 184 442 c 1,25,26
 227 491 227 491 300 491 c 0,27,28
 400 491 400 491 462.5 420 c 128,-1,29
 525 349 525 349 525 239 c 0,30,31
 525 127 525 127 461 55.5 c 128,-1,32
 397 -16 397 -16 283 -16 c 0,33,34
 229 -16 229 -16 182 4.5 c 128,-1,35
 135 25 135 25 106 63 c 0,36,37
 32 155 32 155 32 337 c 0,12,13
EndSplineSet
EndChar

StartChar: seven
Encoding: 55 55 26
Width: 550
GlyphClass: 2
Flags: W
LayerCount: 2
Fore
SplineSet
40 608 m 1,0,-1
 40 735 l 1,1,-1
 516 735 l 1,2,-1
 516 634 l 1,3,4
 354 384 354 384 266 -4 c 1,5,-1
 112 -4 l 1,6,7
 170 312 170 312 342 608 c 1,8,-1
 40 608 l 1,0,-1
EndSplineSet
EndChar

StartChar: eight
Encoding: 56 56 27
Width: 550
GlyphClass: 2
Flags: W
LayerCount: 2
Fore
SplineSet
200 537 m 0,0,1
 200 495 200 495 221 469 c 128,-1,2
 242 443 242 443 276 443 c 256,3,4
 310 443 310 443 330.5 469.5 c 128,-1,5
 351 496 351 496 351 537 c 0,6,7
 351 575 351 575 331 601.5 c 128,-1,8
 311 628 311 628 276 628 c 256,9,10
 241 628 241 628 220.5 602 c 128,-1,11
 200 576 200 576 200 537 c 0,0,1
25 206 m 0,12,13
 25 255 25 255 47.5 295 c 128,-1,14
 70 335 70 335 93 353.5 c 128,-1,15
 116 372 116 372 144 385 c 1,16,17
 46 445 46 445 46 543 c 0,18,19
 46 634 46 634 112 692.5 c 128,-1,20
 178 751 178 751 276 751 c 0,21,22
 375 751 375 751 440 692.5 c 128,-1,23
 505 634 505 634 505 543 c 0,24,25
 505 445 505 445 406 385 c 1,26,27
 456 362 456 362 491.5 317.5 c 128,-1,28
 527 273 527 273 527 206 c 0,29,30
 527 106 527 106 457 45 c 128,-1,31
 387 -16 387 -16 276 -16 c 0,32,33
 172 -16 172 -16 98.5 42 c 128,-1,34
 25 100 25 100 25 206 c 0,12,13
178 214 m 0,35,36
 178 168 178 168 205 137 c 128,-1,37
 232 106 232 106 276 106 c 0,38,39
 319 106 319 106 345.5 137 c 128,-1,40
 372 168 372 168 372 214 c 0,41,42
 372 256 372 256 346 289 c 128,-1,43
 320 322 320 322 276 322 c 256,44,45
 232 322 232 322 205 290 c 128,-1,46
 178 258 178 258 178 214 c 0,35,36
EndSplineSet
EndChar

StartChar: nine
Encoding: 57 57 28
Width: 550
GlyphClass: 2
Flags: W
LayerCount: 2
Fore
SplineSet
178 500 m 0,0,1
 178 441 178 441 202 406.5 c 128,-1,2
 226 372 226 372 269 372 c 0,3,4
 311 372 311 372 335.5 407 c 128,-1,5
 360 442 360 442 360 501 c 0,6,7
 360 556 360 556 336 592 c 128,-1,8
 312 628 312 628 269 628 c 256,9,10
 226 628 226 628 202 591.5 c 128,-1,11
 178 555 178 555 178 500 c 0,0,1
23 146 m 1,12,-1
 143 185 l 1,13,14
 185 106 185 106 245 106 c 0,15,16
 277 106 277 106 301 124.5 c 128,-1,17
 325 143 325 143 338 173.5 c 128,-1,18
 351 204 351 204 357.5 235 c 128,-1,19
 364 266 364 266 366 299 c 1,20,21
 320 249 320 249 248 249 c 0,22,23
 154 249 154 249 91 317.5 c 128,-1,24
 28 386 28 386 28 499 c 0,25,26
 28 610 28 610 94 680.5 c 128,-1,27
 160 751 160 751 268 751 c 0,28,29
 358 751 358 751 418 694 c 128,-1,30
 478 637 478 637 500 542 c 0,31,32
 514 479 514 479 514 400 c 0,33,34
 514 197 514 197 445.5 90.5 c 128,-1,35
 377 -16 377 -16 244 -16 c 0,36,37
 163 -16 163 -16 104 33.5 c 128,-1,38
 45 83 45 83 23 146 c 1,12,-1
EndSplineSet
EndChar

StartChar: colon
Encoding: 58 58 29
Width: 275
GlyphClass: 2
Flags: W
LayerCount: 2
Fore
SplineSet
50 0 m 1,0,-1
 50 162 l 1,1,-1
 226 162 l 1,2,-1
 226 0 l 1,3,-1
 50 0 l 1,0,-1
50 396 m 1,4,-1
 50 559 l 1,5,-1
 226 559 l 1,6,-1
 226 396 l 1,7,-1
 50 396 l 1,4,-1
EndSplineSet
EndChar

StartChar: semicolon
Encoding: 59 59 30
Width: 275
GlyphClass: 2
Flags: W
LayerCount: 2
Fore
SplineSet
-4 -147 m 1,0,-1
 92 162 l 1,1,-1
 243 162 l 1,2,-1
 112 -147 l 1,3,-1
 -4 -147 l 1,0,-1
58 396 m 1,4,-1
 58 559 l 1,5,-1
 235 559 l 1,6,-1
 235 396 l 1,7,-1
 58 396 l 1,4,-1
EndSplineSet
EndChar

StartChar: less
Encoding: 60 60 31
Width: 556
GlyphClass: 2
Flags: W
LayerCount: 2
Fore
SplineSet
32 290 m 1,0,-1
 32 423 l 1,1,-1
 433 723 l 1,2,-1
 511 616 l 1,3,-1
 173 357 l 1,4,-1
 511 98 l 1,5,-1
 433 -11 l 1,6,-1
 32 290 l 1,0,-1
EndSplineSet
EndChar

StartChar: equal
Encoding: 61 61 32
Width: 556
GlyphClass: 2
Flags: W
LayerCount: 2
Fore
SplineSet
48 193 m 1,0,-1
 48 319 l 1,1,-1
 509 319 l 1,2,-1
 509 193 l 1,3,-1
 48 193 l 1,0,-1
48 404 m 1,4,-1
 48 531 l 1,5,-1
 509 531 l 1,6,-1
 509 404 l 1,7,-1
 48 404 l 1,4,-1
EndSplineSet
Substitution2: "'sups' Superscript lookup 5 subtable" uni207C
Substitution2: "'aalt' Access All Alternates lookup 0 subtable" uni207C
EndChar

StartChar: greater
Encoding: 62 62 33
Width: 556
GlyphClass: 2
Flags: W
LayerCount: 2
Fore
SplineSet
123 -11 m 1,0,-1
 45 98 l 1,1,-1
 382 357 l 1,2,-1
 45 616 l 1,3,-1
 123 723 l 1,4,-1
 524 423 l 1,5,-1
 524 290 l 1,6,-1
 123 -11 l 1,0,-1
EndSplineSet
EndChar

StartChar: question
Encoding: 63 63 34
Width: 582
GlyphClass: 2
Flags: W
LayerCount: 2
Fore
SplineSet
57 567 m 1,0,1
 76 645 76 645 139 701 c 128,-1,2
 202 757 202 757 298 757 c 0,3,4
 398 757 398 757 462.5 698 c 128,-1,5
 527 639 527 639 527 543 c 0,6,7
 527 499 527 499 510.5 464.5 c 128,-1,8
 494 430 494 430 470 406.5 c 128,-1,9
 446 383 446 383 422 361.5 c 128,-1,10
 398 340 398 340 381.5 311 c 128,-1,11
 365 282 365 282 365 246 c 2,12,-1
 365 210 l 1,13,-1
 214 210 l 1,14,-1
 214 258 l 2,15,16
 214 295 214 295 226 327 c 128,-1,17
 238 359 238 359 256 379.5 c 128,-1,18
 274 400 274 400 294 421 c 128,-1,19
 314 442 314 442 332 459.5 c 128,-1,20
 350 477 350 477 361.5 500.5 c 128,-1,21
 373 524 373 524 373 550 c 0,22,23
 373 586 373 586 353 608 c 128,-1,24
 333 630 333 630 300 630 c 0,25,26
 228 630 228 630 190 524 c 1,27,-1
 57 567 l 1,0,1
201 -2 m 1,28,-1
 201 156 l 1,29,-1
 379 156 l 1,30,-1
 379 -2 l 1,31,-1
 201 -2 l 1,28,-1
EndSplineSet
EndChar

StartChar: at
Encoding: 64 64 35
Width: 927
GlyphClass: 2
Flags: W
LayerCount: 2
Fore
SplineSet
43 345 m 0,0,1
 43 532 43 532 166 653.5 c 128,-1,2
 289 775 289 775 482 775 c 0,3,4
 658 775 658 775 771.5 667 c 128,-1,5
 885 559 885 559 885 398 c 0,6,7
 885 321 885 321 863.5 263 c 128,-1,8
 842 205 842 205 807 173.5 c 128,-1,9
 772 142 772 142 734 127 c 128,-1,10
 696 112 696 112 657 112 c 256,11,12
 618 112 618 112 589 132 c 128,-1,13
 560 152 560 152 550 183 c 1,14,-1
 549 183 l 1,15,16
 537 156 537 156 501.5 134.5 c 128,-1,17
 466 113 466 113 424 113 c 0,18,19
 352 113 352 113 301.5 169 c 128,-1,20
 251 225 251 225 251 316 c 0,21,22
 251 438 251 438 312 506.5 c 128,-1,23
 373 575 373 575 459 575 c 0,24,25
 487 575 487 575 512 563 c 128,-1,26
 537 551 537 551 549 537 c 1,27,-1
 551 569 l 1,28,-1
 660 569 l 1,29,-1
 644 268 l 2,30,31
 644 264 644 264 644 261 c 0,32,33
 644 220 644 220 666 220 c 0,34,35
 700 220 700 220 729.5 266.5 c 128,-1,36
 759 313 759 313 759 392 c 0,37,38
 759 515 759 515 683 592.5 c 128,-1,39
 607 670 607 670 481 670 c 0,40,41
 344 670 344 670 257 577 c 128,-1,42
 170 484 170 484 170 345 c 0,43,44
 170 196 170 196 254.5 109 c 128,-1,45
 339 22 339 22 474 22 c 0,46,47
 576 22 576 22 674 50 c 1,48,-1
 695 -47 l 1,49,50
 600 -82 600 -82 474 -82 c 0,51,52
 277 -82 277 -82 160 36 c 128,-1,53
 43 154 43 154 43 345 c 0,0,1
385 318 m 0,54,55
 385 284 385 284 400.5 256 c 128,-1,56
 416 228 416 228 444 228 c 0,57,58
 477 228 477 228 502.5 268 c 128,-1,59
 528 308 528 308 528 398 c 0,60,61
 528 432 528 432 513.5 450 c 128,-1,62
 499 468 499 468 472 468 c 0,63,64
 440 468 440 468 412.5 425.5 c 128,-1,65
 385 383 385 383 385 318 c 0,54,55
EndSplineSet
EndChar

StartChar: A
Encoding: 65 65 36
Width: 670
GlyphClass: 2
Flags: W
LayerCount: 2
Fore
SplineSet
242 284 m 1,0,-1
 427 284 l 1,1,-1
 380 440 l 2,2,3
 353 533 353 533 337 590 c 1,4,-1
 332 590 l 1,5,6
 311 512 311 512 290 440 c 2,7,-1
 242 284 l 1,0,-1
-4 0 m 1,8,-1
 256 735 l 1,9,-1
 415 735 l 1,10,-1
 674 0 l 1,11,-1
 517 0 l 1,12,-1
 465 164 l 1,13,-1
 206 164 l 1,14,-1
 153 0 l 1,15,-1
 -4 0 l 1,8,-1
EndSplineSet
Substitution2: "Single Substitution lookup 12 subtable" ordfeminine
EndChar

StartChar: B
Encoding: 66 66 37
Width: 660
GlyphClass: 2
Flags: W
LayerCount: 2
Fore
SplineSet
71 0 m 1,0,-1
 71 735 l 1,1,-1
 355 735 l 2,2,3
 479 735 479 735 539 682.5 c 128,-1,4
 599 630 599 630 599 538 c 0,5,6
 599 488 599 488 576.5 450 c 128,-1,7
 554 412 554 412 517 390 c 1,8,9
 558 373 558 373 591.5 328.5 c 128,-1,10
 625 284 625 284 625 219 c 0,11,12
 625 123 625 123 563 61.5 c 128,-1,13
 501 0 501 0 391 0 c 2,14,-1
 71 0 l 1,0,-1
220 127 m 1,15,-1
 370 127 l 2,16,17
 409 127 409 127 439 150.5 c 128,-1,18
 469 174 469 174 469 219 c 0,19,20
 469 260 469 260 442.5 287.5 c 128,-1,21
 416 315 416 315 366 315 c 2,22,-1
 220 315 l 1,23,-1
 220 127 l 1,15,-1
220 441 m 1,24,-1
 344 441 l 2,25,26
 389 441 389 441 416.5 462.5 c 128,-1,27
 444 484 444 484 444 526 c 0,28,29
 444 607 444 607 346 607 c 2,30,-1
 220 607 l 1,31,-1
 220 441 l 1,24,-1
EndSplineSet
EndChar

StartChar: C
Encoding: 67 67 38
Width: 671
GlyphClass: 2
Flags: W
LayerCount: 2
Fore
SplineSet
32 368 m 0,0,1
 32 543 32 543 125 647 c 128,-1,2
 218 751 218 751 364 751 c 0,3,4
 462 751 462 751 533 697.5 c 128,-1,5
 604 644 604 644 637 564 c 1,6,-1
 509 522 l 1,7,8
 484 567 484 567 450.5 595 c 128,-1,9
 417 623 417 623 363 623 c 0,10,11
 282 623 282 623 234 553.5 c 128,-1,12
 186 484 186 484 186 368 c 0,13,14
 186 250 186 250 234.5 180.5 c 128,-1,15
 283 111 283 111 363 111 c 0,16,17
 417 111 417 111 460 146 c 128,-1,18
 503 181 503 181 520 231 c 1,19,-1
 655 188 l 1,20,21
 644 162 644 162 629 135.5 c 128,-1,22
 614 109 614 109 588.5 81 c 128,-1,23
 563 53 563 53 532 32 c 128,-1,24
 501 11 501 11 457.5 -2.5 c 128,-1,25
 414 -16 414 -16 364 -16 c 0,26,27
 221 -16 221 -16 126.5 86 c 128,-1,28
 32 188 32 188 32 368 c 0,0,1
EndSplineSet
EndChar

StartChar: D
Encoding: 68 68 39
Width: 683
GlyphClass: 2
Flags: W
LayerCount: 2
Fore
SplineSet
71 0 m 1,0,-1
 71 735 l 1,1,-1
 301 735 l 2,2,3
 472 735 472 735 562 639.5 c 128,-1,4
 652 544 652 544 652 368 c 0,5,6
 652 311 652 311 642.5 262 c 128,-1,7
 633 213 633 213 608 163.5 c 128,-1,8
 583 114 583 114 545 79 c 128,-1,9
 507 44 507 44 444 22 c 128,-1,10
 381 0 381 0 301 0 c 2,11,-1
 71 0 l 1,0,-1
220 126 m 1,12,-1
 286 126 l 2,13,14
 391 126 391 126 443 183.5 c 128,-1,15
 495 241 495 241 495 368 c 0,16,17
 495 499 495 499 441.5 553.5 c 128,-1,18
 388 608 388 608 288 608 c 2,19,-1
 220 608 l 1,20,-1
 220 126 l 1,12,-1
EndSplineSet
EndChar

StartChar: E
Encoding: 69 69 40
Width: 600
GlyphClass: 2
Flags: W
LayerCount: 2
Fore
SplineSet
71 0 m 1,0,-1
 71 735 l 1,1,-1
 567 735 l 1,2,-1
 567 607 l 1,3,-1
 220 607 l 1,4,-1
 220 442 l 1,5,-1
 532 442 l 1,6,-1
 532 317 l 1,7,-1
 220 317 l 1,8,-1
 220 127 l 1,9,-1
 577 127 l 1,10,-1
 577 0 l 1,11,-1
 71 0 l 1,0,-1
EndSplineSet
EndChar

StartChar: F
Encoding: 70 70 41
Width: 565
GlyphClass: 2
Flags: W
LayerCount: 2
Fore
SplineSet
71 0 m 1,0,-1
 71 735 l 1,1,-1
 553 735 l 1,2,-1
 553 607 l 1,3,-1
 220 607 l 1,4,-1
 220 431 l 1,5,-1
 518 431 l 1,6,-1
 518 304 l 1,7,-1
 220 304 l 1,8,-1
 220 0 l 1,9,-1
 71 0 l 1,0,-1
EndSplineSet
EndChar

StartChar: G
Encoding: 71 71 42
Width: 707
GlyphClass: 2
Flags: W
LayerCount: 2
Fore
SplineSet
32 368 m 0,0,1
 32 536 32 536 124 643.5 c 128,-1,2
 216 751 216 751 371 751 c 0,3,4
 431 751 431 751 482 731 c 128,-1,5
 533 711 533 711 566 678.5 c 128,-1,6
 599 646 599 646 618.5 618 c 128,-1,7
 638 590 638 590 649 564 c 1,8,-1
 520 523 l 1,9,10
 506 545 506 545 496 557.5 c 128,-1,11
 486 570 486 570 467.5 588 c 128,-1,12
 449 606 449 606 425 614.5 c 128,-1,13
 401 623 401 623 372 623 c 0,14,15
 284 623 284 623 235 554 c 128,-1,16
 186 485 186 485 186 368 c 256,17,18
 186 251 186 251 237 181 c 128,-1,19
 288 111 288 111 366 111 c 0,20,21
 432 111 432 111 471 145 c 128,-1,22
 510 179 510 179 518 237 c 0,23,24
 521 260 521 260 521 292 c 1,25,-1
 358 292 l 1,26,-1
 358 419 l 1,27,-1
 666 419 l 1,28,-1
 666 0 l 1,29,-1
 564 0 l 1,30,-1
 551 56 l 1,31,32
 491 -16 491 -16 361 -16 c 0,33,34
 222 -16 222 -16 127 88.5 c 128,-1,35
 32 193 32 193 32 368 c 0,0,1
EndSplineSet
EndChar

StartChar: H
Encoding: 72 72 43
Width: 695
GlyphClass: 2
Flags: W
LayerCount: 2
Fore
SplineSet
71 0 m 1,0,-1
 71 735 l 1,1,-1
 219 735 l 1,2,-1
 219 441 l 1,3,-1
 477 441 l 1,4,-1
 477 735 l 1,5,-1
 625 735 l 1,6,-1
 625 0 l 1,7,-1
 477 0 l 1,8,-1
 477 314 l 1,9,-1
 219 314 l 1,10,-1
 219 0 l 1,11,-1
 71 0 l 1,0,-1
EndSplineSet
EndChar

StartChar: I
Encoding: 73 73 44
Width: 290
GlyphClass: 2
Flags: W
LayerCount: 2
Fore
SplineSet
71 0 m 1,0,-1
 71 735 l 1,1,-1
 220 735 l 1,2,-1
 220 0 l 1,3,-1
 71 0 l 1,0,-1
EndSplineSet
EndChar

StartChar: J
Encoding: 74 74 45
Width: 523
GlyphClass: 2
Flags: W
LayerCount: 2
Fore
SplineSet
6 148 m 1,0,-1
 127 197 l 1,1,2
 135 164 135 164 159.5 137.5 c 128,-1,3
 184 111 184 111 220 111 c 0,4,5
 303 111 303 111 303 232 c 2,6,-1
 303 735 l 1,7,-1
 453 735 l 1,8,-1
 453 214 l 2,9,10
 453 106 453 106 392.5 45 c 128,-1,11
 332 -16 332 -16 223 -16 c 0,12,13
 134 -16 134 -16 79 33.5 c 128,-1,14
 24 83 24 83 6 148 c 1,0,-1
EndSplineSet
EndChar

StartChar: K
Encoding: 75 75 46
Width: 660
GlyphClass: 2
Flags: W
LayerCount: 2
Fore
SplineSet
71 0 m 1,0,-1
 71 735 l 1,1,-1
 220 735 l 1,2,-1
 220 437 l 1,3,-1
 223 437 l 1,4,-1
 478 735 l 1,5,-1
 665 735 l 1,6,-1
 377 412 l 1,7,-1
 667 0 l 1,8,-1
 489 0 l 1,9,-1
 284 307 l 1,10,-1
 220 235 l 1,11,-1
 220 0 l 1,12,-1
 71 0 l 1,0,-1
EndSplineSet
EndChar

StartChar: L
Encoding: 76 76 47
Width: 553
GlyphClass: 2
Flags: W
LayerCount: 2
Fore
SplineSet
71 0 m 1,0,-1
 71 735 l 1,1,-1
 220 735 l 1,2,-1
 220 127 l 1,3,-1
 543 127 l 1,4,-1
 543 0 l 1,5,-1
 71 0 l 1,0,-1
EndSplineSet
EndChar

StartChar: M
Encoding: 77 77 48
Width: 841
GlyphClass: 2
Flags: W
LayerCount: 2
Fore
SplineSet
71 0 m 1,0,-1
 71 735 l 1,1,-1
 250 735 l 1,2,-1
 359 425 l 2,3,4
 372 389 372 389 391.5 323.5 c 128,-1,5
 411 258 411 258 418 236 c 1,6,-1
 422 236 l 1,7,8
 470 384 470 384 485 425 c 2,9,-1
 590 735 l 1,10,-1
 771 735 l 1,11,-1
 771 0 l 1,12,-1
 623 0 l 1,13,-1
 623 284 l 2,14,15
 623 354 623 354 639 513 c 1,16,-1
 634 513 l 1,17,-1
 572 321 l 1,18,-1
 473 34 l 1,19,-1
 369 34 l 1,20,-1
 271 321 l 1,21,-1
 207 515 l 1,22,-1
 202 515 l 1,23,24
 218 383 218 383 218 284 c 2,25,-1
 218 0 l 1,26,-1
 71 0 l 1,0,-1
EndSplineSet
EndChar

StartChar: N
Encoding: 78 78 49
Width: 700
GlyphClass: 2
Flags: W
LayerCount: 2
Fore
SplineSet
71 0 m 1,0,-1
 71 735 l 1,1,-1
 223 735 l 1,2,-1
 492 225 l 1,3,-1
 495 225 l 1,4,5
 481 324 481 324 481 440 c 2,6,-1
 481 735 l 1,7,-1
 630 735 l 1,8,-1
 630 0 l 1,9,-1
 479 0 l 1,10,-1
 287 351 l 1,11,-1
 208 506 l 1,12,-1
 204 506 l 1,13,14
 220 396 220 396 220 291 c 2,15,-1
 220 0 l 1,16,-1
 71 0 l 1,0,-1
EndSplineSet
EndChar

StartChar: O
Encoding: 79 79 50
Width: 707
GlyphClass: 2
Flags: W
LayerCount: 2
Fore
SplineSet
32 367 m 256,0,1
 32 540 32 540 120.5 645.5 c 128,-1,2
 209 751 209 751 354 751 c 0,3,4
 498 751 498 751 586.5 645.5 c 128,-1,5
 675 540 675 540 675 367 c 256,6,7
 675 194 675 194 586.5 89 c 128,-1,8
 498 -16 498 -16 354 -16 c 0,9,10
 208 -16 208 -16 120 89 c 128,-1,11
 32 194 32 194 32 367 c 256,0,1
187 367 m 0,12,13
 187 248 187 248 231 179.5 c 128,-1,14
 275 111 275 111 354 111 c 256,15,16
 433 111 433 111 476.5 180 c 128,-1,17
 520 249 520 249 520 367 c 256,18,19
 520 485 520 485 476.5 554 c 128,-1,20
 433 623 433 623 354 623 c 256,21,22
 275 623 275 623 231 554 c 128,-1,23
 187 485 187 485 187 367 c 0,12,13
EndSplineSet
Substitution2: "Single Substitution lookup 12 subtable" ordmasculine
EndChar

StartChar: P
Encoding: 80 80 51
Width: 644
GlyphClass: 2
Flags: W
LayerCount: 2
Fore
SplineSet
71 0 m 1,0,-1
 71 735 l 1,1,-1
 364 735 l 2,2,3
 485 735 485 735 551 671.5 c 128,-1,4
 617 608 617 608 617 504 c 0,5,6
 617 398 617 398 548.5 335.5 c 128,-1,7
 480 273 480 273 368 273 c 2,8,-1
 220 273 l 1,9,-1
 220 0 l 1,10,-1
 71 0 l 1,0,-1
220 401 m 1,11,-1
 347 401 l 2,12,13
 402 401 402 401 432.5 428 c 128,-1,14
 463 455 463 455 463 504 c 0,15,16
 463 607 463 607 348 607 c 2,17,-1
 220 607 l 1,18,-1
 220 401 l 1,11,-1
EndSplineSet
EndChar

StartChar: Q
Encoding: 81 81 52
Width: 707
GlyphClass: 2
Flags: W
LayerCount: 2
Fore
SplineSet
32 367 m 0,0,1
 32 540 32 540 120.5 645.5 c 128,-1,2
 209 751 209 751 354 751 c 0,3,4
 498 751 498 751 586.5 645.5 c 128,-1,5
 675 540 675 540 675 367 c 0,6,7
 675 205 675 205 597 103 c 1,8,-1
 675 21 l 1,9,-1
 594 -51 l 1,10,-1
 518 28 l 1,11,12
 448 -16 448 -16 354 -16 c 0,13,14
 208 -16 208 -16 120 89.5 c 128,-1,15
 32 195 32 195 32 367 c 0,0,1
319 236 m 1,16,-1
 400 310 l 1,17,-1
 493 212 l 1,18,19
 520 274 520 274 520 367 c 0,20,21
 520 485 520 485 476.5 554 c 128,-1,22
 433 623 433 623 354 623 c 256,23,24
 275 623 275 623 231 554 c 128,-1,25
 187 485 187 485 187 367 c 256,26,27
 187 249 187 249 231 180 c 128,-1,28
 275 111 275 111 354 111 c 0,29,30
 393 111 393 111 423 128 c 1,31,-1
 319 236 l 1,16,-1
EndSplineSet
EndChar

StartChar: R
Encoding: 82 82 53
Width: 669
GlyphClass: 2
Flags: W
LayerCount: 2
Fore
SplineSet
220 406 m 1,0,-1
 348 406 l 2,1,2
 463 406 463 406 463 510 c 0,3,4
 463 555 463 555 432.5 581 c 128,-1,5
 402 607 402 607 347 607 c 2,6,-1
 220 607 l 1,7,-1
 220 406 l 1,0,-1
71 0 m 1,8,-1
 71 735 l 1,9,-1
 375 735 l 2,10,11
 492 735 492 735 554.5 675 c 128,-1,12
 617 615 617 615 617 522 c 0,13,14
 617 447 617 447 586.5 400.5 c 128,-1,15
 556 354 556 354 515 336 c 1,16,17
 547 311 547 311 560 286.5 c 128,-1,18
 573 262 573 262 582 207 c 0,19,20
 601 107 601 107 666 0 c 1,21,-1
 499 0 l 1,22,23
 448 83 448 83 425 197 c 0,24,25
 416 240 416 240 400 259.5 c 128,-1,26
 384 279 384 279 350 279 c 2,27,-1
 220 279 l 1,28,-1
 220 0 l 1,29,-1
 71 0 l 1,8,-1
EndSplineSet
EndChar

StartChar: S
Encoding: 83 83 54
Width: 608
GlyphClass: 2
Flags: W
LayerCount: 2
Fore
SplineSet
16 168 m 1,0,-1
 145 212 l 1,1,2
 169 169 169 169 217 140 c 128,-1,3
 265 111 265 111 317 111 c 0,4,5
 368 111 368 111 399 136 c 128,-1,6
 430 161 430 161 430 198 c 0,7,8
 430 241 430 241 395 267 c 128,-1,9
 360 293 360 293 292 316 c 0,10,11
 186 351 186 351 150 370 c 0,12,13
 43 428 43 428 43 542 c 0,14,15
 43 635 43 635 117.5 693 c 128,-1,16
 192 751 192 751 309 751 c 0,17,18
 409 751 409 751 478.5 704 c 128,-1,19
 548 657 548 657 582 582 c 1,20,-1
 456 541 l 1,21,22
 397 623 397 623 308 623 c 0,23,24
 257 623 257 623 227 601 c 128,-1,25
 197 579 197 579 197 543 c 0,26,27
 197 528 197 528 201.5 515.5 c 128,-1,28
 206 503 206 503 219 492 c 128,-1,29
 232 481 232 481 241.5 474 c 128,-1,30
 251 467 251 467 274 458 c 128,-1,31
 297 449 297 449 308 445 c 128,-1,32
 319 441 319 441 349.5 432 c 128,-1,33
 380 423 380 423 389 419 c 0,34,35
 430 406 430 406 462 389.5 c 128,-1,36
 494 373 494 373 523.5 348.5 c 128,-1,37
 553 324 553 324 569 287 c 128,-1,38
 585 250 585 250 585 205 c 0,39,40
 585 100 585 100 507.5 42 c 128,-1,41
 430 -16 430 -16 313 -16 c 0,42,43
 212 -16 212 -16 132 33.5 c 128,-1,44
 52 83 52 83 16 168 c 1,0,-1
EndSplineSet
EndChar

StartChar: T
Encoding: 84 84 55
Width: 576
GlyphClass: 2
Flags: W
LayerCount: 2
Fore
SplineSet
9 607 m 1,0,-1
 9 735 l 1,1,-1
 567 735 l 1,2,-1
 567 607 l 1,3,-1
 363 607 l 1,4,-1
 363 0 l 1,5,-1
 214 0 l 1,6,-1
 214 607 l 1,7,-1
 9 607 l 1,0,-1
EndSplineSet
EndChar

StartChar: U
Encoding: 85 85 56
Width: 690
GlyphClass: 2
Flags: W
LayerCount: 2
Fore
SplineSet
66 280 m 2,0,-1
 66 735 l 1,1,-1
 216 735 l 1,2,-1
 216 279 l 2,3,4
 216 111 216 111 345 111 c 0,5,6
 475 111 475 111 475 279 c 2,7,-1
 475 735 l 1,8,-1
 625 735 l 1,9,-1
 625 280 l 2,10,11
 625 136 625 136 555 60 c 128,-1,12
 485 -16 485 -16 345 -16 c 0,13,14
 212 -16 212 -16 139 57 c 128,-1,15
 66 130 66 130 66 280 c 2,0,-1
EndSplineSet
EndChar

StartChar: V
Encoding: 86 86 57
Width: 629
GlyphClass: 2
Flags: W
LayerCount: 2
Fore
SplineSet
3 735 m 1,0,-1
 164 735 l 1,1,-1
 266 360 l 2,2,3
 290 260 290 260 313 159 c 1,4,-1
 317 158 l 1,5,6
 327 196 327 196 342.5 264 c 128,-1,7
 358 332 358 332 364 360 c 2,8,-1
 465 735 l 1,9,-1
 627 735 l 1,10,-1
 396 0 l 1,11,-1
 233 0 l 1,12,-1
 3 735 l 1,0,-1
EndSplineSet
EndChar

StartChar: W
Encoding: 87 87 58
Width: 889
GlyphClass: 2
Flags: W
LayerCount: 2
Fore
SplineSet
13 735 m 1,0,-1
 168 735 l 1,1,-1
 226 386 l 2,2,3
 247 257 247 257 260 160 c 1,4,-1
 266 160 l 1,5,6
 276 228 276 228 305 386 c 2,7,-1
 371 735 l 1,8,-1
 519 735 l 1,9,-1
 585 386 l 2,10,11
 599 318 599 318 625 160 c 1,12,-1
 629 160 l 1,13,14
 632 177 632 177 646 261.5 c 128,-1,15
 660 346 660 346 666 386 c 2,16,-1
 722 735 l 1,17,-1
 878 735 l 1,18,-1
 715 0 l 1,19,-1
 547 0 l 1,20,-1
 484 344 l 2,21,22
 454 512 454 512 447 556 c 1,23,-1
 442 556 l 1,24,25
 441 541 441 541 407 344 c 2,26,-1
 343 0 l 1,27,-1
 175 0 l 1,28,-1
 13 735 l 1,0,-1
EndSplineSet
EndChar

StartChar: X
Encoding: 88 88 59
Width: 640
GlyphClass: 2
Flags: W
LayerCount: 2
Fore
SplineSet
4 0 m 1,0,-1
 236 377 l 1,1,-1
 17 735 l 1,2,-1
 189 735 l 1,3,-1
 267 586 l 2,4,5
 271 580 271 580 291 543 c 128,-1,6
 311 506 311 506 319 487 c 1,7,-1
 323 487 l 1,8,9
 342 525 342 525 375 586 c 2,10,-1
 454 735 l 1,11,-1
 626 735 l 1,12,-1
 407 377 l 1,13,-1
 639 0 l 1,14,-1
 468 0 l 1,15,-1
 378 164 l 2,16,17
 366 184 366 184 347 219 c 128,-1,18
 328 254 328 254 323 264 c 1,19,-1
 319 264 l 1,20,21
 318 260 318 260 297 220 c 128,-1,22
 276 180 276 180 266 164 c 2,23,-1
 176 0 l 1,24,-1
 4 0 l 1,0,-1
EndSplineSet
EndChar

StartChar: Y
Encoding: 89 89 60
Width: 649
GlyphClass: 2
Flags: W
LayerCount: 2
Fore
SplineSet
-1 735 m 1,0,-1
 169 735 l 1,1,-1
 273 523 l 2,2,3
 285 498 285 498 323 414 c 1,4,-1
 328 414 l 1,5,6
 354 468 354 468 380 523 c 2,7,-1
 483 735 l 1,8,-1
 653 735 l 1,9,-1
 400 296 l 1,10,-1
 400 0 l 1,11,-1
 251 0 l 1,12,-1
 251 296 l 1,13,-1
 -1 735 l 1,0,-1
EndSplineSet
EndChar

StartChar: Z
Encoding: 90 90 61
Width: 599
GlyphClass: 2
Flags: W
LayerCount: 2
Fore
SplineSet
23 108 m 1,0,-1
 384 607 l 1,1,-1
 53 607 l 1,2,-1
 53 735 l 1,3,-1
 570 735 l 1,4,-1
 570 625 l 1,5,-1
 209 127 l 1,6,-1
 580 127 l 1,7,-1
 580 0 l 1,8,-1
 23 0 l 1,9,-1
 23 108 l 1,0,-1
EndSplineSet
EndChar

StartChar: bracketleft
Encoding: 91 91 62
Width: 441
GlyphClass: 2
Flags: W
LayerCount: 2
Fore
SplineSet
109 -115 m 1,0,-1
 109 823 l 1,1,-1
 364 823 l 1,2,-1
 364 704 l 1,3,-1
 253 704 l 1,4,-1
 253 4 l 1,5,-1
 364 4 l 1,6,-1
 364 -115 l 1,7,-1
 109 -115 l 1,0,-1
EndSplineSet
EndChar

StartChar: backslash
Encoding: 92 92 63
Width: 388
GlyphClass: 2
Flags: W
LayerCount: 2
Fore
SplineSet
-16 783 m 1,0,-1
 133 783 l 1,1,-1
 404 -51 l 1,2,-1
 255 -51 l 1,3,-1
 -16 783 l 1,0,-1
EndSplineSet
EndChar

StartChar: bracketright
Encoding: 93 93 64
Width: 441
GlyphClass: 2
Flags: W
LayerCount: 2
Fore
SplineSet
77 4 m 1,0,-1
 188 4 l 1,1,-1
 188 704 l 1,2,-1
 77 704 l 1,3,-1
 77 823 l 1,4,-1
 333 823 l 1,5,-1
 333 -115 l 1,6,-1
 77 -115 l 1,7,-1
 77 4 l 1,0,-1
EndSplineSet
EndChar

StartChar: asciicircum
Encoding: 94 94 65
Width: 550
GlyphClass: 2
Flags: W
LayerCount: 2
Fore
SplineSet
7 450 m 1,0,-1
 208 810 l 1,1,-1
 341 810 l 1,2,-1
 543 450 l 1,3,-1
 394 450 l 1,4,-1
 307 628 l 1,5,-1
 276 696 l 1,6,-1
 275 696 l 1,7,-1
 242 626 l 1,8,-1
 154 450 l 1,9,-1
 7 450 l 1,0,-1
EndSplineSet
EndChar

StartChar: underscore
Encoding: 95 95 66
Width: 510
GlyphClass: 2
Flags: W
LayerCount: 2
Fore
SplineSet
5 -4 m 1,0,-1
 506 -4 l 1,1,-1
 506 -122 l 1,2,-1
 5 -122 l 1,3,-1
 5 -4 l 1,0,-1
EndSplineSet
EndChar

StartChar: grave
Encoding: 96 96 67
Width: 372
GlyphClass: 2
Flags: W
LayerCount: 2
Fore
SplineSet
170 503 m 1,0,-1
 39 812 l 1,1,-1
 191 812 l 1,2,-1
 286 503 l 1,3,-1
 170 503 l 1,0,-1
EndSplineSet
EndChar

StartChar: a
Encoding: 97 97 68
Width: 545
GlyphClass: 2
Flags: W
LayerCount: 2
Fore
SplineSet
172 160 m 0,0,1
 172 136 172 136 191 119 c 128,-1,2
 210 102 210 102 240 102 c 0,3,4
 287 102 287 102 320.5 134.5 c 128,-1,5
 354 167 354 167 354 221 c 2,6,-1
 354 257 l 1,7,8
 302 244 302 244 271 240 c 0,9,10
 172 225 172 225 172 160 c 0,0,1
27 147 m 0,11,12
 27 221 27 221 83.5 269.5 c 128,-1,13
 140 318 140 318 249 334 c 0,14,15
 339 348 339 348 354 353 c 1,16,-1
 354 380 l 2,17,18
 354 414 354 414 331 429.5 c 128,-1,19
 308 445 308 445 271 445 c 0,20,21
 187 445 187 445 126 379 c 1,22,-1
 41 451 l 1,23,24
 129 556 129 556 269 556 c 0,25,26
 393 556 393 556 445 497 c 128,-1,27
 497 438 497 438 497 329 c 2,28,-1
 497 0 l 1,29,-1
 358 0 l 1,30,-1
 358 56 l 1,31,32
 342 25 342 25 304.5 4.5 c 128,-1,33
 267 -16 267 -16 218 -16 c 0,34,35
 130 -16 130 -16 78.5 29 c 128,-1,36
 27 74 27 74 27 147 c 0,11,12
EndSplineSet
Substitution2: "Single Substitution lookup 12 subtable" ordfeminine
EndChar

StartChar: b
Encoding: 98 98 69
Width: 584
GlyphClass: 2
Flags: W
LayerCount: 2
Fore
SplineSet
61 0 m 1,0,-1
 61 757 l 1,1,-1
 203 757 l 1,2,-1
 203 502 l 1,3,4
 256 556 256 556 327 556 c 0,5,6
 425 556 425 556 491 480.5 c 128,-1,7
 557 405 557 405 557 271 c 0,8,9
 557 196 557 196 536 138 c 128,-1,10
 515 80 515 80 481 47.5 c 128,-1,11
 447 15 447 15 408.5 -0.5 c 128,-1,12
 370 -16 370 -16 329 -16 c 0,13,14
 287 -16 287 -16 251 4.5 c 128,-1,15
 215 25 215 25 199 53 c 1,16,-1
 199 0 l 1,17,-1
 61 0 l 1,0,-1
202 271 m 0,18,19
 202 194 202 194 229.5 150 c 128,-1,20
 257 106 257 106 306 106 c 0,21,22
 352 106 352 106 380.5 147 c 128,-1,23
 409 188 409 188 409 271 c 0,24,25
 409 347 409 347 382 390.5 c 128,-1,26
 355 434 355 434 306 434 c 0,27,28
 254 434 254 434 228 389.5 c 128,-1,29
 202 345 202 345 202 271 c 0,18,19
EndSplineSet
EndChar

StartChar: c
Encoding: 99 99 70
Width: 522
GlyphClass: 2
Flags: W
LayerCount: 2
Fore
SplineSet
28 270 m 0,0,1
 28 403 28 403 99.5 479.5 c 128,-1,2
 171 556 171 556 283 556 c 0,3,4
 369 556 369 556 425.5 503 c 128,-1,5
 482 450 482 450 495 385 c 1,6,-1
 374 352 l 1,7,8
 365 385 365 385 342.5 409.5 c 128,-1,9
 320 434 320 434 285 434 c 0,10,11
 232 434 232 434 204 387.5 c 128,-1,12
 176 341 176 341 176 270 c 0,13,14
 176 190 176 190 207 148 c 128,-1,15
 238 106 238 106 285 106 c 0,16,17
 325 106 325 106 352 133 c 128,-1,18
 379 160 379 160 387 195 c 1,19,-1
 508 162 l 1,20,21
 493 92 493 92 430 38 c 128,-1,22
 367 -16 367 -16 283 -16 c 0,23,24
 170 -16 170 -16 99 62 c 128,-1,25
 28 140 28 140 28 270 c 0,0,1
EndSplineSet
EndChar

StartChar: d
Encoding: 100 100 71
Width: 584
GlyphClass: 2
Flags: W
LayerCount: 2
Fore
SplineSet
28 271 m 0,0,1
 28 405 28 405 93 480.5 c 128,-1,2
 158 556 158 556 260 556 c 0,3,4
 336 556 336 556 381 501 c 1,5,-1
 381 757 l 1,6,-1
 524 757 l 1,7,-1
 524 0 l 1,8,-1
 385 0 l 1,9,-1
 385 54 l 1,10,11
 369 26 369 26 334 5 c 128,-1,12
 299 -16 299 -16 259 -16 c 0,13,14
 216 -16 216 -16 176 0 c 128,-1,15
 136 16 136 16 102 48.5 c 128,-1,16
 68 81 68 81 48 138.5 c 128,-1,17
 28 196 28 196 28 271 c 0,0,1
175 271 m 0,18,19
 175 191 175 191 203.5 148.5 c 128,-1,20
 232 106 232 106 280 106 c 256,21,22
 328 106 328 106 355 150 c 128,-1,23
 382 194 382 194 382 271 c 0,24,25
 382 345 382 345 356 389.5 c 128,-1,26
 330 434 330 434 280 434 c 0,27,28
 228 434 228 434 201.5 389.5 c 128,-1,29
 175 345 175 345 175 271 c 0,18,19
EndSplineSet
EndChar

StartChar: e
Encoding: 101 101 72
Width: 560
GlyphClass: 2
Flags: W
LayerCount: 2
Fore
SplineSet
28 272 m 256,0,1
 28 404 28 404 101.5 480 c 128,-1,2
 175 556 175 556 284 556 c 0,3,4
 389 556 389 556 462 477.5 c 128,-1,5
 535 399 535 399 535 272 c 0,6,7
 535 246 535 246 532 220 c 1,8,-1
 173 220 l 1,9,10
 173 169 173 169 205.5 133.5 c 128,-1,11
 238 98 238 98 293 98 c 0,12,13
 333 98 333 98 363 118 c 128,-1,14
 393 138 393 138 408 170 c 1,15,-1
 528 127 l 1,16,17
 501 67 501 67 440 25.5 c 128,-1,18
 379 -16 379 -16 288 -16 c 0,19,20
 174 -16 174 -16 101 62 c 128,-1,21
 28 140 28 140 28 272 c 256,0,1
174 318 m 1,22,-1
 389 318 l 1,23,24
 389 370 389 370 361.5 407 c 128,-1,25
 334 444 334 444 284 444 c 0,26,27
 232 444 232 444 203 406.5 c 128,-1,28
 174 369 174 369 174 318 c 1,22,-1
EndSplineSet
EndChar

StartChar: f
Encoding: 102 102 73
Width: 354
GlyphClass: 2
Flags: W
LayerCount: 2
Fore
SplineSet
22 419 m 1,0,-1
 22 540 l 1,1,-1
 99 540 l 1,2,-1
 99 585 l 2,3,4
 99 670 99 670 141 713.5 c 128,-1,5
 183 757 183 757 262 757 c 2,6,-1
 357 757 l 1,7,-1
 357 634 l 1,8,-1
 284 634 l 2,9,10
 262 634 262 634 252 621 c 128,-1,11
 242 608 242 608 242 576 c 2,12,-1
 242 540 l 1,13,-1
 345 540 l 1,14,-1
 345 419 l 1,15,-1
 242 419 l 1,16,-1
 242 0 l 1,17,-1
 99 0 l 1,18,-1
 99 419 l 1,19,-1
 22 419 l 1,0,-1
EndSplineSet
EndChar

StartChar: g
Encoding: 103 103 74
Width: 567
GlyphClass: 2
Flags: W
LayerCount: 2
Fore
SplineSet
179 281 m 0,0,1
 179 206 179 206 205.5 167 c 128,-1,2
 232 128 232 128 276 128 c 256,3,4
 320 128 320 128 346 167 c 128,-1,5
 372 206 372 206 372 281 c 0,6,7
 372 355 372 355 345.5 394.5 c 128,-1,8
 319 434 319 434 276 434 c 0,9,10
 232 434 232 434 205.5 394 c 128,-1,11
 179 354 179 354 179 281 c 0,0,1
31 280 m 0,12,13
 31 407 31 407 95.5 481.5 c 128,-1,14
 160 556 160 556 258 556 c 0,15,16
 300 556 300 556 329.5 536.5 c 128,-1,17
 359 517 359 517 372 494 c 1,18,-1
 372 540 l 1,19,-1
 516 540 l 1,20,-1
 516 82 l 2,21,22
 516 -71 516 -71 453.5 -143 c 128,-1,23
 391 -215 391 -215 265 -215 c 0,24,25
 124 -215 124 -215 48 -108 c 1,26,-1
 141 -41 l 1,27,28
 190 -101 190 -101 267 -101 c 0,29,30
 308 -101 308 -101 338 -71.5 c 128,-1,31
 368 -42 368 -42 372 4 c 0,32,33
 374 37 374 37 374 57 c 1,34,35
 358 35 358 35 325.5 20.5 c 128,-1,36
 293 6 293 6 262 6 c 0,37,38
 160 6 160 6 95.5 80.5 c 128,-1,39
 31 155 31 155 31 280 c 0,12,13
EndSplineSet
EndChar

StartChar: h
Encoding: 104 104 75
Width: 562
GlyphClass: 2
Flags: W
LayerCount: 2
Fore
SplineSet
61 0 m 1,0,-1
 61 757 l 1,1,-1
 203 757 l 1,2,-1
 203 505 l 1,3,-1
 206 505 l 1,4,5
 254 556 254 556 329 556 c 0,6,7
 364 556 364 556 395 545.5 c 128,-1,8
 426 535 426 535 453.5 512 c 128,-1,9
 481 489 481 489 497 446.5 c 128,-1,10
 513 404 513 404 513 346 c 2,11,-1
 513 0 l 1,12,-1
 370 0 l 1,13,-1
 370 330 l 2,14,15
 370 434 370 434 303 434 c 0,16,17
 259 434 259 434 231 395 c 128,-1,18
 203 356 203 356 203 303 c 2,19,-1
 203 0 l 1,20,-1
 61 0 l 1,0,-1
EndSplineSet
Substitution2: "'sups' Superscript lookup 5 subtable" uni02B0
Substitution2: "'aalt' Access All Alternates lookup 0 subtable" uni02B0
EndChar

StartChar: i
Encoding: 105 105 76
Width: 267
GlyphClass: 2
Flags: W
LayerCount: 2
Fore
SplineSet
61 598 m 1,0,-1
 61 745 l 1,1,-1
 206 745 l 1,2,-1
 206 598 l 1,3,-1
 61 598 l 1,0,-1
63 0 m 1,4,-1
 63 540 l 1,5,-1
 205 540 l 1,6,-1
 205 0 l 1,7,-1
 63 0 l 1,4,-1
EndSplineSet
EndChar

StartChar: j
Encoding: 106 106 77
Width: 273
GlyphClass: 2
Flags: W
LayerCount: 2
Fore
SplineSet
66 598 m 1,0,-1
 66 745 l 1,1,-1
 214 745 l 1,2,-1
 214 598 l 1,3,-1
 66 598 l 1,0,-1
-12 -80 m 1,4,-1
 4 -80 l 2,5,6
 37 -80 37 -80 52.5 -58 c 128,-1,7
 68 -36 68 -36 68 13 c 2,8,-1
 68 540 l 1,9,-1
 212 540 l 1,10,-1
 212 8 l 2,11,12
 212 -97 212 -97 164.5 -150.5 c 128,-1,13
 117 -204 117 -204 27 -204 c 2,14,-1
 -12 -204 l 1,15,-1
 -12 -80 l 1,4,-1
EndSplineSet
Substitution2: "'sups' Superscript lookup 5 subtable" uni02B2
Substitution2: "'aalt' Access All Alternates lookup 0 subtable" uni02B2
EndChar

StartChar: k
Encoding: 107 107 78
Width: 539
GlyphClass: 2
Flags: W
LayerCount: 2
Fore
SplineSet
61 0 m 1,0,-1
 61 757 l 1,1,-1
 203 757 l 1,2,-1
 203 359 l 1,3,-1
 369 540 l 1,4,-1
 546 540 l 1,5,-1
 343 319 l 1,6,-1
 553 0 l 1,7,-1
 387 0 l 1,8,-1
 250 218 l 1,9,-1
 203 166 l 1,10,-1
 203 0 l 1,11,-1
 61 0 l 1,0,-1
EndSplineSet
EndChar

StartChar: l
Encoding: 108 108 79
Width: 272
GlyphClass: 2
Flags: W
LayerCount: 2
Fore
SplineSet
65 0 m 1,0,-1
 65 757 l 1,1,-1
 208 757 l 1,2,-1
 208 0 l 1,3,-1
 65 0 l 1,0,-1
EndSplineSet
Substitution2: "'sups' Superscript lookup 5 subtable" uni02E1
Substitution2: "'aalt' Access All Alternates lookup 0 subtable" uni02E1
EndChar

StartChar: m
Encoding: 109 109 80
Width: 826
GlyphClass: 2
Flags: W
LayerCount: 2
Fore
SplineSet
56 0 m 1,0,-1
 56 540 l 1,1,-1
 193 540 l 1,2,-1
 193 489 l 1,3,-1
 194 489 l 1,4,5
 203 502 203 502 217 515 c 128,-1,6
 231 528 231 528 261.5 542 c 128,-1,7
 292 556 292 556 324 556 c 0,8,9
 408 556 408 556 450 476 c 1,10,11
 502 556 502 556 607 556 c 0,12,13
 655 556 655 556 689.5 539 c 128,-1,14
 724 522 724 522 743 491 c 128,-1,15
 762 460 762 460 770 424.5 c 128,-1,16
 778 389 778 389 778 346 c 2,17,-1
 778 0 l 1,18,-1
 634 0 l 1,19,-1
 634 344 l 2,20,21
 634 389 634 389 621 411.5 c 128,-1,22
 608 434 608 434 576 434 c 0,23,24
 535 434 535 434 511 399.5 c 128,-1,25
 487 365 487 365 487 318 c 2,26,-1
 487 0 l 1,27,-1
 345 0 l 1,28,-1
 345 347 l 2,29,30
 345 388 345 388 330.5 411 c 128,-1,31
 316 434 316 434 287 434 c 0,32,33
 243 434 243 434 221 402.5 c 128,-1,34
 199 371 199 371 199 318 c 2,35,-1
 199 0 l 1,36,-1
 56 0 l 1,0,-1
EndSplineSet
EndChar

StartChar: n
Encoding: 110 110 81
Width: 558
GlyphClass: 2
Flags: W
LayerCount: 2
Fore
SplineSet
56 0 m 1,0,-1
 56 540 l 1,1,-1
 193 540 l 1,2,-1
 193 487 l 1,3,-1
 194 487 l 1,4,5
 238 556 238 556 331 556 c 0,6,7
 510 556 510 556 510 346 c 2,8,-1
 510 0 l 1,9,-1
 367 0 l 1,10,-1
 367 329 l 2,11,12
 367 387 367 387 351 410.5 c 128,-1,13
 335 434 335 434 300 434 c 0,14,15
 255 434 255 434 227 398 c 128,-1,16
 199 362 199 362 199 307 c 2,17,-1
 199 0 l 1,18,-1
 56 0 l 1,0,-1
EndSplineSet
Substitution2: "'sups' Superscript lookup 5 subtable" uni207F
Substitution2: "'aalt' Access All Alternates lookup 0 subtable" uni207F
EndChar

StartChar: o
Encoding: 111 111 82
Width: 562
GlyphClass: 2
Flags: W
LayerCount: 2
Fore
SplineSet
175 270 m 0,0,1
 175 181 175 181 208 143.5 c 128,-1,2
 241 106 241 106 282 106 c 0,3,4
 299 106 299 106 315.5 113.5 c 128,-1,5
 332 121 332 121 349 137.5 c 128,-1,6
 366 154 366 154 377 188.5 c 128,-1,7
 388 223 388 223 388 270 c 0,8,9
 388 318 388 318 377.5 352 c 128,-1,10
 367 386 367 386 349.5 403 c 128,-1,11
 332 420 332 420 315.5 427 c 128,-1,12
 299 434 299 434 282 434 c 0,13,14
 241 434 241 434 208 397 c 128,-1,15
 175 360 175 360 175 270 c 0,0,1
28 270 m 0,16,17
 28 326 28 326 42.5 375.5 c 128,-1,18
 57 425 57 425 86 466.5 c 128,-1,19
 115 508 115 508 165.5 532 c 128,-1,20
 216 556 216 556 282 556 c 0,21,22
 347 556 347 556 397.5 532 c 128,-1,23
 448 508 448 508 477 466.5 c 128,-1,24
 506 425 506 425 520.5 375.5 c 128,-1,25
 535 326 535 326 535 270 c 0,26,27
 535 234 535 234 528.5 198.5 c 128,-1,28
 522 163 522 163 504.5 123 c 128,-1,29
 487 83 487 83 460 53 c 128,-1,30
 433 23 433 23 387 3.5 c 128,-1,31
 341 -16 341 -16 282 -16 c 256,32,33
 223 -16 223 -16 177.5 3 c 128,-1,34
 132 22 132 22 104 51 c 128,-1,35
 76 80 76 80 58.5 119 c 128,-1,36
 41 158 41 158 34.5 195 c 128,-1,37
 28 232 28 232 28 270 c 0,16,17
EndSplineSet
Substitution2: "Single Substitution lookup 12 subtable" ordmasculine
EndChar

StartChar: p
Encoding: 112 112 83
Width: 584
GlyphClass: 2
Flags: W
LayerCount: 2
Fore
SplineSet
202 271 m 0,0,1
 202 195 202 195 229.5 150.5 c 128,-1,2
 257 106 257 106 306 106 c 0,3,4
 354 106 354 106 382 148.5 c 128,-1,5
 410 191 410 191 410 271 c 0,6,7
 410 348 410 348 382.5 391 c 128,-1,8
 355 434 355 434 306 434 c 0,9,10
 255 434 255 434 228.5 389.5 c 128,-1,11
 202 345 202 345 202 271 c 0,0,1
61 -212 m 1,12,-1
 61 540 l 1,13,-1
 198 540 l 1,14,-1
 198 487 l 1,15,16
 248 556 248 556 327 556 c 0,17,18
 426 556 426 556 491.5 480 c 128,-1,19
 557 404 557 404 557 271 c 0,20,21
 557 196 557 196 535.5 138 c 128,-1,22
 514 80 514 80 479 47.5 c 128,-1,23
 444 15 444 15 405.5 -0.5 c 128,-1,24
 367 -16 367 -16 327 -16 c 0,25,26
 279 -16 279 -16 248.5 3 c 128,-1,27
 218 22 218 22 204 45 c 1,28,-1
 204 -212 l 1,29,-1
 61 -212 l 1,12,-1
EndSplineSet
EndChar

StartChar: q
Encoding: 113 113 84
Width: 583
GlyphClass: 2
Flags: W
LayerCount: 2
Fore
SplineSet
175 271 m 0,0,1
 175 191 175 191 203 148.5 c 128,-1,2
 231 106 231 106 278 106 c 0,3,4
 326 106 326 106 354.5 149.5 c 128,-1,5
 383 193 383 193 383 271 c 0,6,7
 383 344 383 344 356 389 c 128,-1,8
 329 434 329 434 279 434 c 256,9,10
 229 434 229 434 202 389.5 c 128,-1,11
 175 345 175 345 175 271 c 0,0,1
28 271 m 0,12,13
 28 404 28 404 93.5 480 c 128,-1,14
 159 556 159 556 258 556 c 0,15,16
 335 556 335 556 386 487 c 1,17,-1
 386 540 l 1,18,-1
 524 540 l 1,19,-1
 524 -212 l 1,20,-1
 381 -212 l 1,21,-1
 381 46 l 1,22,23
 339 -16 339 -16 258 -16 c 0,24,25
 218 -16 218 -16 179.5 -0.5 c 128,-1,26
 141 15 141 15 106 47 c 128,-1,27
 71 79 71 79 49.5 137 c 128,-1,28
 28 195 28 195 28 271 c 0,12,13
EndSplineSet
EndChar

StartChar: r
Encoding: 114 114 85
Width: 378
GlyphClass: 2
Flags: W
LayerCount: 2
Fore
SplineSet
56 0 m 1,0,-1
 56 540 l 1,1,-1
 193 540 l 1,2,-1
 193 494 l 1,3,4
 210 520 210 520 242 538 c 128,-1,5
 274 556 274 556 313 556 c 0,6,7
 360 556 360 556 380 547 c 1,8,-1
 380 415 l 1,9,10
 348 425 348 425 313 425 c 0,11,12
 256 425 256 425 227.5 380.5 c 128,-1,13
 199 336 199 336 199 260 c 2,14,-1
 199 0 l 1,15,-1
 56 0 l 1,0,-1
EndSplineSet
Substitution2: "'sups' Superscript lookup 5 subtable" uni02B3
Substitution2: "'aalt' Access All Alternates lookup 0 subtable" uni02B3
EndChar

StartChar: s
Encoding: 115 115 86
Width: 500
GlyphClass: 2
Flags: W
LayerCount: 2
Fore
SplineSet
18 117 m 1,0,-1
 118 176 l 1,1,2
 173 99 173 99 256 99 c 0,3,4
 290 99 290 99 309 113.5 c 128,-1,5
 328 128 328 128 328 150 c 0,6,7
 328 157 328 157 326 164 c 128,-1,8
 324 171 324 171 319 177 c 128,-1,9
 314 183 314 183 308.5 187.5 c 128,-1,10
 303 192 303 192 293.5 197 c 128,-1,11
 284 202 284 202 277 205 c 128,-1,12
 270 208 270 208 258 212.5 c 128,-1,13
 246 217 246 217 238 219.5 c 128,-1,14
 230 222 230 222 215.5 226.5 c 128,-1,15
 201 231 201 231 194 233 c 0,16,17
 126 256 126 256 85 292 c 128,-1,18
 44 328 44 328 44 397 c 0,19,20
 44 470 44 470 107.5 513 c 128,-1,21
 171 556 171 556 257 556 c 0,22,23
 324 556 324 556 385.5 520.5 c 128,-1,24
 447 485 447 485 477 428 c 1,25,-1
 383 372 l 1,26,27
 326 442 326 442 258 442 c 0,28,29
 226 442 226 442 207.5 428.5 c 128,-1,30
 189 415 189 415 189 394 c 0,31,32
 189 384 189 384 193 375.5 c 128,-1,33
 197 367 197 367 205.5 360 c 128,-1,34
 214 353 214 353 221.5 347.5 c 128,-1,35
 229 342 229 342 243.5 336.5 c 128,-1,36
 258 331 258 331 267 328 c 128,-1,37
 276 325 276 325 294.5 319 c 128,-1,38
 313 313 313 313 321 311 c 0,39,40
 476 258 476 258 476 148 c 0,41,42
 476 80 476 80 420 32 c 128,-1,43
 364 -16 364 -16 260 -16 c 0,44,45
 179 -16 179 -16 114.5 20.5 c 128,-1,46
 50 57 50 57 18 117 c 1,0,-1
EndSplineSet
Substitution2: "'hist' Historical Forms lookup 11 subtable" longs
Substitution2: "'sups' Superscript lookup 5 subtable" uni02E2
AlternateSubs2: "'aalt' Access All Alternates lookup 1 subtable" uni02E2 longs
EndChar

StartChar: t
Encoding: 116 116 87
Width: 373
GlyphClass: 2
Flags: W
LayerCount: 2
Fore
SplineSet
15 419 m 1,0,-1
 15 540 l 1,1,-1
 92 540 l 1,2,-1
 92 694 l 1,3,-1
 234 694 l 1,4,-1
 234 540 l 1,5,-1
 346 540 l 1,6,-1
 346 419 l 1,7,-1
 234 419 l 1,8,-1
 234 181 l 2,9,10
 234 122 234 122 286 122 c 2,11,-1
 347 122 l 1,12,-1
 347 0 l 1,13,-1
 268 0 l 2,14,15
 92 0 92 0 92 173 c 2,16,-1
 92 419 l 1,17,-1
 15 419 l 1,0,-1
EndSplineSet
EndChar

StartChar: u
Encoding: 117 117 88
Width: 556
GlyphClass: 2
Flags: W
LayerCount: 2
Fore
SplineSet
48 199 m 2,0,-1
 48 540 l 1,1,-1
 192 540 l 1,2,-1
 192 214 l 2,3,4
 192 106 192 106 265 106 c 0,5,6
 308 106 308 106 332.5 146 c 128,-1,7
 357 186 357 186 357 241 c 2,8,-1
 357 540 l 1,9,-1
 501 540 l 1,10,-1
 501 0 l 1,11,-1
 363 0 l 1,12,-1
 363 48 l 1,13,-1
 361 48 l 1,14,15
 345 22 345 22 311 3 c 128,-1,16
 277 -16 277 -16 233 -16 c 0,17,18
 210 -16 210 -16 188 -12 c 128,-1,19
 166 -8 166 -8 139.5 6 c 128,-1,20
 113 20 113 20 93.5 42.5 c 128,-1,21
 74 65 74 65 61 105.5 c 128,-1,22
 48 146 48 146 48 199 c 2,0,-1
EndSplineSet
EndChar

StartChar: v
Encoding: 118 118 89
Width: 536
GlyphClass: 2
Flags: W
LayerCount: 2
Fore
SplineSet
8 540 m 1,0,-1
 163 540 l 1,1,-1
 225 300 l 2,2,3
 252 186 252 186 267 120 c 1,4,-1
 269 120 l 1,5,6
 275 144 275 144 291 208.5 c 128,-1,7
 307 273 307 273 313 300 c 2,8,-1
 373 540 l 1,9,-1
 529 540 l 1,10,-1
 348 0 l 1,11,-1
 188 0 l 1,12,-1
 8 540 l 1,0,-1
EndSplineSet
EndChar

StartChar: w
Encoding: 119 119 90
Width: 755
GlyphClass: 2
Flags: W
LayerCount: 2
Fore
SplineSet
9 540 m 1,0,-1
 161 540 l 1,1,-1
 203 307 l 2,2,3
 206 285 206 285 214.5 232 c 128,-1,4
 223 179 223 179 230 142 c 1,5,-1
 233 142 l 1,6,7
 238 170 238 170 250 235.5 c 128,-1,8
 262 301 262 301 263 307 c 2,9,-1
 306 540 l 1,10,-1
 450 540 l 1,11,-1
 493 306 l 2,12,13
 496 284 496 284 507 227 c 128,-1,14
 518 170 518 170 522 142 c 1,15,-1
 526 142 l 1,16,17
 538 218 538 218 553 307 c 2,18,-1
 595 540 l 1,19,-1
 747 540 l 1,20,-1
 602 0 l 1,21,-1
 449 0 l 1,22,-1
 407 226 l 2,23,24
 402 251 402 251 393 306 c 128,-1,25
 384 361 384 361 380 385 c 1,26,-1
 376 385 l 1,27,28
 372 356 372 356 361.5 295.5 c 128,-1,29
 351 235 351 235 349 226 c 2,30,-1
 307 0 l 1,31,-1
 153 0 l 1,32,-1
 9 540 l 1,0,-1
EndSplineSet
Substitution2: "'sups' Superscript lookup 5 subtable" uni02B7
Substitution2: "'aalt' Access All Alternates lookup 0 subtable" uni02B7
EndChar

StartChar: x
Encoding: 120 120 91
Width: 562
GlyphClass: 2
Flags: W
LayerCount: 2
Fore
SplineSet
6 0 m 1,0,-1
 197 276 l 1,1,-1
 15 540 l 1,2,-1
 189 540 l 1,3,-1
 244 437 l 2,4,5
 268 389 268 389 279 372 c 1,6,-1
 282 372 l 2,7,8
 283 373 283 373 296.5 399 c 128,-1,9
 310 425 310 425 316 437 c 2,10,-1
 372 540 l 1,11,-1
 546 540 l 1,12,-1
 363 276 l 1,13,-1
 555 0 l 1,14,-1
 386 0 l 1,15,-1
 322 111 l 2,16,17
 300 152 300 152 282 183 c 1,18,-1
 279 183 l 1,19,20
 250 131 250 131 239 111 c 2,21,-1
 175 0 l 1,22,-1
 6 0 l 1,0,-1
EndSplineSet
Substitution2: "'sups' Superscript lookup 5 subtable" uni02E3
Substitution2: "'aalt' Access All Alternates lookup 0 subtable" uni02E3
EndChar

StartChar: y
Encoding: 121 121 92
Width: 538
GlyphClass: 2
Flags: W
LayerCount: 2
Fore
SplineSet
5 540 m 1,0,-1
 160 540 l 1,1,-1
 241 285 l 2,2,3
 258 228 258 228 272 169 c 1,4,-1
 275 169 l 1,5,6
 287 221 287 221 304 285 c 2,7,-1
 377 540 l 1,8,-1
 531 540 l 1,9,-1
 312 -59 l 2,10,11
 282 -144 282 -144 230 -178 c 128,-1,12
 178 -212 178 -212 100 -212 c 2,13,-1
 59 -212 l 1,14,-1
 59 -92 l 1,15,-1
 76 -92 l 2,16,17
 121 -92 121 -92 146.5 -76.5 c 128,-1,18
 172 -61 172 -61 186 -23 c 2,19,-1
 203 25 l 1,20,-1
 5 540 l 1,0,-1
EndSplineSet
Substitution2: "'sups' Superscript lookup 5 subtable" uni02B8
Substitution2: "'aalt' Access All Alternates lookup 0 subtable" uni02B8
EndChar

StartChar: z
Encoding: 122 122 93
Width: 496
GlyphClass: 2
Flags: W
LayerCount: 2
Fore
SplineSet
20 0 m 1,0,-1
 20 94 l 1,1,-1
 277 419 l 1,2,-1
 39 419 l 1,3,-1
 39 540 l 1,4,-1
 465 540 l 1,5,-1
 465 451 l 1,6,-1
 205 122 l 1,7,-1
 477 122 l 1,8,-1
 477 0 l 1,9,-1
 20 0 l 1,0,-1
EndSplineSet
EndChar

StartChar: braceleft
Encoding: 123 123 94
Width: 441
GlyphClass: 2
Flags: W
LayerCount: 2
Fore
SplineSet
52 299 m 1,0,-1
 52 409 l 1,1,-1
 87 409 l 2,2,3
 127 409 127 409 127 500 c 2,4,-1
 127 674 l 2,5,6
 127 745 127 745 168 784 c 128,-1,7
 209 823 209 823 279 823 c 2,8,-1
 366 823 l 1,9,-1
 366 704 l 1,10,-1
 306 704 l 2,11,12
 290 704 290 704 280 691 c 128,-1,13
 270 678 270 678 270 658 c 2,14,-1
 270 485 l 2,15,16
 270 403 270 403 201 354 c 1,17,18
 228 337 228 337 249 305 c 128,-1,19
 270 273 270 273 270 225 c 2,20,-1
 270 49 l 2,21,22
 270 4 270 4 308 4 c 2,23,-1
 366 4 l 1,24,-1
 366 -115 l 1,25,-1
 279 -115 l 2,26,27
 212 -115 212 -115 169.5 -78 c 128,-1,28
 127 -41 127 -41 127 33 c 2,29,-1
 127 209 l 2,30,31
 127 299 127 299 87 299 c 2,32,-1
 52 299 l 1,0,-1
EndSplineSet
EndChar

StartChar: bar
Encoding: 124 124 95
Width: 310
GlyphClass: 2
Flags: W
LayerCount: 2
Fore
SplineSet
83 -150 m 1,0,-1
 83 856 l 1,1,-1
 227 856 l 1,2,-1
 227 -150 l 1,3,-1
 83 -150 l 1,0,-1
EndSplineSet
EndChar

StartChar: braceright
Encoding: 125 125 96
Width: 441
GlyphClass: 2
Flags: W
LayerCount: 2
Fore
SplineSet
75 4 m 1,0,-1
 136 4 l 2,1,2
 172 4 172 4 172 49 c 2,3,-1
 172 225 l 2,4,5
 172 260 172 260 186 289.5 c 128,-1,6
 200 319 200 319 211 329.5 c 128,-1,7
 222 340 222 340 241 355 c 1,8,9
 172 401 172 401 172 485 c 2,10,-1
 172 658 l 2,11,12
 172 678 172 678 162.5 691 c 128,-1,13
 153 704 153 704 136 704 c 2,14,-1
 75 704 l 1,15,-1
 75 823 l 1,16,-1
 162 823 l 2,17,18
 232 823 232 823 274 784 c 128,-1,19
 316 745 316 745 316 674 c 2,20,-1
 316 500 l 2,21,22
 316 409 316 409 355 409 c 2,23,-1
 389 409 l 1,24,-1
 389 299 l 1,25,-1
 355 299 l 2,26,27
 316 299 316 299 316 209 c 2,28,-1
 316 33 l 2,29,30
 316 -40 316 -40 273 -77.5 c 128,-1,31
 230 -115 230 -115 162 -115 c 2,32,-1
 75 -115 l 1,33,-1
 75 4 l 1,0,-1
EndSplineSet
EndChar

StartChar: asciitilde
Encoding: 126 126 97
Width: 808
GlyphClass: 2
Flags: W
LayerCount: 2
Fore
SplineSet
60 294 m 1,0,1
 127 486 127 486 285 486 c 0,2,3
 320 486 320 486 350.5 473 c 128,-1,4
 381 460 381 460 402.5 441.5 c 128,-1,5
 424 423 424 423 443 404 c 128,-1,6
 462 385 462 385 482 372 c 128,-1,7
 502 359 502 359 520 359 c 0,8,9
 548 359 548 359 569.5 377.5 c 128,-1,10
 591 396 591 396 601 415 c 128,-1,11
 611 434 611 434 622 466 c 1,12,-1
 748 412 l 1,13,14
 685 222 685 222 524 222 c 0,15,16
 484 222 484 222 446.5 242 c 128,-1,17
 409 262 409 262 386 286 c 128,-1,18
 363 310 363 310 336 330 c 128,-1,19
 309 350 309 350 286 350 c 0,20,21
 252 350 252 350 226.5 319 c 128,-1,22
 201 288 201 288 186 243 c 1,23,-1
 60 294 l 1,0,1
EndSplineSet
EndChar

StartChar: exclamdown
Encoding: 161 161 99
Width: 311
GlyphClass: 2
Flags: W
LayerCount: 2
Fore
SplineSet
76 -198 m 1,0,-1
 85 332 l 1,1,-1
 226 332 l 1,2,-1
 233 -198 l 1,3,-1
 76 -198 l 1,0,-1
66 387 m 1,4,-1
 66 545 l 1,5,-1
 244 545 l 1,6,-1
 244 387 l 1,7,-1
 66 387 l 1,4,-1
EndSplineSet
EndChar

StartChar: cent
Encoding: 162 162 100
Width: 522
GlyphClass: 2
Flags: W
LayerCount: 2
Fore
SplineSet
28 270 m 0,0,1
 28 372 28 372 75 448 c 128,-1,2
 122 524 122 524 210 547 c 1,3,-1
 210 624 l 1,4,-1
 340 624 l 1,5,-1
 340 549 l 1,6,7
 403 534 403 534 444 486.5 c 128,-1,8
 485 439 485 439 496 385 c 1,9,-1
 374 352 l 1,10,11
 348 434 348 434 286 434 c 0,12,13
 232 434 232 434 204 387 c 128,-1,14
 176 340 176 340 176 270 c 0,15,16
 176 195 176 195 205 150.5 c 128,-1,17
 234 106 234 106 284 106 c 0,18,19
 324 106 324 106 350.5 132 c 128,-1,20
 377 158 377 158 387 195 c 1,21,-1
 508 162 l 1,22,23
 496 109 496 109 452.5 60 c 128,-1,24
 409 11 409 11 340 -9 c 1,25,-1
 340 -92 l 1,26,-1
 210 -92 l 1,27,-1
 210 -7 l 1,28,29
 130 13 130 13 79 87 c 128,-1,30
 28 161 28 161 28 270 c 0,0,1
EndSplineSet
EndChar

StartChar: sterling
Encoding: 163 163 101
Width: 613
GlyphClass: 2
Flags: W
LayerCount: 2
Fore
SplineSet
39 297 m 1,0,-1
 39 424 l 1,1,-1
 143 424 l 1,2,-1
 143 555 l 2,3,4
 143 651 143 651 208 701 c 128,-1,5
 273 751 273 751 381 751 c 0,6,7
 452 751 452 751 507.5 713 c 128,-1,8
 563 675 563 675 587 627 c 1,9,-1
 472 572 l 1,10,11
 434 620 434 620 382 620 c 0,12,13
 343 620 343 620 316.5 601 c 128,-1,14
 290 582 290 582 290 541 c 2,15,-1
 290 424 l 1,16,-1
 477 424 l 1,17,-1
 477 297 l 1,18,-1
 290 297 l 1,19,-1
 290 224 l 2,20,21
 290 170 290 170 276 143 c 1,22,23
 301 146 301 146 310 146 c 0,24,25
 339 146 339 146 385 128.5 c 128,-1,26
 431 111 431 111 465 111 c 0,27,28
 517 111 517 111 570 139 c 1,29,-1
 607 16 l 1,30,31
 530 -16 530 -16 465 -16 c 0,32,33
 431 -16 431 -16 362.5 2 c 128,-1,34
 294 20 294 20 262 20 c 0,35,36
 226 20 226 20 176.5 12 c 128,-1,37
 127 4 127 4 97 -4 c 2,38,-1
 66 -11 l 1,39,-1
 32 94 l 1,40,41
 84 105 84 105 113.5 131 c 128,-1,42
 143 157 143 157 143 216 c 2,43,-1
 143 297 l 1,44,-1
 39 297 l 1,0,-1
EndSplineSet
EndChar

StartChar: currency
Encoding: 164 164 102
Width: 671
GlyphClass: 2
Flags: W
LayerCount: 2
Fore
SplineSet
19 152 m 1,0,-1
 127 252 l 1,1,2
 117 268 117 268 107.5 299 c 128,-1,3
 98 330 98 330 98 362 c 0,4,5
 98 393 98 393 107 424.5 c 128,-1,6
 116 456 116 456 127 472 c 1,7,-1
 19 572 l 1,8,-1
 118 666 l 1,9,-1
 219 566 l 1,10,11
 278 598 278 598 337 598 c 0,12,13
 394 598 394 598 453 566 c 1,14,-1
 555 666 l 1,15,-1
 652 572 l 1,16,-1
 545 472 l 1,17,18
 574 425 574 425 574 362 c 0,19,20
 574 330 574 330 564.5 299 c 128,-1,21
 555 268 555 268 545 252 c 1,22,-1
 652 152 l 1,23,-1
 555 58 l 1,24,-1
 453 158 l 1,25,26
 390 125 390 125 337 125 c 0,27,28
 278 125 278 125 219 158 c 1,29,-1
 118 58 l 1,30,-1
 19 152 l 1,0,-1
228 362 m 0,31,32
 228 318 228 318 258 285.5 c 128,-1,33
 288 253 288 253 337 253 c 0,34,35
 384 253 384 253 414 285 c 128,-1,36
 444 317 444 317 444 362 c 256,37,38
 444 407 444 407 413.5 438.5 c 128,-1,39
 383 470 383 470 337 470 c 0,40,41
 288 470 288 470 258 437 c 128,-1,42
 228 404 228 404 228 362 c 0,31,32
EndSplineSet
EndChar

StartChar: yen
Encoding: 165 165 103
Width: 649
GlyphClass: 2
Flags: W
LayerCount: 2
Fore
SplineSet
-1 735 m 1,0,-1
 169 735 l 1,1,-1
 262 571 l 2,2,3
 306 494 306 494 323 459 c 1,4,-1
 328 459 l 1,5,6
 337 478 337 478 358.5 515 c 128,-1,7
 380 552 380 552 389 571 c 2,8,-1
 483 735 l 1,9,-1
 653 735 l 1,10,-1
 455 431 l 1,11,-1
 590 431 l 1,12,-1
 590 325 l 1,13,-1
 400 325 l 1,14,-1
 400 239 l 1,15,-1
 590 239 l 1,16,-1
 590 133 l 1,17,-1
 400 133 l 1,18,-1
 400 0 l 1,19,-1
 251 0 l 1,20,-1
 251 133 l 1,21,-1
 62 133 l 1,22,-1
 62 239 l 1,23,-1
 251 239 l 1,24,-1
 251 325 l 1,25,-1
 62 325 l 1,26,-1
 62 431 l 1,27,-1
 196 431 l 1,28,-1
 -1 735 l 1,0,-1
EndSplineSet
EndChar

StartChar: brokenbar
Encoding: 166 166 104
Width: 310
GlyphClass: 2
Flags: W
LayerCount: 2
Fore
SplineSet
83 450 m 1,0,-1
 83 856 l 1,1,-1
 227 856 l 1,2,-1
 227 450 l 1,3,-1
 83 450 l 1,0,-1
83 -150 m 1,4,-1
 83 257 l 1,5,-1
 227 257 l 1,6,-1
 227 -150 l 1,7,-1
 83 -150 l 1,4,-1
EndSplineSet
EndChar

StartChar: section
Encoding: 167 167 105
Width: 545
GlyphClass: 2
Flags: W
LayerCount: 2
Fore
SplineSet
26 58 m 1,0,-1
 122 131 l 1,1,2
 176 72 176 72 251 72 c 0,3,4
 327 72 327 72 327 108 c 0,5,6
 327 129 327 129 290 146 c 2,7,-1
 186 195 l 2,8,9
 48 258 48 258 48 362 c 0,10,11
 48 403 48 403 71 438 c 128,-1,12
 94 473 94 473 119 492 c 1,13,14
 71 533 71 533 71 594 c 0,15,16
 71 664 71 664 127.5 707.5 c 128,-1,17
 184 751 184 751 300 751 c 0,18,19
 439 751 439 751 520 649 c 1,20,-1
 427 573 l 1,21,22
 373 627 373 627 297 627 c 0,23,24
 222 627 222 627 222 592 c 0,25,26
 222 583 222 583 226.5 575.5 c 128,-1,27
 231 568 231 568 243.5 560.5 c 128,-1,28
 256 553 256 553 265.5 548.5 c 128,-1,29
 275 544 275 544 299 534 c 128,-1,30
 323 524 323 524 336 519 c 0,31,32
 339 517 339 517 356 509.5 c 128,-1,33
 373 502 373 502 380 499 c 128,-1,34
 387 496 387 496 403.5 487.5 c 128,-1,35
 420 479 420 479 428 473.5 c 128,-1,36
 436 468 436 468 450.5 458 c 128,-1,37
 465 448 465 448 472 439.5 c 128,-1,38
 479 431 479 431 489 418 c 128,-1,39
 499 405 499 405 504 392 c 128,-1,40
 509 379 509 379 512.5 362.5 c 128,-1,41
 516 346 516 346 516 328 c 0,42,43
 516 291 516 291 497 256 c 128,-1,44
 478 221 478 221 447 197 c 1,45,46
 477 157 477 157 477 109 c 0,47,48
 477 33 477 33 420.5 -9.5 c 128,-1,49
 364 -52 364 -52 252 -52 c 0,50,51
 181 -52 181 -52 117.5 -19.5 c 128,-1,52
 54 13 54 13 26 58 c 1,0,-1
198 365 m 0,53,54
 198 339 198 339 214 324 c 128,-1,55
 230 309 230 309 261 293 c 2,56,-1
 333 261 l 1,57,58
 365 298 365 298 365 328 c 0,59,60
 365 368 365 368 303 395 c 2,61,-1
 232 430 l 1,62,63
 198 404 198 404 198 365 c 0,53,54
EndSplineSet
EndChar

StartChar: dieresis
Encoding: 168 168 106
Width: 538
GlyphClass: 2
Flags: W
LayerCount: 2
Fore
SplineSet
93 587 m 1,0,-1
 93 735 l 1,1,-1
 238 735 l 1,2,-1
 238 587 l 1,3,-1
 93 587 l 1,0,-1
301 587 m 1,4,-1
 301 735 l 1,5,-1
 446 735 l 1,6,-1
 446 587 l 1,7,-1
 301 587 l 1,4,-1
EndSplineSet
EndChar

StartChar: copyright
Encoding: 169 169 107
Width: 840
GlyphClass: 2
Flags: W
LayerCount: 2
Fore
SplineSet
224 372 m 0,0,1
 224 487 224 487 282 545 c 128,-1,2
 340 603 340 603 431 603 c 0,3,4
 504 603 504 603 547.5 561 c 128,-1,5
 591 519 591 519 602 463 c 1,6,-1
 504 436 l 1,7,8
 485 503 485 503 432 503 c 0,9,10
 386 503 386 503 365 471.5 c 128,-1,11
 344 440 344 440 344 372 c 0,12,13
 344 243 344 243 432 243 c 0,14,15
 466 243 466 243 486.5 265 c 128,-1,16
 507 287 507 287 514 316 c 1,17,-1
 612 289 l 1,18,19
 599 225 599 225 551.5 184 c 128,-1,20
 504 143 504 143 431 143 c 0,21,22
 339 143 339 143 281.5 201.5 c 128,-1,23
 224 260 224 260 224 372 c 0,0,1
31 372 m 0,24,25
 31 556 31 556 141.5 664.5 c 128,-1,26
 252 773 252 773 420 773 c 0,27,28
 591 773 591 773 700.5 663 c 128,-1,29
 810 553 810 553 810 372 c 256,30,31
 810 191 810 191 700.5 80.5 c 128,-1,32
 591 -30 591 -30 420 -30 c 0,33,34
 311 -30 311 -30 223.5 17 c 128,-1,35
 136 64 136 64 83.5 156.5 c 128,-1,36
 31 249 31 249 31 372 c 0,24,25
136 372 m 0,37,38
 136 226 136 226 214.5 144 c 128,-1,39
 293 62 293 62 420 62 c 0,40,41
 541 62 541 62 623.5 141 c 128,-1,42
 706 220 706 220 706 372 c 0,43,44
 706 519 706 519 626.5 600.5 c 128,-1,45
 547 682 547 682 420 682 c 0,46,47
 291 682 291 682 213.5 599 c 128,-1,48
 136 516 136 516 136 372 c 0,37,38
EndSplineSet
EndChar

StartChar: ordfeminine
Encoding: 170 170 108
Width: 384
GlyphClass: 2
Flags: W
LayerCount: 2
Fore
SplineSet
22 258 m 1,0,-1
 22 346 l 1,1,-1
 363 346 l 1,2,-1
 363 258 l 1,3,-1
 22 258 l 1,0,-1
119 530 m 0,4,5
 119 512 119 512 133 499.5 c 128,-1,6
 147 487 147 487 169 487 c 0,7,8
 204 487 204 487 228.5 510.5 c 128,-1,9
 253 534 253 534 253 573 c 2,10,-1
 253 602 l 1,11,12
 242 599 242 599 220.5 595 c 128,-1,13
 199 591 199 591 190.5 589.5 c 128,-1,14
 182 588 182 588 167.5 584 c 128,-1,15
 153 580 153 580 146.5 576 c 128,-1,16
 140 572 140 572 132.5 565 c 128,-1,17
 125 558 125 558 122 549.5 c 128,-1,18
 119 541 119 541 119 530 c 0,4,5
20 521 m 0,19,20
 20 558 20 558 38.5 585 c 128,-1,21
 57 612 57 612 87.5 625.5 c 128,-1,22
 118 639 118 639 147 646 c 128,-1,23
 176 653 176 653 209 658 c 128,-1,24
 242 663 242 663 253 667 c 1,25,-1
 253 688 l 2,26,27
 253 737 253 737 192 737 c 0,28,29
 133 737 133 737 88 690 c 1,30,-1
 31 739 l 1,31,32
 58 773 58 773 101 792 c 128,-1,33
 144 811 144 811 191 811 c 0,34,35
 279 811 279 811 315 769.5 c 128,-1,36
 351 728 351 728 351 652 c 2,37,-1
 351 418 l 1,38,-1
 257 418 l 1,39,-1
 257 465 l 1,40,41
 223 407 223 407 154 407 c 0,42,43
 92 407 92 407 56 438.5 c 128,-1,44
 20 470 20 470 20 521 c 0,19,20
EndSplineSet
EndChar

StartChar: guillemotleft
Encoding: 171 171 109
Width: 555
GlyphClass: 2
Flags: W
LayerCount: 2
Fore
SplineSet
37 274 m 1,0,-1
 206 533 l 1,1,-1
 309 465 l 1,2,-1
 188 274 l 1,3,-1
 307 88 l 1,4,-1
 206 17 l 1,5,-1
 37 274 l 1,0,-1
249 274 m 1,6,-1
 418 518 l 1,7,-1
 518 442 l 1,8,-1
 401 274 l 1,9,-1
 518 104 l 1,10,-1
 418 30 l 1,11,-1
 249 274 l 1,6,-1
EndSplineSet
EndChar

StartChar: logicalnot
Encoding: 172 172 110
Width: 562
GlyphClass: 2
Flags: W
LayerCount: 2
Fore
SplineSet
46 283 m 1,0,-1
 46 410 l 1,1,-1
 519 410 l 1,2,-1
 519 115 l 1,3,-1
 382 115 l 1,4,-1
 382 283 l 1,5,-1
 46 283 l 1,0,-1
EndSplineSet
EndChar

StartChar: uni00AD
Encoding: 173 173 111
Width: 567
GlyphClass: 2
Flags: W
LayerCount: 2
Fore
SplineSet
55 303 m 1,0,-1
 55 431 l 1,1,-1
 512 431 l 1,2,-1
 512 303 l 1,3,-1
 55 303 l 1,0,-1
EndSplineSet
EndChar

StartChar: registered
Encoding: 174 174 112
Width: 840
GlyphClass: 2
Flags: W
LayerCount: 2
Fore
SplineSet
30 373 m 0,0,1
 30 558 30 558 141 665.5 c 128,-1,2
 252 773 252 773 420 773 c 0,3,4
 591 773 591 773 701 662.5 c 128,-1,5
 811 552 811 552 811 373 c 0,6,7
 811 193 811 193 701 82 c 128,-1,8
 591 -29 591 -29 420 -29 c 0,9,10
 311 -29 311 -29 223.5 18.5 c 128,-1,11
 136 66 136 66 83 158 c 128,-1,12
 30 250 30 250 30 373 c 0,0,1
256 143 m 1,13,-1
 256 594 l 1,14,-1
 450 594 l 2,15,16
 521 594 521 594 559.5 554 c 128,-1,17
 598 514 598 514 598 458 c 0,18,19
 598 383 598 383 546 350 c 1,20,21
 562 334 562 334 568 319 c 128,-1,22
 574 304 574 304 581 276 c 0,23,24
 585 257 585 257 592.5 236.5 c 128,-1,25
 600 216 600 216 605.5 205.5 c 128,-1,26
 611 195 611 195 624 172 c 0,27,28
 630 161 630 161 634 153 c 1,29,30
 706 230 706 230 706 373 c 0,31,32
 706 524 706 524 626 600 c 128,-1,33
 546 676 546 676 420 676 c 0,34,35
 289 676 289 676 212.5 596.5 c 128,-1,36
 136 517 136 517 136 373 c 0,37,38
 136 226 136 226 212 147.5 c 128,-1,39
 288 69 288 69 420 69 c 0,40,41
 545 69 545 69 623 143 c 1,42,-1
 507 143 l 1,43,44
 474 188 474 188 459 266 c 0,45,46
 452 302 452 302 445 309 c 0,47,48
 441 312 441 312 433 312 c 2,49,-1
 375 312 l 1,50,-1
 375 143 l 1,51,-1
 256 143 l 1,13,-1
375 401 m 1,52,-1
 433 401 l 2,53,54
 476 401 476 401 476 446 c 0,55,56
 476 462 476 462 463.5 476 c 128,-1,57
 451 490 451 490 433 490 c 2,58,-1
 375 490 l 1,59,-1
 375 401 l 1,52,-1
EndSplineSet
EndChar

StartChar: macron
Encoding: 175 175 113
Width: 486
GlyphClass: 2
Flags: W
LayerCount: 2
Fore
SplineSet
4 661 m 1,0,-1
 4 787 l 1,1,-1
 483 787 l 1,2,-1
 483 661 l 1,3,-1
 4 661 l 1,0,-1
EndSplineSet
EndChar

StartChar: degree
Encoding: 176 176 114
Width: 438
GlyphClass: 2
Flags: W
LayerCount: 2
Fore
SplineSet
80 602 m 256,0,1
 80 660 80 660 120 700 c 128,-1,2
 160 740 160 740 219 740 c 0,3,4
 277 740 277 740 317.5 701 c 128,-1,5
 358 662 358 662 358 602 c 0,6,7
 358 544 358 544 317 504.5 c 128,-1,8
 276 465 276 465 219 465 c 256,9,10
 162 465 162 465 121 504.5 c 128,-1,11
 80 544 80 544 80 602 c 256,0,1
171 602 m 0,12,13
 171 582 171 582 184 567.5 c 128,-1,14
 197 553 197 553 219 553 c 0,15,16
 240 553 240 553 253.5 567.5 c 128,-1,17
 267 582 267 582 267 602 c 0,18,19
 267 624 267 624 253.5 638 c 128,-1,20
 240 652 240 652 219 652 c 256,21,22
 198 652 198 652 184.5 637.5 c 128,-1,23
 171 623 171 623 171 602 c 0,12,13
EndSplineSet
EndChar

StartChar: plusminus
Encoding: 177 177 115
Width: 567
GlyphClass: 2
Flags: W
LayerCount: 2
Fore
SplineSet
34 396 m 1,0,-1
 34 519 l 1,1,-1
 213 519 l 1,2,-1
 213 672 l 1,3,-1
 355 672 l 1,4,-1
 355 519 l 1,5,-1
 533 519 l 1,6,-1
 533 396 l 1,7,-1
 355 396 l 1,8,-1
 355 243 l 1,9,-1
 213 243 l 1,10,-1
 213 396 l 1,11,-1
 34 396 l 1,0,-1
37 69 m 1,12,-1
 37 192 l 1,13,-1
 530 192 l 1,14,-1
 530 69 l 1,15,-1
 37 69 l 1,12,-1
EndSplineSet
EndChar

StartChar: twosuperior
Encoding: 178 178 116
Width: 334
GlyphClass: 2
Flags: W
LayerCount: 2
Fore
SplineSet
22 682 m 1,0,1
 50 813 50 813 167 813 c 0,2,3
 229 813 229 813 268 776.5 c 128,-1,4
 307 740 307 740 307 681 c 0,5,6
 307 620 307 620 251 561 c 0,7,8
 242 552 242 552 218.5 529 c 128,-1,9
 195 506 195 506 179 488 c 128,-1,10
 163 470 163 470 152 450 c 1,11,-1
 305 450 l 1,12,-1
 305 366 l 1,13,-1
 28 366 l 1,14,15
 28 434 28 434 58 481.5 c 128,-1,16
 88 529 88 529 164 602 c 0,17,18
 205 641 205 641 205 682 c 0,19,20
 205 704 205 704 194.5 716.5 c 128,-1,21
 184 729 184 729 166 729 c 0,22,23
 122 729 122 729 107 657 c 1,24,-1
 22 682 l 1,0,1
EndSplineSet
EndChar

StartChar: threesuperior
Encoding: 179 179 117
Width: 334
GlyphClass: 2
Flags: W
LayerCount: 2
Fore
SplineSet
13 469 m 1,0,-1
 92 498 l 1,1,2
 116 439 116 439 162 439 c 0,3,4
 184 439 184 439 199.5 453.5 c 128,-1,5
 215 468 215 468 215 494 c 0,6,7
 215 518 215 518 198 533.5 c 128,-1,8
 181 549 181 549 152 549 c 0,9,10
 129 549 129 549 103 547 c 1,11,-1
 103 631 l 1,12,13
 139 629 139 629 150 629 c 0,14,15
 171 629 171 629 186 642.5 c 128,-1,16
 201 656 201 656 201 680 c 0,17,18
 201 701 201 701 189 714 c 128,-1,19
 177 727 177 727 158 727 c 0,20,21
 121 727 121 727 103 667 c 1,22,-1
 22 692 l 1,23,24
 31 731 31 731 49.5 757 c 128,-1,25
 68 783 68 783 91.5 794 c 128,-1,26
 115 805 115 805 131 808 c 128,-1,27
 147 811 147 811 162 811 c 0,28,29
 225 811 225 811 264 776.5 c 128,-1,30
 303 742 303 742 303 689 c 0,31,32
 303 631 303 631 258 595 c 1,33,34
 318 562 318 562 318 494 c 0,35,36
 318 430 318 430 276 392.5 c 128,-1,37
 234 355 234 355 162 355 c 0,38,39
 112 355 112 355 69 383.5 c 128,-1,40
 26 412 26 412 13 469 c 1,0,-1
EndSplineSet
EndChar

StartChar: acute
Encoding: 180 180 118
Width: 412
GlyphClass: 2
Flags: W
LayerCount: 2
Fore
SplineSet
89 643 m 1,0,-1
 192 821 l 1,1,-1
 361 821 l 1,2,-1
 208 643 l 1,3,-1
 89 643 l 1,0,-1
EndSplineSet
EndChar

StartChar: uni00B5
Encoding: 181 181 119
Width: 562
GlyphClass: 2
Flags: W
LayerCount: 2
Fore
SplineSet
61 -212 m 1,0,-1
 61 540 l 1,1,-1
 204 540 l 1,2,-1
 204 214 l 2,3,4
 204 106 204 106 276 106 c 0,5,6
 319 106 319 106 344 146.5 c 128,-1,7
 369 187 369 187 369 241 c 2,8,-1
 369 540 l 1,9,-1
 512 540 l 1,10,-1
 512 0 l 1,11,-1
 376 0 l 1,12,-1
 376 45 l 1,13,-1
 375 45 l 1,14,15
 363 24 363 24 330 4 c 128,-1,16
 297 -16 297 -16 251 -16 c 0,17,18
 223 -16 223 -16 204 -6 c 1,19,-1
 204 -212 l 1,20,-1
 61 -212 l 1,0,-1
EndSplineSet
EndChar

StartChar: paragraph
Encoding: 182 182 120
Width: 634
GlyphClass: 2
Flags: W
LayerCount: 2
Fore
SplineSet
45 551 m 0,0,1
 45 651 45 651 98.5 712.5 c 128,-1,2
 152 774 152 774 255 774 c 2,3,-1
 560 774 l 1,4,-1
 560 -72 l 1,5,-1
 443 -72 l 1,6,-1
 443 643 l 1,7,-1
 388 643 l 1,8,-1
 388 -72 l 1,9,-1
 270 -72 l 1,10,-1
 270 320 l 1,11,12
 257 317 257 317 241 317 c 0,13,14
 158 317 158 317 101.5 377 c 128,-1,15
 45 437 45 437 45 551 c 0,0,1
EndSplineSet
EndChar

StartChar: periodcentered
Encoding: 183 183 121
Width: 355
GlyphClass: 2
Flags: W
LayerCount: 2
Fore
SplineSet
90 274 m 1,0,-1
 90 433 l 1,1,-1
 266 433 l 1,2,-1
 266 274 l 1,3,-1
 90 274 l 1,0,-1
EndSplineSet
EndChar

StartChar: cedilla
Encoding: 184 184 122
Width: 317
GlyphClass: 2
Flags: W
LayerCount: 2
Fore
SplineSet
42 -112 m 1,0,1
 83 -121 83 -121 102 -121 c 0,2,3
 144 -121 144 -121 144 -103 c 0,4,5
 144 -74 144 -74 58 -71 c 1,6,-1
 121 56 l 1,7,-1
 247 56 l 1,8,-1
 216 -7 l 1,9,10
 277 -31 277 -31 277 -105 c 0,11,12
 277 -151 277 -151 241 -186.5 c 128,-1,13
 205 -222 205 -222 115 -222 c 0,14,15
 69 -222 69 -222 42 -214 c 1,16,-1
 42 -112 l 1,0,1
EndSplineSet
EndChar

StartChar: onesuperior
Encoding: 185 185 123
Width: 334
GlyphClass: 2
Flags: W
LayerCount: 2
Fore
SplineSet
37 648 m 1,0,-1
 37 727 l 1,1,-1
 64 727 l 2,2,3
 108 727 108 727 127 745 c 128,-1,4
 146 763 146 763 146 789 c 2,5,-1
 146 805 l 1,6,-1
 235 805 l 1,7,-1
 235 367 l 1,8,-1
 134 367 l 1,9,-1
 134 648 l 1,10,-1
 37 648 l 1,0,-1
EndSplineSet
EndChar

StartChar: ordmasculine
Encoding: 186 186 124
Width: 395
GlyphClass: 2
Flags: W
LayerCount: 2
Fore
SplineSet
119 609 m 0,0,1
 119 545 119 545 143.5 517.5 c 128,-1,2
 168 490 168 490 197 490 c 0,3,4
 227 490 227 490 251.5 517.5 c 128,-1,5
 276 545 276 545 276 609 c 0,6,7
 276 674 276 674 251.5 701.5 c 128,-1,8
 227 729 227 729 197 729 c 256,9,10
 167 729 167 729 143 701.5 c 128,-1,11
 119 674 119 674 119 609 c 0,0,1
19 609 m 0,12,13
 19 649 19 649 29 684 c 128,-1,14
 39 719 39 719 59.5 748.5 c 128,-1,15
 80 778 80 778 115.5 795 c 128,-1,16
 151 812 151 812 197 812 c 0,17,18
 287 812 287 812 331.5 753 c 128,-1,19
 376 694 376 694 376 609 c 0,20,21
 376 584 376 584 371.5 559 c 128,-1,22
 367 534 367 534 355 505.5 c 128,-1,23
 343 477 343 477 323.5 456 c 128,-1,24
 304 435 304 435 272 421 c 128,-1,25
 240 407 240 407 197 407 c 0,26,27
 146 407 146 407 109.5 426.5 c 128,-1,28
 73 446 73 446 54 478 c 128,-1,29
 35 510 35 510 27 542 c 128,-1,30
 19 574 19 574 19 609 c 0,12,13
22 267 m 1,31,-1
 22 355 l 1,32,-1
 374 355 l 1,33,-1
 374 267 l 1,34,-1
 22 267 l 1,31,-1
EndSplineSet
EndChar

StartChar: guillemotright
Encoding: 187 187 125
Width: 555
GlyphClass: 2
Flags: W
LayerCount: 2
Fore
SplineSet
38 442 m 1,0,-1
 136 518 l 1,1,-1
 306 274 l 1,2,-1
 136 30 l 1,3,-1
 38 104 l 1,4,-1
 154 274 l 1,5,-1
 38 442 l 1,0,-1
249 89 m 1,6,-1
 367 274 l 1,7,-1
 247 465 l 1,8,-1
 350 533 l 1,9,-1
 520 274 l 1,10,-1
 350 17 l 1,11,-1
 249 89 l 1,6,-1
EndSplineSet
EndChar

StartChar: onequarter
Encoding: 188 188 126
Width: 981
GlyphClass: 2
Flags: W
LayerCount: 2
Fore
SplineSet
692 149 m 1,0,-1
 762 149 l 1,1,-1
 762 208 l 2,2,3
 762 217 762 217 762.5 243 c 128,-1,4
 763 269 763 269 763 272 c 1,5,-1
 692 149 l 1,0,-1
49 604 m 1,6,-1
 49 703 l 1,7,-1
 85 703 l 2,8,9
 174 703 174 703 174 769 c 2,10,-1
 174 792 l 1,11,-1
 284 792 l 1,12,-1
 284 284 l 1,13,-1
 160 284 l 1,14,-1
 160 604 l 1,15,-1
 49 604 l 1,6,-1
175 -52 m 1,16,-1
 643 783 l 1,17,-1
 775 783 l 1,18,-1
 310 -52 l 1,19,-1
 175 -52 l 1,16,-1
570 139 m 1,20,-1
 782 460 l 1,21,-1
 883 460 l 1,22,-1
 883 149 l 1,23,-1
 936 149 l 1,24,-1
 936 45 l 1,25,-1
 883 45 l 1,26,-1
 883 -55 l 1,27,-1
 762 -55 l 1,28,-1
 762 45 l 1,29,-1
 570 45 l 1,30,-1
 570 139 l 1,20,-1
EndSplineSet
Ligature2: "'frac' Diagonal Fractions lookup 7 subtable" one fraction four
Ligature2: "'frac' Diagonal Fractions lookup 7 subtable" one slash four
EndChar

StartChar: onehalf
Encoding: 189 189 127
Width: 981
GlyphClass: 2
Flags: W
LayerCount: 2
Fore
SplineSet
155 -52 m 1,0,-1
 632 783 l 1,1,-1
 764 783 l 1,2,-1
 291 -52 l 1,3,-1
 155 -52 l 1,0,-1
582 313 m 1,4,5
 585 332 585 332 589 345 c 128,-1,6
 593 358 593 358 605.5 383.5 c 128,-1,7
 618 409 618 409 635 425.5 c 128,-1,8
 652 442 652 442 682.5 455.5 c 128,-1,9
 713 469 713 469 751 469 c 0,10,11
 824 469 824 469 870 427 c 128,-1,12
 916 385 916 385 916 315 c 0,13,14
 916 286 916 286 909 262.5 c 128,-1,15
 902 239 902 239 882 213.5 c 128,-1,16
 862 188 862 188 852.5 177.5 c 128,-1,17
 843 167 843 167 813 137 c 0,18,19
 760 86 760 86 742 57 c 1,20,-1
 914 57 l 1,21,-1
 914 -48 l 1,22,-1
 589 -48 l 1,23,24
 589 31 589 31 620.5 85.5 c 128,-1,25
 652 140 652 140 746 229 c 0,26,27
 791 271 791 271 791 317 c 0,28,29
 791 339 791 339 779.5 351.5 c 128,-1,30
 768 364 768 364 750 364 c 0,31,32
 730 364 730 364 715.5 349 c 128,-1,33
 701 334 701 334 696.5 319 c 128,-1,34
 692 304 692 304 687 281 c 1,35,-1
 582 313 l 1,4,5
49 604 m 1,36,-1
 49 703 l 1,37,-1
 85 703 l 2,38,39
 174 703 174 703 174 769 c 2,40,-1
 174 792 l 1,41,-1
 284 792 l 1,42,-1
 284 284 l 1,43,-1
 160 284 l 1,44,-1
 160 604 l 1,45,-1
 49 604 l 1,36,-1
EndSplineSet
Ligature2: "'frac' Diagonal Fractions lookup 7 subtable" one fraction two
Ligature2: "'frac' Diagonal Fractions lookup 7 subtable" one slash two
EndChar

StartChar: threequarters
Encoding: 190 190 128
Width: 981
GlyphClass: 2
Flags: W
LayerCount: 2
Fore
SplineSet
44 407 m 1,0,-1
 143 442 l 1,1,2
 148 428 148 428 152 421 c 128,-1,3
 156 414 156 414 165 401 c 128,-1,4
 174 388 174 388 187.5 381.5 c 128,-1,5
 201 375 201 375 219 375 c 0,6,7
 242 375 242 375 258.5 390 c 128,-1,8
 275 405 275 405 275 433 c 0,9,10
 275 458 275 458 257.5 474.5 c 128,-1,11
 240 491 240 491 208 491 c 0,12,13
 194 491 194 491 149 486 c 1,14,-1
 149 592 l 1,15,16
 171 590 171 590 206 590 c 0,17,18
 227 590 227 590 243 604 c 128,-1,19
 259 618 259 618 259 644 c 0,20,21
 259 666 259 666 246.5 679.5 c 128,-1,22
 234 693 234 693 214 693 c 0,23,24
 190 693 190 693 177.5 675 c 128,-1,25
 165 657 165 657 155 624 c 1,26,-1
 54 654 l 1,27,28
 64 699 64 699 85.5 730.5 c 128,-1,29
 107 762 107 762 134 775 c 128,-1,30
 161 788 161 788 181 793 c 128,-1,31
 201 798 201 798 221 798 c 0,32,33
 295 798 295 798 339.5 757.5 c 128,-1,34
 384 717 384 717 384 654 c 0,35,36
 384 590 384 590 336 548 c 1,37,38
 401 508 401 508 401 433 c 0,39,40
 401 357 401 357 352 313.5 c 128,-1,41
 303 270 303 270 220 270 c 0,42,43
 161 270 161 270 111 303.5 c 128,-1,44
 61 337 61 337 44 407 c 1,0,-1
571 138 m 1,45,-1
 783 460 l 1,46,-1
 885 460 l 1,47,-1
 885 149 l 1,48,-1
 937 149 l 1,49,-1
 937 45 l 1,50,-1
 885 45 l 1,51,-1
 885 -55 l 1,52,-1
 763 -55 l 1,53,-1
 763 45 l 1,54,-1
 571 45 l 1,55,-1
 571 138 l 1,45,-1
693 149 m 1,56,-1
 763 149 l 1,57,-1
 763 201 l 2,58,59
 763 210 763 210 763.5 239.5 c 128,-1,60
 764 269 764 269 764 272 c 1,61,-1
 693 149 l 1,56,-1
216 -52 m 1,62,-1
 699 783 l 1,63,-1
 832 783 l 1,64,-1
 351 -52 l 1,65,-1
 216 -52 l 1,62,-1
EndSplineSet
Ligature2: "'frac' Diagonal Fractions lookup 7 subtable" three fraction four
Ligature2: "'frac' Diagonal Fractions lookup 7 subtable" three slash four
EndChar

StartChar: questiondown
Encoding: 191 191 129
Width: 582
GlyphClass: 2
Flags: W
LayerCount: 2
Fore
SplineSet
56 1 m 0,0,1
 56 45 56 45 72.5 80 c 128,-1,2
 89 115 89 115 112.5 138 c 128,-1,3
 136 161 136 161 160 182.5 c 128,-1,4
 184 204 184 204 200.5 233.5 c 128,-1,5
 217 263 217 263 217 299 c 2,6,-1
 217 333 l 1,7,-1
 368 333 l 1,8,-1
 368 285 l 2,9,10
 368 241 368 241 352 205 c 128,-1,11
 336 169 336 169 312.5 145.5 c 128,-1,12
 289 122 289 122 265.5 101 c 128,-1,13
 242 80 242 80 226 52.5 c 128,-1,14
 210 25 210 25 210 -7 c 0,15,16
 210 -43 210 -43 230 -64.5 c 128,-1,17
 250 -86 250 -86 283 -86 c 0,18,19
 321 -86 321 -86 346.5 -60 c 128,-1,20
 372 -34 372 -34 392 21 c 1,21,-1
 525 -23 l 1,22,23
 506 -101 506 -101 443 -157.5 c 128,-1,24
 380 -214 380 -214 283 -214 c 0,25,26
 183 -214 183 -214 119.5 -154.5 c 128,-1,27
 56 -95 56 -95 56 1 c 0,0,1
204 387 m 1,28,-1
 204 545 l 1,29,-1
 380 545 l 1,30,-1
 380 387 l 1,31,-1
 204 387 l 1,28,-1
EndSplineSet
EndChar

StartChar: AE
Encoding: 198 198 136
Width: 968
GlyphClass: 3
Flags: W
LayerCount: 2
Fore
SplineSet
289 284 m 1,0,-1
 453 284 l 1,1,-1
 453 592 l 1,2,-1
 444 592 l 1,3,-1
 289 284 l 1,0,-1
-4 0 m 1,4,-1
 368 735 l 1,5,-1
 935 735 l 1,6,-1
 935 608 l 1,7,-1
 602 608 l 1,8,-1
 602 442 l 1,9,-1
 900 442 l 1,10,-1
 900 317 l 1,11,-1
 592 317 l 1,12,-1
 592 127 l 1,13,-1
 945 127 l 1,14,-1
 945 0 l 1,15,-1
 453 0 l 1,16,-1
 453 164 l 1,17,-1
 232 164 l 1,18,-1
 152 0 l 1,19,-1
 -4 0 l 1,4,-1
EndSplineSet
EndChar

StartChar: multiply
Encoding: 215 215 153
Width: 556
GlyphClass: 2
Flags: W
LayerCount: 2
Fore
SplineSet
30 214 m 1,0,-1
 188 365 l 1,1,-1
 30 515 l 1,2,-1
 124 606 l 1,3,-1
 278 454 l 1,4,-1
 432 606 l 1,5,-1
 527 515 l 1,6,-1
 368 365 l 1,7,-1
 527 214 l 1,8,-1
 432 124 l 1,9,-1
 278 276 l 1,10,-1
 124 124 l 1,11,-1
 30 214 l 1,0,-1
EndSplineSet
EndChar

StartChar: Oslash
Encoding: 216 216 154
Width: 707
GlyphClass: 2
Flags: W
LayerCount: 2
Fore
SplineSet
32 367 m 0,0,1
 32 539 32 539 121 645 c 128,-1,2
 210 751 210 751 354 751 c 0,3,4
 427 751 427 751 487 722 c 1,5,-1
 522 786 l 1,6,-1
 642 786 l 1,7,-1
 573 660 l 1,8,9
 676 554 676 554 676 367 c 0,10,11
 676 195 676 195 587 89.5 c 128,-1,12
 498 -16 498 -16 354 -16 c 0,13,14
 279 -16 279 -16 226 8 c 1,15,-1
 193 -51 l 1,16,-1
 75 -51 l 1,17,-1
 140 66 l 1,18,19
 32 174 32 174 32 367 c 0,0,1
493 519 m 1,20,-1
 291 125 l 1,21,22
 312 111 312 111 354 111 c 0,23,24
 433 111 433 111 476.5 180 c 128,-1,25
 520 249 520 249 520 367 c 0,26,27
 520 457 520 457 493 519 c 1,20,-1
424 605 m 1,28,29
 392 623 392 623 354 623 c 0,30,31
 275 623 275 623 231 554 c 128,-1,32
 187 485 187 485 187 367 c 0,33,34
 187 276 187 276 217 206 c 1,35,-1
 424 605 l 1,28,29
EndSplineSet
EndChar

StartChar: Thorn
Encoding: 222 222 160
Width: 573
GlyphClass: 2
Flags: W
LayerCount: 2
Fore
SplineSet
71 0 m 1,0,-1
 71 735 l 1,1,-1
 219 735 l 1,2,-1
 219 617 l 1,3,-1
 265 617 l 2,4,5
 344 617 344 617 401.5 595.5 c 128,-1,6
 459 574 459 574 489 537 c 128,-1,7
 519 500 519 500 532.5 459.5 c 128,-1,8
 546 419 546 419 546 372 c 0,9,10
 546 249 546 249 473 185 c 128,-1,11
 400 121 400 121 273 121 c 2,12,-1
 219 121 l 1,13,-1
 219 0 l 1,14,-1
 71 0 l 1,0,-1
219 249 m 1,15,-1
 259 249 l 2,16,17
 327 249 327 249 358 280 c 128,-1,18
 389 311 389 311 389 374 c 0,19,20
 389 491 389 491 255 491 c 2,21,-1
 219 491 l 1,22,-1
 219 249 l 1,15,-1
EndSplineSet
EndChar

StartChar: germandbls
Encoding: 223 223 161
Width: 636
GlyphClass: 3
Flags: W
LayerCount: 2
Fore
SplineSet
71 0 m 1,0,-1
 71 525 l 2,1,2
 71 635 71 635 138 693 c 128,-1,3
 205 751 205 751 303 751 c 0,4,5
 416 751 416 751 483.5 697 c 128,-1,6
 551 643 551 643 551 548 c 0,7,8
 551 452 551 452 470 403 c 1,9,-1
 470 401 l 1,10,11
 601 354 601 354 601 209 c 0,12,13
 601 101 601 101 536.5 42.5 c 128,-1,14
 472 -16 472 -16 360 -16 c 0,15,16
 291 -16 291 -16 246 -2 c 1,17,-1
 246 131 l 1,18,19
 298 110 298 110 354 110 c 0,20,21
 393 110 393 110 420.5 139.5 c 128,-1,22
 448 169 448 169 448 210 c 0,23,24
 448 323 448 323 327 323 c 2,25,-1
 258 323 l 1,26,-1
 258 449 l 1,27,-1
 314 449 l 2,28,29
 349 449 349 449 373 472 c 128,-1,30
 397 495 397 495 397 540 c 0,31,32
 397 578 397 578 373.5 600.5 c 128,-1,33
 350 623 350 623 310 623 c 0,34,35
 267 623 267 623 243.5 593.5 c 128,-1,36
 220 564 220 564 220 513 c 2,37,-1
 220 0 l 1,38,-1
 71 0 l 1,0,-1
EndSplineSet
EndChar

StartChar: ae
Encoding: 230 230 168
Width: 878
GlyphClass: 3
Flags: W
LayerCount: 2
Fore
SplineSet
27 150 m 0,0,1
 27 224 27 224 89.5 272.5 c 128,-1,2
 152 321 152 321 267 337 c 0,3,4
 328 346 328 346 354 351 c 1,5,-1
 354 384 l 2,6,7
 354 413 354 413 328.5 429 c 128,-1,8
 303 445 303 445 271 445 c 0,9,10
 191 445 191 445 125 379 c 1,11,-1
 41 450 l 1,12,13
 127 556 127 556 272 556 c 0,14,15
 382 556 382 556 442 497 c 1,16,17
 506 556 506 556 605 556 c 0,18,19
 706 556 706 556 779 477 c 128,-1,20
 852 398 852 398 852 270 c 0,21,22
 852 263 852 263 850 220 c 1,23,-1
 493 220 l 1,24,-1
 493 211 l 2,25,26
 494 169 494 169 523 133.5 c 128,-1,27
 552 98 552 98 609 98 c 0,28,29
 686 98 686 98 727 170 c 1,30,-1
 844 127 l 1,31,32
 820 69 820 69 758 26.5 c 128,-1,33
 696 -16 696 -16 608 -16 c 0,34,35
 479 -16 479 -16 409 77 c 1,36,37
 369 31 369 31 324 7.5 c 128,-1,38
 279 -16 279 -16 218 -16 c 0,39,40
 130 -16 130 -16 78.5 29.5 c 128,-1,41
 27 75 27 75 27 150 c 0,0,1
172 160 m 0,42,43
 172 138 172 138 190.5 120 c 128,-1,44
 209 102 209 102 237 102 c 0,45,46
 285 102 285 102 319.5 136 c 128,-1,47
 354 170 354 170 354 218 c 2,48,-1
 354 256 l 1,49,50
 348 255 348 255 323.5 249.5 c 128,-1,51
 299 244 299 244 282 241 c 0,52,53
 172 227 172 227 172 160 c 0,42,43
493 318 m 1,54,-1
 707 318 l 1,55,56
 707 320 707 320 707 322 c 0,57,58
 707 372 707 372 678.5 408 c 128,-1,59
 650 444 650 444 607 444 c 0,60,61
 518 444 518 444 494 343 c 1,62,-1
 493 318 l 1,54,-1
EndSplineSet
EndChar

StartChar: eth
Encoding: 240 240 178
Width: 557
GlyphClass: 2
Flags: W
LayerCount: 2
Fore
SplineSet
28 228 m 0,0,1
 28 345 28 345 94.5 416 c 128,-1,2
 161 487 161 487 267 487 c 0,3,4
 328 487 328 487 366 464 c 1,5,6
 353 515 353 515 305 562 c 1,7,-1
 219 498 l 1,8,-1
 136 589 l 1,9,-1
 199 636 l 1,10,11
 159 654 159 654 118 661 c 1,12,-1
 170 777 l 1,13,14
 217 770 217 770 262 755 c 0,15,16
 289 745 289 745 320 727 c 1,17,-1
 420 802 l 1,18,-1
 501 710 l 1,19,-1
 419 648 l 1,20,21
 433 633 433 633 445 616 c 0,22,23
 482 564 482 564 506.5 478.5 c 128,-1,24
 531 393 531 393 531 285 c 0,25,26
 531 148 531 148 462.5 66 c 128,-1,27
 394 -16 394 -16 270 -16 c 0,28,29
 162 -16 162 -16 95 51 c 128,-1,30
 28 118 28 118 28 228 c 0,0,1
175 234 m 0,31,32
 175 178 175 178 202 142 c 128,-1,33
 229 106 229 106 276 106 c 0,34,35
 319 106 319 106 345.5 140.5 c 128,-1,36
 372 175 372 175 372 234 c 0,37,38
 372 292 372 292 345.5 327.5 c 128,-1,39
 319 363 319 363 274 363 c 0,40,41
 230 363 230 363 202.5 327 c 128,-1,42
 175 291 175 291 175 234 c 0,31,32
EndSplineSet
EndChar

StartChar: divide
Encoding: 247 247 185
Width: 556
GlyphClass: 2
Flags: W
LayerCount: 2
Fore
SplineSet
197 485 m 1,0,-1
 197 639 l 1,1,-1
 356 639 l 1,2,-1
 356 485 l 1,3,-1
 197 485 l 1,0,-1
26 298 m 1,4,-1
 26 425 l 1,5,-1
 530 425 l 1,6,-1
 530 298 l 1,7,-1
 26 298 l 1,4,-1
197 83 m 1,8,-1
 197 239 l 1,9,-1
 356 239 l 1,10,-1
 356 83 l 1,11,-1
 197 83 l 1,8,-1
EndSplineSet
EndChar

StartChar: oslash
Encoding: 248 248 186
Width: 562
GlyphClass: 2
Flags: W
LayerCount: 2
Fore
SplineSet
28 269 m 0,0,1
 28 325 28 325 42.5 374.5 c 128,-1,2
 57 424 57 424 86 466 c 128,-1,3
 115 508 115 508 165.5 532 c 128,-1,4
 216 556 216 556 282 556 c 0,5,6
 336 556 336 556 381 539 c 1,7,-1
 417 607 l 1,8,-1
 524 607 l 1,9,-1
 459 488 l 1,10,11
 535 409 535 409 535 269 c 0,12,13
 535 233 535 233 528.5 197.5 c 128,-1,14
 522 162 522 162 505 122.5 c 128,-1,15
 488 83 488 83 460.5 53 c 128,-1,16
 433 23 433 23 387 3.5 c 128,-1,17
 341 -16 341 -16 282 -16 c 0,18,19
 224 -16 224 -16 184 -2 c 1,20,-1
 154 -54 l 1,21,-1
 49 -54 l 1,22,-1
 106 48 l 1,23,24
 28 127 28 127 28 269 c 0,0,1
377 345 m 1,25,-1
 246 113 l 1,26,27
 263 106 263 106 282 106 c 0,28,29
 299 106 299 106 315.5 113 c 128,-1,30
 332 120 332 120 349 137 c 128,-1,31
 366 154 366 154 377 188.5 c 128,-1,32
 388 223 388 223 388 269 c 0,33,34
 388 311 388 311 377 345 c 1,25,-1
319 425 m 1,35,36
 299 434 299 434 282 434 c 0,37,38
 241 434 241 434 208 396.5 c 128,-1,39
 175 359 175 359 175 269 c 0,40,41
 175 229 175 229 188 189 c 1,42,-1
 319 425 l 1,35,36
EndSplineSet
EndChar

StartChar: thorn
Encoding: 254 254 192
Width: 592
GlyphClass: 2
Flags: W
LayerCount: 2
Fore
SplineSet
211 270 m 0,0,1
 211 194 211 194 238.5 150 c 128,-1,2
 266 106 266 106 314 106 c 256,3,4
 362 106 362 106 390 148 c 128,-1,5
 418 190 418 190 418 270 c 0,6,7
 418 346 418 346 391 390 c 128,-1,8
 364 434 364 434 314 434 c 256,9,10
 264 434 264 434 237.5 389.5 c 128,-1,11
 211 345 211 345 211 270 c 0,0,1
69 -212 m 1,12,-1
 69 757 l 1,13,-1
 212 757 l 1,14,-1
 212 496 l 1,15,16
 226 520 226 520 259 538 c 128,-1,17
 292 556 292 556 335 556 c 0,18,19
 433 556 433 556 499 479 c 128,-1,20
 565 402 565 402 565 270 c 0,21,22
 565 195 565 195 544 137 c 128,-1,23
 523 79 523 79 488 47 c 128,-1,24
 453 15 453 15 414.5 -0.5 c 128,-1,25
 376 -16 376 -16 335 -16 c 0,26,27
 251 -16 251 -16 213 42 c 1,28,-1
 213 -212 l 1,29,-1
 69 -212 l 1,12,-1
EndSplineSet
EndChar

StartChar: dcroat
Encoding: 273 273 211
Width: 584
GlyphClass: 2
Flags: W
LayerCount: 2
Fore
SplineSet
28 263 m 0,0,1
 28 398 28 398 93.5 469.5 c 128,-1,2
 159 541 159 541 257 541 c 0,3,4
 298 541 298 541 331 526 c 128,-1,5
 364 511 364 511 380 489 c 1,6,-1
 380 575 l 1,7,-1
 181 575 l 1,8,-1
 181 685 l 1,9,-1
 380 685 l 1,10,-1
 380 757 l 1,11,-1
 524 757 l 1,12,-1
 524 685 l 1,13,-1
 573 685 l 1,14,-1
 573 575 l 1,15,-1
 524 575 l 1,16,-1
 524 0 l 1,17,-1
 385 0 l 1,18,-1
 385 54 l 1,19,20
 366 23 366 23 332.5 3.5 c 128,-1,21
 299 -16 299 -16 258 -16 c 0,22,23
 162 -16 162 -16 95 55.5 c 128,-1,24
 28 127 28 127 28 263 c 0,0,1
176 263 m 0,25,26
 176 185 176 185 205 145.5 c 128,-1,27
 234 106 234 106 279 106 c 0,28,29
 326 106 326 106 354 148.5 c 128,-1,30
 382 191 382 191 382 263 c 0,31,32
 382 333 382 333 354.5 376 c 128,-1,33
 327 419 327 419 279 419 c 0,34,35
 233 419 233 419 204.5 376.5 c 128,-1,36
 176 334 176 334 176 263 c 0,25,26
EndSplineSet
EndChar

StartChar: uni0123
Encoding: 291 291 229
Width: 570
GlyphClass: 2
Flags: W
LayerCount: 2
Fore
SplineSet
198 621 m 1,0,-1
 292 817 l 1,1,-1
 389 817 l 1,2,-1
 350 621 l 1,3,-1
 198 621 l 1,0,-1
179 281 m 0,4,5
 179 206 179 206 205.5 167 c 128,-1,6
 232 128 232 128 276 128 c 0,7,8
 319 128 319 128 345.5 167 c 128,-1,9
 372 206 372 206 372 281 c 0,10,11
 372 354 372 354 345.5 394 c 128,-1,12
 319 434 319 434 276 434 c 0,13,14
 231 434 231 434 205 394 c 128,-1,15
 179 354 179 354 179 281 c 0,4,5
31 280 m 0,16,17
 31 407 31 407 95 481.5 c 128,-1,18
 159 556 159 556 257 556 c 0,19,20
 299 556 299 556 329 536.5 c 128,-1,21
 359 517 359 517 372 494 c 1,22,-1
 372 540 l 1,23,-1
 516 540 l 1,24,-1
 516 82 l 2,25,26
 516 -72 516 -72 453.5 -143.5 c 128,-1,27
 391 -215 391 -215 265 -215 c 0,28,29
 198 -215 198 -215 141 -187.5 c 128,-1,30
 84 -160 84 -160 48 -108 c 1,31,-1
 141 -41 l 1,32,33
 190 -101 190 -101 267 -101 c 0,34,35
 308 -101 308 -101 338 -71.5 c 128,-1,36
 368 -42 368 -42 372 4 c 0,37,38
 374 37 374 37 374 57 c 1,39,40
 358 34 358 34 325.5 20 c 128,-1,41
 293 6 293 6 262 6 c 0,42,43
 160 6 160 6 95.5 80 c 128,-1,44
 31 154 31 154 31 280 c 0,16,17
EndSplineSet
EndChar

StartChar: Hbar
Encoding: 294 294 232
Width: 695
GlyphClass: 2
Flags: W
LayerCount: 2
Fore
SplineSet
6 534 m 1,0,-1
 6 652 l 1,1,-1
 71 652 l 1,2,-1
 71 735 l 1,3,-1
 219 735 l 1,4,-1
 219 652 l 1,5,-1
 477 652 l 1,6,-1
 477 735 l 1,7,-1
 625 735 l 1,8,-1
 625 652 l 1,9,-1
 691 652 l 1,10,-1
 691 534 l 1,11,-1
 625 534 l 1,12,-1
 625 0 l 1,13,-1
 477 0 l 1,14,-1
 477 314 l 1,15,-1
 219 314 l 1,16,-1
 219 0 l 1,17,-1
 71 0 l 1,18,-1
 71 534 l 1,19,-1
 6 534 l 1,0,-1
477 534 m 1,20,-1
 219 534 l 1,21,-1
 219 441 l 1,22,-1
 477 441 l 1,23,-1
 477 534 l 1,20,-1
EndSplineSet
EndChar

StartChar: hbar
Encoding: 295 295 233
Width: 562
GlyphClass: 2
Flags: W
LayerCount: 2
Fore
SplineSet
-1 575 m 1,0,-1
 -1 684 l 1,1,-1
 61 684 l 1,2,-1
 61 757 l 1,3,-1
 203 757 l 1,4,-1
 203 684 l 1,5,-1
 391 684 l 1,6,-1
 391 575 l 1,7,-1
 203 575 l 1,8,-1
 203 474 l 1,9,-1
 204 474 l 1,10,11
 256 526 256 526 328 526 c 0,12,13
 361 526 361 526 391 516.5 c 128,-1,14
 421 507 421 507 449.5 485 c 128,-1,15
 478 463 478 463 495.5 419.5 c 128,-1,16
 513 376 513 376 513 316 c 2,17,-1
 513 0 l 1,18,-1
 370 0 l 1,19,-1
 370 302 l 2,20,21
 370 403 370 403 302 403 c 0,22,23
 258 403 258 403 230.5 364 c 128,-1,24
 203 325 203 325 203 272 c 2,25,-1
 203 0 l 1,26,-1
 61 0 l 1,27,-1
 61 575 l 1,28,-1
 -1 575 l 1,0,-1
EndSplineSet
EndChar

StartChar: dotlessi
Encoding: 305 305 243
Width: 265
GlyphClass: 2
Flags: W
LayerCount: 2
Fore
SplineSet
61 0 m 1,0,-1
 61 540 l 1,1,-1
 204 540 l 1,2,-1
 204 0 l 1,3,-1
 61 0 l 1,0,-1
EndSplineSet
EndChar

StartChar: kgreenlandic
Encoding: 312 312 250
Width: 554
GlyphClass: 2
Flags: W
LayerCount: 2
Fore
SplineSet
61 0 m 1,0,-1
 61 540 l 1,1,-1
 203 540 l 1,2,-1
 203 364 l 1,3,-1
 206 364 l 1,4,-1
 385 540 l 1,5,-1
 565 540 l 1,6,-1
 323 303 l 1,7,-1
 565 0 l 1,8,-1
 396 0 l 1,9,-1
 231 200 l 1,10,-1
 203 168 l 1,11,-1
 203 0 l 1,12,-1
 61 0 l 1,0,-1
EndSplineSet
EndChar

StartChar: Lslash
Encoding: 321 321 259
Width: 553
GlyphClass: 2
Flags: W
LayerCount: 2
Fore
SplineSet
220 329 m 1,0,-1
 220 127 l 1,1,-1
 543 127 l 1,2,-1
 543 0 l 1,3,-1
 71 0 l 1,4,-1
 71 239 l 1,5,-1
 -3 193 l 1,6,-1
 -71 304 l 1,7,-1
 71 390 l 1,8,-1
 71 735 l 1,9,-1
 220 735 l 1,10,-1
 220 480 l 1,11,-1
 326 547 l 1,12,-1
 394 437 l 1,13,-1
 220 329 l 1,0,-1
EndSplineSet
EndChar

StartChar: lslash
Encoding: 322 322 260
Width: 272
GlyphClass: 2
Flags: W
LayerCount: 2
Fore
SplineSet
208 345 m 1,0,-1
 208 0 l 1,1,-1
 65 0 l 1,2,-1
 65 262 l 1,3,-1
 -12 217 l 1,4,-1
 -80 328 l 1,5,-1
 65 413 l 1,6,-1
 65 757 l 1,7,-1
 208 757 l 1,8,-1
 208 496 l 1,9,-1
 285 540 l 1,10,-1
 351 430 l 1,11,-1
 208 345 l 1,0,-1
EndSplineSet
EndChar

StartChar: Eng
Encoding: 330 330 268
Width: 699
GlyphClass: 2
Flags: W
LayerCount: 2
Fore
SplineSet
71 0 m 1,0,-1
 71 735 l 1,1,-1
 223 735 l 1,2,-1
 492 225 l 1,3,-1
 495 225 l 1,4,5
 481 312 481 312 481 437 c 2,6,-1
 481 735 l 1,7,-1
 631 735 l 1,8,-1
 631 20 l 2,9,10
 631 -43 631 -43 614 -89 c 128,-1,11
 597 -135 597 -135 568 -158.5 c 128,-1,12
 539 -182 539 -182 507.5 -193 c 128,-1,13
 476 -204 476 -204 440 -204 c 0,14,15
 397 -204 397 -204 333 -192 c 1,16,-1
 333 -68 l 1,17,18
 367 -76 367 -76 408 -76 c 0,19,20
 445 -76 445 -76 461 -59.5 c 128,-1,21
 477 -43 477 -43 481 -3 c 1,22,-1
 273 377 l 1,23,-1
 208 506 l 1,24,-1
 204 506 l 1,25,26
 220 367 220 367 220 294 c 2,27,-1
 220 0 l 1,28,-1
 71 0 l 1,0,-1
EndSplineSet
EndChar

StartChar: eng
Encoding: 331 331 269
Width: 558
GlyphClass: 2
Flags: W
LayerCount: 2
Fore
SplineSet
56 0 m 1,0,-1
 56 540 l 1,1,-1
 193 540 l 1,2,-1
 193 488 l 1,3,-1
 194 488 l 1,4,5
 242 556 242 556 331 556 c 0,6,7
 510 556 510 556 510 346 c 2,8,-1
 510 8 l 2,9,10
 510 -55 510 -55 491 -101 c 128,-1,11
 472 -147 472 -147 441.5 -170.5 c 128,-1,12
 411 -194 411 -194 380 -204.5 c 128,-1,13
 349 -215 349 -215 318 -215 c 0,14,15
 283 -215 283 -215 223 -205 c 1,16,-1
 223 -79 l 1,17,18
 266 -89 266 -89 293 -89 c 0,19,20
 367 -89 367 -89 367 -11 c 2,21,-1
 367 329 l 2,22,23
 367 379 367 379 353 406.5 c 128,-1,24
 339 434 339 434 300 434 c 0,25,26
 255 434 255 434 227 398 c 128,-1,27
 199 362 199 362 199 307 c 2,28,-1
 199 0 l 1,29,-1
 56 0 l 1,0,-1
EndSplineSet
EndChar

StartChar: OE
Encoding: 338 338 276
Width: 985
GlyphClass: 3
Flags: W
LayerCount: 2
Fore
SplineSet
32 367 m 256,0,1
 32 539 32 539 121 645 c 128,-1,2
 210 751 210 751 355 751 c 0,3,4
 419 751 419 751 457 735 c 1,5,-1
 951 735 l 1,6,-1
 951 607 l 1,7,-1
 600 607 l 1,8,-1
 600 442 l 1,9,-1
 916 442 l 1,10,-1
 916 317 l 1,11,-1
 600 317 l 1,12,-1
 600 127 l 1,13,-1
 962 127 l 1,14,-1
 962 0 l 1,15,-1
 459 0 l 1,16,17
 410 -16 410 -16 355 -16 c 0,18,19
 208 -16 208 -16 120 89.5 c 128,-1,20
 32 195 32 195 32 367 c 256,0,1
187 367 m 256,21,22
 187 249 187 249 231.5 180 c 128,-1,23
 276 111 276 111 355 111 c 0,24,25
 408 111 408 111 450 148 c 1,26,-1
 450 586 l 1,27,28
 413 623 413 623 355 623 c 0,29,30
 276 623 276 623 231.5 554 c 128,-1,31
 187 485 187 485 187 367 c 256,21,22
EndSplineSet
EndChar

StartChar: uni0163
Encoding: 355 355 293
Width: 373
GlyphClass: 2
Flags: W
LayerCount: 2
Fore
SplineSet
15 419 m 1,0,-1
 15 540 l 1,1,-1
 92 540 l 1,2,-1
 92 694 l 1,3,-1
 234 694 l 1,4,-1
 234 540 l 1,5,-1
 346 540 l 1,6,-1
 346 419 l 1,7,-1
 234 419 l 1,8,-1
 234 181 l 2,9,10
 234 122 234 122 286 122 c 2,11,-1
 347 122 l 1,12,-1
 347 0 l 1,13,-1
 297 0 l 1,14,-1
 290 -25 l 1,15,16
 325 -33 325 -33 345.5 -55 c 128,-1,17
 366 -77 366 -77 366 -109 c 0,18,19
 366 -153 366 -153 328 -185 c 128,-1,20
 290 -217 290 -217 204 -217 c 0,21,22
 156 -217 156 -217 115 -207 c 1,23,-1
 115 -119 l 1,24,25
 162 -128 162 -128 199 -128 c 0,26,27
 255 -128 255 -128 255 -100 c 0,28,29
 255 -74 255 -74 161 -71 c 2,30,-1
 153 -71 l 1,31,-1
 174 17 l 1,32,33
 92 55 92 55 92 173 c 2,34,-1
 92 419 l 1,35,-1
 15 419 l 1,0,-1
EndSplineSet
Substitution2: "'locl' Localized Forms in Latin lookup 3 subtable" uni021B
Substitution2: "'locl' Localized Forms in Latin lookup 2 subtable" uni021B
Substitution2: "'aalt' Access All Alternates lookup 0 subtable" uni021B
EndChar

StartChar: tbar
Encoding: 359 359 297
Width: 373
GlyphClass: 2
Flags: W
LayerCount: 2
Fore
SplineSet
15 419 m 1,0,-1
 15 540 l 1,1,-1
 92 540 l 1,2,-1
 92 694 l 1,3,-1
 234 694 l 1,4,-1
 234 540 l 1,5,-1
 346 540 l 1,6,-1
 346 419 l 1,7,-1
 234 419 l 1,8,-1
 234 367 l 1,9,-1
 343 367 l 1,10,-1
 343 249 l 1,11,-1
 234 249 l 1,12,-1
 234 181 l 2,13,14
 234 122 234 122 286 122 c 2,15,-1
 347 122 l 1,16,-1
 347 0 l 1,17,-1
 268 0 l 2,18,19
 92 0 92 0 92 173 c 2,20,-1
 92 249 l 1,21,-1
 1 249 l 1,22,-1
 1 367 l 1,23,-1
 92 367 l 1,24,-1
 92 419 l 1,25,-1
 15 419 l 1,0,-1
EndSplineSet
EndChar

StartChar: longs
Encoding: 383 383 321
Width: 319
GlyphClass: 2
Flags: W
LayerCount: 2
Fore
SplineSet
66 0 m 1,0,-1
 66 585 l 2,1,2
 66 670 66 670 108.5 713.5 c 128,-1,3
 151 757 151 757 230 757 c 2,4,-1
 323 757 l 1,5,-1
 323 634 l 1,6,-1
 259 634 l 2,7,8
 233 634 233 634 221 620 c 128,-1,9
 209 606 209 606 209 572 c 2,10,-1
 209 0 l 1,11,-1
 66 0 l 1,0,-1
EndSplineSet
EndChar

StartChar: uni0180
Encoding: 384 384 322
Width: 584
GlyphClass: 2
Flags: W
LayerCount: 2
Fore
SplineSet
202 265 m 0,0,1
 202 192 202 192 230 149 c 128,-1,2
 258 106 258 106 307 106 c 0,3,4
 352 106 352 106 380.5 147 c 128,-1,5
 409 188 409 188 409 265 c 0,6,7
 409 337 409 337 381 380.5 c 128,-1,8
 353 424 353 424 306 424 c 0,9,10
 258 424 258 424 230 380 c 128,-1,11
 202 336 202 336 202 265 c 0,0,1
-1 575 m 1,12,-1
 -1 686 l 1,13,-1
 61 686 l 1,14,-1
 61 757 l 1,15,-1
 203 757 l 1,16,-1
 203 686 l 1,17,-1
 385 686 l 1,18,-1
 385 575 l 1,19,-1
 203 575 l 1,20,-1
 203 489 l 1,21,22
 258 546 258 546 328 546 c 0,23,24
 426 546 426 546 491.5 471 c 128,-1,25
 557 396 557 396 557 265 c 0,26,27
 557 191 557 191 535.5 134.5 c 128,-1,28
 514 78 514 78 479.5 46.5 c 128,-1,29
 445 15 445 15 407 -0.5 c 128,-1,30
 369 -16 369 -16 330 -16 c 0,31,32
 285 -16 285 -16 249.5 5 c 128,-1,33
 214 26 214 26 199 53 c 1,34,-1
 199 0 l 1,35,-1
 61 0 l 1,36,-1
 61 575 l 1,37,-1
 -1 575 l 1,12,-1
EndSplineSet
EndChar

StartChar: uni0182
Encoding: 386 386 324
Width: 659
GlyphClass: 2
Flags: W
LayerCount: 2
Fore
SplineSet
220 127 m 1,0,-1
 372 127 l 2,1,2
 413 127 413 127 441.5 149.5 c 128,-1,3
 470 172 470 172 470 219 c 0,4,5
 470 258 470 258 445.5 286 c 128,-1,6
 421 314 421 314 372 314 c 2,7,-1
 220 314 l 1,8,-1
 220 127 l 1,0,-1
71 0 m 1,9,-1
 71 735 l 1,10,-1
 539 735 l 1,11,-1
 539 607 l 1,12,-1
 220 607 l 1,13,-1
 220 441 l 1,14,-1
 382 441 l 2,15,16
 500 441 500 441 562.5 377.5 c 128,-1,17
 625 314 625 314 625 219 c 0,18,19
 625 127 625 127 563 63.5 c 128,-1,20
 501 0 501 0 392 0 c 2,21,-1
 71 0 l 1,9,-1
EndSplineSet
EndChar

StartChar: uni0183
Encoding: 387 387 325
Width: 584
GlyphClass: 2
Flags: W
LayerCount: 2
Fore
SplineSet
202 270 m 0,0,1
 202 193 202 193 230 149.5 c 128,-1,2
 258 106 258 106 307 106 c 0,3,4
 353 106 353 106 381 147.5 c 128,-1,5
 409 189 409 189 409 270 c 0,6,7
 409 346 409 346 382 390 c 128,-1,8
 355 434 355 434 307 434 c 0,9,10
 255 434 255 434 228.5 389 c 128,-1,11
 202 344 202 344 202 270 c 0,0,1
61 0 m 1,12,-1
 61 746 l 1,13,-1
 466 746 l 1,14,-1
 466 623 l 1,15,-1
 203 623 l 1,16,-1
 203 502 l 1,17,18
 250 556 250 556 328 556 c 0,19,20
 427 556 427 556 492 479.5 c 128,-1,21
 557 403 557 403 557 270 c 0,22,23
 557 196 557 196 536.5 138 c 128,-1,24
 516 80 516 80 482 47.5 c 128,-1,25
 448 15 448 15 410 -0.5 c 128,-1,26
 372 -16 372 -16 330 -16 c 0,27,28
 286 -16 286 -16 250 5.5 c 128,-1,29
 214 27 214 27 199 53 c 1,30,-1
 199 0 l 1,31,-1
 61 0 l 1,12,-1
EndSplineSet
EndChar

StartChar: uni0184
Encoding: 388 388 326
Width: 660
GlyphClass: 2
Flags: W
LayerCount: 2
Fore
SplineSet
-22 655 m 1,0,-1
 140 735 l 1,1,-1
 220 735 l 1,2,-1
 220 440 l 1,3,-1
 383 440 l 2,4,5
 502 440 502 440 564 377 c 128,-1,6
 626 314 626 314 626 219 c 0,7,8
 626 126 626 126 564 63 c 128,-1,9
 502 0 502 0 393 0 c 2,10,-1
 71 0 l 1,11,-1
 71 581 l 1,12,-1
 -22 655 l 1,0,-1
220 127 m 1,13,-1
 372 127 l 2,14,15
 413 127 413 127 442 149 c 128,-1,16
 471 171 471 171 471 219 c 0,17,18
 471 258 471 258 447 286 c 128,-1,19
 423 314 423 314 372 314 c 2,20,-1
 220 314 l 1,21,-1
 220 127 l 1,13,-1
EndSplineSet
EndChar

StartChar: uni0185
Encoding: 389 389 327
Width: 584
GlyphClass: 2
Flags: W
LayerCount: 2
Fore
SplineSet
-24 676 m 1,0,-1
 127 757 l 1,1,-1
 203 757 l 1,2,-1
 203 502 l 1,3,4
 214 520 214 520 248 538 c 128,-1,5
 282 556 282 556 328 556 c 0,6,7
 428 556 428 556 492.5 479.5 c 128,-1,8
 557 403 557 403 557 270 c 0,9,10
 557 197 557 197 537 140 c 128,-1,11
 517 83 517 83 483.5 50 c 128,-1,12
 450 17 450 17 411 0.5 c 128,-1,13
 372 -16 372 -16 330 -16 c 0,14,15
 287 -16 287 -16 252 4.5 c 128,-1,16
 217 25 217 25 199 53 c 1,17,-1
 199 0 l 1,18,-1
 61 0 l 1,19,-1
 61 603 l 1,20,-1
 -24 676 l 1,0,-1
202 270 m 0,21,22
 202 193 202 193 230 149.5 c 128,-1,23
 258 106 258 106 307 106 c 0,24,25
 354 106 354 106 381.5 148.5 c 128,-1,26
 409 191 409 191 409 270 c 0,27,28
 409 345 409 345 383 389.5 c 128,-1,29
 357 434 357 434 307 434 c 0,30,31
 256 434 256 434 229 390 c 128,-1,32
 202 346 202 346 202 270 c 0,21,22
EndSplineSet
EndChar

StartChar: uni0186
Encoding: 390 390 328
Width: 671
GlyphClass: 2
Flags: W
LayerCount: 2
Fore
SplineSet
16 188 m 1,0,-1
 151 231 l 1,1,2
 169 181 169 181 211.5 146 c 128,-1,3
 254 111 254 111 308 111 c 0,4,5
 389 111 389 111 437 180.5 c 128,-1,6
 485 250 485 250 485 368 c 0,7,8
 485 484 485 484 437 553.5 c 128,-1,9
 389 623 389 623 308 623 c 0,10,11
 254 623 254 623 221 595 c 128,-1,12
 188 567 188 567 162 522 c 1,13,-1
 34 564 l 1,14,15
 67 644 67 644 138 697.5 c 128,-1,16
 209 751 209 751 307 751 c 0,17,18
 453 751 453 751 546.5 647 c 128,-1,19
 640 543 640 543 640 368 c 0,20,21
 640 188 640 188 545 86 c 128,-1,22
 450 -16 450 -16 307 -16 c 0,23,24
 258 -16 258 -16 214.5 -2.5 c 128,-1,25
 171 11 171 11 140 32 c 128,-1,26
 109 53 109 53 83 81 c 128,-1,27
 57 109 57 109 42 135.5 c 128,-1,28
 27 162 27 162 16 188 c 1,0,-1
EndSplineSet
EndChar

StartChar: uni018B
Encoding: 395 395 333
Width: 658
GlyphClass: 2
Flags: W
LayerCount: 2
Fore
SplineSet
188 219 m 0,0,1
 188 172 188 172 217.5 149.5 c 128,-1,2
 247 127 247 127 287 127 c 2,3,-1
 440 127 l 1,4,-1
 440 314 l 1,5,-1
 288 314 l 2,6,7
 239 314 239 314 213.5 286 c 128,-1,8
 188 258 188 258 188 219 c 0,0,1
34 219 m 0,9,10
 34 314 34 314 97 377.5 c 128,-1,11
 160 441 160 441 277 441 c 2,12,-1
 440 441 l 1,13,-1
 440 607 l 1,14,-1
 119 607 l 1,15,-1
 119 735 l 1,16,-1
 588 735 l 1,17,-1
 588 0 l 1,18,-1
 267 0 l 2,19,20
 159 0 159 0 96.5 63.5 c 128,-1,21
 34 127 34 127 34 219 c 0,9,10
EndSplineSet
EndChar

StartChar: uni018C
Encoding: 396 396 334
Width: 584
GlyphClass: 2
Flags: W
LayerCount: 2
Fore
SplineSet
175 270 m 0,0,1
 175 189 175 189 203.5 147.5 c 128,-1,2
 232 106 232 106 279 106 c 0,3,4
 329 106 329 106 355.5 150 c 128,-1,5
 382 194 382 194 382 270 c 0,6,7
 382 344 382 344 356 389 c 128,-1,8
 330 434 330 434 279 434 c 0,9,10
 230 434 230 434 202.5 390.5 c 128,-1,11
 175 347 175 347 175 270 c 0,0,1
28 270 m 0,12,13
 28 403 28 403 93 479.5 c 128,-1,14
 158 556 158 556 258 556 c 0,15,16
 336 556 336 556 380 501 c 1,17,-1
 380 635 l 1,18,-1
 118 635 l 1,19,-1
 118 757 l 1,20,-1
 524 757 l 1,21,-1
 524 0 l 1,22,-1
 385 0 l 1,23,-1
 385 53 l 1,24,25
 369 26 369 26 335.5 5 c 128,-1,26
 302 -16 302 -16 257 -16 c 0,27,28
 214 -16 214 -16 175.5 -0.5 c 128,-1,29
 137 15 137 15 103 48 c 128,-1,30
 69 81 69 81 48.5 138 c 128,-1,31
 28 195 28 195 28 270 c 0,12,13
EndSplineSet
EndChar

StartChar: uni018D
Encoding: 397 397 335
Width: 607
GlyphClass: 2
Flags: W
LayerCount: 2
Fore
SplineSet
176 322 m 0,0,1
 176 226 176 226 313 167 c 1,2,3
 368 194 368 194 400.5 233 c 128,-1,4
 433 272 433 272 433 319 c 0,5,6
 433 370 433 370 400.5 402.5 c 128,-1,7
 368 435 368 435 309 435 c 0,8,9
 245 435 245 435 210.5 402.5 c 128,-1,10
 176 370 176 370 176 322 c 0,0,1
28 319 m 0,11,12
 28 433 28 433 103 494.5 c 128,-1,13
 178 556 178 556 310 556 c 0,14,15
 438 556 438 556 510 491.5 c 128,-1,16
 582 427 582 427 582 325 c 0,17,18
 582 264 582 264 543.5 204 c 128,-1,19
 505 144 505 144 433 106 c 1,20,21
 472 81 472 81 492 43.5 c 128,-1,22
 512 6 512 6 512 -32 c 0,23,24
 512 -121 512 -121 444 -167.5 c 128,-1,25
 376 -214 376 -214 276 -214 c 0,26,27
 190 -214 190 -214 127 -177 c 128,-1,28
 64 -140 64 -140 32 -78 c 1,29,-1
 136 -22 l 1,30,31
 157 -50 157 -50 193 -70.5 c 128,-1,32
 229 -91 229 -91 274 -91 c 0,33,34
 317 -91 317 -91 341 -75.5 c 128,-1,35
 365 -60 365 -60 365 -37 c 0,36,37
 365 -29 365 -29 361 -21 c 128,-1,38
 357 -13 357 -13 346 -4 c 128,-1,39
 335 5 335 5 326.5 11.5 c 128,-1,40
 318 18 318 18 297.5 29 c 128,-1,41
 277 40 277 40 267.5 45 c 128,-1,42
 258 50 258 50 232 64 c 0,43,44
 190 85 190 85 158.5 106 c 128,-1,45
 127 127 127 127 95 157.5 c 128,-1,46
 63 188 63 188 45.5 229 c 128,-1,47
 28 270 28 270 28 319 c 0,11,12
EndSplineSet
EndChar

StartChar: uni018E
Encoding: 398 398 336
Width: 599
GlyphClass: 2
Flags: W
LayerCount: 2
Fore
SplineSet
33 0 m 1,0,-1
 33 127 l 1,1,-1
 382 127 l 1,2,-1
 382 317 l 1,3,-1
 69 317 l 1,4,-1
 69 442 l 1,5,-1
 382 442 l 1,6,-1
 382 607 l 1,7,-1
 26 607 l 1,8,-1
 26 735 l 1,9,-1
 531 735 l 1,10,-1
 531 0 l 1,11,-1
 33 0 l 1,0,-1
EndSplineSet
EndChar

StartChar: uni018F
Encoding: 399 399 337
Width: 710
GlyphClass: 2
Flags: W
LayerCount: 2
Fore
SplineSet
31 370 m 0,0,1
 31 395 31 395 35 436 c 1,2,-1
 520 436 l 1,3,4
 510 529 510 529 462.5 576 c 128,-1,5
 415 623 415 623 349 623 c 0,6,7
 244 623 244 623 178 525 c 1,8,-1
 49 574 l 1,9,10
 92 661 92 661 170.5 706 c 128,-1,11
 249 751 249 751 352 751 c 0,12,13
 503 751 503 751 591 643 c 128,-1,14
 679 535 679 535 679 365 c 0,15,16
 679 199 679 199 588 91.5 c 128,-1,17
 497 -16 497 -16 352 -16 c 0,18,19
 210 -16 210 -16 120.5 87.5 c 128,-1,20
 31 191 31 191 31 370 c 0,0,1
189 308 m 1,21,22
 189 299 189 299 190 294 c 0,23,24
 199 217 199 217 241.5 164 c 128,-1,25
 284 111 284 111 354 111 c 0,26,27
 423 111 423 111 469.5 167 c 128,-1,28
 516 223 516 223 520 308 c 1,29,-1
 189 308 l 1,21,22
EndSplineSet
EndChar

StartChar: uni0190
Encoding: 400 400 338
Width: 615
GlyphClass: 2
Flags: W
LayerCount: 2
Fore
SplineSet
34 211 m 0,0,1
 34 278 34 278 71.5 322.5 c 128,-1,2
 109 367 109 367 158 386 c 1,3,4
 118 409 118 409 90 455 c 128,-1,5
 62 501 62 501 62 551 c 0,6,7
 62 642 62 642 130 696.5 c 128,-1,8
 198 751 198 751 307 751 c 0,9,10
 369 751 369 751 419.5 731.5 c 128,-1,11
 470 712 470 712 500 681 c 128,-1,12
 530 650 530 650 547.5 621 c 128,-1,13
 565 592 565 592 573 564 c 1,14,-1
 447 527 l 1,15,16
 399 628 399 628 316 628 c 0,17,18
 271 628 271 628 243 602 c 128,-1,19
 215 576 215 576 215 536 c 0,20,21
 215 491 215 491 254 463 c 128,-1,22
 293 435 293 435 337 435 c 0,23,24
 398 435 398 435 424 437 c 1,25,-1
 424 317 l 1,26,27
 382 319 382 319 337 319 c 0,28,29
 274 319 274 319 231 289 c 128,-1,30
 188 259 188 259 188 213 c 0,31,32
 188 161 188 161 225.5 133.5 c 128,-1,33
 263 106 263 106 319 106 c 0,34,35
 365 106 365 106 407.5 135.5 c 128,-1,36
 450 165 450 165 469 205 c 1,37,-1
 590 162 l 1,38,39
 559 76 559 76 487 30 c 128,-1,40
 415 -16 415 -16 312 -16 c 0,41,42
 185 -16 185 -16 109.5 45.5 c 128,-1,43
 34 107 34 107 34 211 c 0,0,1
EndSplineSet
EndChar

StartChar: uni0191
Encoding: 401 401 339
Width: 573
GlyphClass: 2
Flags: W
LayerCount: 2
Fore
SplineSet
-48 -82 m 1,0,1
 -15 -89 -15 -89 5 -89 c 0,2,3
 71 -89 71 -89 71 11 c 2,4,-1
 71 735 l 1,5,-1
 553 735 l 1,6,-1
 553 607 l 1,7,-1
 219 607 l 1,8,-1
 219 431 l 1,9,-1
 518 431 l 1,10,-1
 518 304 l 1,11,-1
 219 304 l 1,12,-1
 219 11 l 2,13,14
 219 -42 219 -42 207 -83.5 c 128,-1,15
 195 -125 195 -125 176 -149 c 128,-1,16
 157 -173 157 -173 132 -189 c 128,-1,17
 107 -205 107 -205 83.5 -210 c 128,-1,18
 60 -215 60 -215 36 -215 c 0,19,20
 -4 -215 -4 -215 -48 -207 c 1,21,-1
 -48 -82 l 1,0,1
EndSplineSet
EndChar

StartChar: florin
Encoding: 402 402 340
Width: 354
GlyphClass: 2
Flags: W
LayerCount: 2
Fore
SplineSet
-20 -83 m 1,0,1
 7 -89 7 -89 33 -89 c 0,2,3
 99 -89 99 -89 99 10 c 2,4,-1
 99 419 l 1,5,-1
 22 419 l 1,6,-1
 22 540 l 1,7,-1
 99 540 l 1,8,-1
 99 585 l 2,9,10
 99 670 99 670 141 713.5 c 128,-1,11
 183 757 183 757 262 757 c 2,12,-1
 357 757 l 1,13,-1
 357 634 l 1,14,-1
 284 634 l 2,15,16
 261 634 261 634 251.5 621 c 128,-1,17
 242 608 242 608 242 576 c 2,18,-1
 242 540 l 1,19,-1
 345 540 l 1,20,-1
 345 419 l 1,21,-1
 242 419 l 1,22,-1
 242 11 l 2,23,24
 242 -55 242 -55 225 -102.5 c 128,-1,25
 208 -150 208 -150 180 -173 c 128,-1,26
 152 -196 152 -196 123.5 -205.5 c 128,-1,27
 95 -215 95 -215 64 -215 c 0,28,29
 24 -215 24 -215 -20 -207 c 1,30,-1
 -20 -83 l 1,0,1
EndSplineSet
EndChar

StartChar: uni0194
Encoding: 404 404 342
Width: 653
GlyphClass: 2
Flags: W
LayerCount: 2
Fore
SplineSet
3 735 m 1,0,-1
 161 735 l 1,1,-1
 326 209 l 1,2,-1
 328 209 l 1,3,-1
 493 735 l 1,4,-1
 652 735 l 1,5,-1
 440 140 l 1,6,7
 525 43 525 43 525 -42 c 0,8,9
 525 -118 525 -118 468.5 -166.5 c 128,-1,10
 412 -215 412 -215 326 -215 c 0,11,12
 236 -215 236 -215 180 -168.5 c 128,-1,13
 124 -122 124 -122 124 -42 c 0,14,15
 124 -15 124 -15 133 12 c 128,-1,16
 142 39 142 39 160 66.5 c 128,-1,17
 178 94 178 94 187.5 106 c 128,-1,18
 197 118 197 118 214 140 c 1,19,-1
 3 735 l 1,0,-1
273 -36 m 0,20,21
 273 -62 273 -62 287.5 -79 c 128,-1,22
 302 -96 302 -96 326 -96 c 0,23,24
 349 -96 349 -96 363 -79.5 c 128,-1,25
 377 -63 377 -63 377 -35 c 0,26,27
 377 10 377 10 325 66 c 1,28,29
 273 17 273 17 273 -36 c 0,20,21
EndSplineSet
EndChar

StartChar: uni0195
Encoding: 405 405 343
Width: 873
GlyphClass: 2
Flags: W
LayerCount: 2
Fore
SplineSet
61 0 m 1,0,-1
 61 757 l 1,1,-1
 203 757 l 1,2,-1
 203 504 l 1,3,-1
 204 504 l 1,4,5
 256 556 256 556 329 556 c 0,6,7
 363 556 363 556 393.5 546.5 c 128,-1,8
 424 537 424 537 452 514.5 c 128,-1,9
 480 492 480 492 496.5 449 c 128,-1,10
 513 406 513 406 513 346 c 2,11,-1
 513 206 l 2,12,13
 513 159 513 159 531.5 132.5 c 128,-1,14
 550 106 550 106 601 106 c 0,15,16
 680 106 680 106 680 206 c 2,17,-1
 680 540 l 1,18,-1
 825 540 l 1,19,-1
 825 180 l 2,20,21
 825 138 825 138 812 104 c 128,-1,22
 799 70 799 70 777.5 48 c 128,-1,23
 756 26 756 26 726 11 c 128,-1,24
 696 -4 696 -4 665 -10 c 128,-1,25
 634 -16 634 -16 601 -16 c 0,26,27
 555 -16 555 -16 517 -7 c 128,-1,28
 479 2 479 2 444 22.5 c 128,-1,29
 409 43 409 43 389.5 84 c 128,-1,30
 370 125 370 125 370 181 c 2,31,-1
 370 330 l 2,32,33
 370 379 370 379 356 406.5 c 128,-1,34
 342 434 342 434 303 434 c 0,35,36
 259 434 259 434 231 395 c 128,-1,37
 203 356 203 356 203 303 c 2,38,-1
 203 0 l 1,39,-1
 61 0 l 1,0,-1
EndSplineSet
EndChar

StartChar: uni0196
Encoding: 406 406 344
Width: 363
GlyphClass: 2
Flags: W
LayerCount: 2
Fore
SplineSet
73 167 m 2,0,-1
 73 735 l 1,1,-1
 221 735 l 1,2,-1
 221 172 l 2,3,4
 221 139 221 139 233 125 c 128,-1,5
 245 111 245 111 275 111 c 0,6,7
 312 111 312 111 352 118 c 1,8,-1
 352 -6 l 1,9,10
 273 -16 273 -16 245 -16 c 0,11,12
 172 -16 172 -16 122.5 26.5 c 128,-1,13
 73 69 73 69 73 167 c 2,0,-1
EndSplineSet
EndChar

StartChar: uni0197
Encoding: 407 407 345
Width: 291
GlyphClass: 2
Flags: W
LayerCount: 2
Fore
SplineSet
6 309 m 1,0,-1
 6 425 l 1,1,-1
 71 425 l 1,2,-1
 71 735 l 1,3,-1
 220 735 l 1,4,-1
 220 425 l 1,5,-1
 285 425 l 1,6,-1
 285 309 l 1,7,-1
 220 309 l 1,8,-1
 220 0 l 1,9,-1
 71 0 l 1,10,-1
 71 309 l 1,11,-1
 6 309 l 1,0,-1
EndSplineSet
EndChar

StartChar: uni0198
Encoding: 408 408 346
Width: 660
GlyphClass: 2
Flags: W
LayerCount: 2
Fore
SplineSet
71 0 m 1,0,-1
 71 735 l 1,1,-1
 220 735 l 1,2,-1
 220 436 l 1,3,-1
 222 436 l 1,4,-1
 426 673 l 2,5,6
 495 751 495 751 602 751 c 0,7,8
 659 751 659 751 705 738 c 1,9,-1
 705 609 l 1,10,11
 660 623 660 623 607 623 c 0,12,13
 564 623 564 623 547 602 c 2,14,-1
 377 412 l 1,15,-1
 667 0 l 1,16,-1
 489 0 l 1,17,-1
 284 307 l 1,18,-1
 220 235 l 1,19,-1
 220 0 l 1,20,-1
 71 0 l 1,0,-1
EndSplineSet
EndChar

StartChar: uni0199
Encoding: 409 409 347
Width: 539
GlyphClass: 2
Flags: W
LayerCount: 2
Fore
SplineSet
61 0 m 1,0,-1
 61 621 l 2,1,2
 61 707 61 707 114.5 752.5 c 128,-1,3
 168 798 168 798 250 798 c 0,4,5
 288 798 288 798 354 792 c 1,6,-1
 354 666 l 1,7,8
 315 671 315 671 278 671 c 0,9,10
 248 671 248 671 225.5 649 c 128,-1,11
 203 627 203 627 203 592 c 2,12,-1
 203 358 l 1,13,-1
 369 540 l 1,14,-1
 546 540 l 1,15,-1
 342 319 l 1,16,-1
 553 0 l 1,17,-1
 387 0 l 1,18,-1
 250 218 l 1,19,-1
 203 166 l 1,20,-1
 203 0 l 1,21,-1
 61 0 l 1,0,-1
EndSplineSet
EndChar

StartChar: uni019A
Encoding: 410 410 348
Width: 272
GlyphClass: 2
Flags: W
LayerCount: 2
Fore
SplineSet
-13 372 m 1,0,-1
 -13 490 l 1,1,-1
 65 490 l 1,2,-1
 65 757 l 1,3,-1
 208 757 l 1,4,-1
 208 490 l 1,5,-1
 285 490 l 1,6,-1
 285 372 l 1,7,-1
 208 372 l 1,8,-1
 208 0 l 1,9,-1
 65 0 l 1,10,-1
 65 372 l 1,11,-1
 -13 372 l 1,0,-1
EndSplineSet
EndChar

StartChar: uni019B
Encoding: 411 411 349
Width: 535
GlyphClass: 2
Flags: W
LayerCount: 2
Fore
SplineSet
5 0 m 1,0,-1
 203 516 l 1,1,-1
 199 524 l 1,2,-1
 98 444 l 1,3,-1
 31 534 l 1,4,-1
 139 617 l 1,5,6
 123 631 123 631 79 631 c 2,7,-1
 58 631 l 1,8,-1
 58 752 l 1,9,-1
 103 752 l 2,10,11
 196 752 196 752 252 698 c 1,12,-1
 351 769 l 1,13,-1
 418 680 l 1,14,-1
 310 605 l 1,15,-1
 531 0 l 1,16,-1
 377 0 l 1,17,-1
 304 254 l 2,18,19
 281 345 281 345 275 372 c 1,20,-1
 272 372 l 1,21,22
 263 333 263 333 241 254 c 2,23,-1
 160 0 l 1,24,-1
 5 0 l 1,0,-1
EndSplineSet
EndChar

StartChar: uni019C
Encoding: 412 412 350
Width: 961
GlyphClass: 2
Flags: W
LayerCount: 2
Fore
SplineSet
69 267 m 2,0,-1
 69 735 l 1,1,-1
 217 735 l 1,2,-1
 217 248 l 2,3,4
 217 111 217 111 293 111 c 0,5,6
 344 111 344 111 375 163 c 128,-1,7
 406 215 406 215 406 284 c 2,8,-1
 406 735 l 1,9,-1
 555 735 l 1,10,-1
 555 242 l 2,11,12
 555 202 555 202 563 173.5 c 128,-1,13
 571 145 571 145 583.5 132.5 c 128,-1,14
 596 120 596 120 607 115.5 c 128,-1,15
 618 111 618 111 631 111 c 0,16,17
 686 111 686 111 714 159 c 128,-1,18
 742 207 742 207 742 284 c 2,19,-1
 742 735 l 1,20,-1
 890 735 l 1,21,-1
 890 0 l 1,22,-1
 748 0 l 1,23,-1
 748 59 l 1,24,25
 721 20 721 20 679.5 1.5 c 128,-1,26
 638 -17 638 -17 598 -17 c 0,27,28
 533 -17 533 -17 497 6 c 128,-1,29
 461 29 461 29 442 76 c 1,30,31
 390 -16 390 -16 260 -16 c 0,32,33
 204 -16 204 -16 164.5 6.5 c 128,-1,34
 125 29 125 29 105 70 c 128,-1,35
 85 111 85 111 77 158.5 c 128,-1,36
 69 206 69 206 69 267 c 2,0,-1
EndSplineSet
EndChar

StartChar: uni019D
Encoding: 413 413 351
Width: 700
GlyphClass: 2
Flags: W
LayerCount: 2
Fore
SplineSet
71 734 m 1,0,-1
 223 734 l 1,1,-1
 419 364 l 1,2,-1
 491 225 l 1,3,-1
 494 225 l 1,4,5
 481 381 481 381 481 440 c 2,6,-1
 481 735 l 1,7,-1
 630 735 l 1,8,-1
 630 0 l 1,9,-1
 479 0 l 1,10,-1
 280 364 l 1,11,-1
 208 507 l 1,12,-1
 204 507 l 1,13,14
 220 384 220 384 220 292 c 2,15,-1
 220 9 l 2,16,17
 220 -57 220 -57 202 -104 c 128,-1,18
 184 -151 184 -151 154.5 -174 c 128,-1,19
 125 -197 125 -197 96 -206 c 128,-1,20
 67 -215 67 -215 37 -215 c 0,21,22
 -7 -215 -7 -215 -48 -206 c 1,23,-1
 -48 -83 l 1,24,25
 -28 -88 -28 -88 6 -88 c 0,26,27
 39 -88 39 -88 55 -65.5 c 128,-1,28
 71 -43 71 -43 71 9 c 2,29,-1
 71 734 l 1,0,-1
EndSplineSet
EndChar

StartChar: uni019E
Encoding: 414 414 352
Width: 569
GlyphClass: 2
Flags: W
LayerCount: 2
Fore
SplineSet
56 0 m 1,0,-1
 56 540 l 1,1,-1
 193 540 l 1,2,-1
 193 490 l 1,3,-1
 195 490 l 1,4,5
 241 556 241 556 331 556 c 0,6,7
 510 556 510 556 510 346 c 2,8,-1
 510 -212 l 1,9,-1
 367 -212 l 1,10,-1
 367 329 l 2,11,12
 367 379 367 379 353 406.5 c 128,-1,13
 339 434 339 434 300 434 c 0,14,15
 255 434 255 434 227 398 c 128,-1,16
 199 362 199 362 199 307 c 2,17,-1
 199 0 l 1,18,-1
 56 0 l 1,0,-1
EndSplineSet
EndChar

StartChar: uni019F
Encoding: 415 415 353
Width: 707
GlyphClass: 2
Flags: W
LayerCount: 2
Fore
SplineSet
32 367 m 256,0,1
 32 540 32 540 120.5 645.5 c 128,-1,2
 209 751 209 751 354 751 c 0,3,4
 498 751 498 751 587 645.5 c 128,-1,5
 676 540 676 540 676 367 c 256,6,7
 676 194 676 194 587 89 c 128,-1,8
 498 -16 498 -16 354 -16 c 0,9,10
 208 -16 208 -16 120 89 c 128,-1,11
 32 194 32 194 32 367 c 256,0,1
517 302 m 1,12,-1
 190 302 l 1,13,14
 204 211 204 211 245 161 c 128,-1,15
 286 111 286 111 354 111 c 256,16,17
 422 111 422 111 464.5 162 c 128,-1,18
 507 213 507 213 517 302 c 1,12,-1
189 420 m 1,19,-1
 518 420 l 1,20,21
 507 515 507 515 465 569 c 128,-1,22
 423 623 423 623 354 623 c 0,23,24
 284 623 284 623 241.5 569.5 c 128,-1,25
 199 516 199 516 189 420 c 1,19,-1
EndSplineSet
EndChar

StartChar: uni01A2
Encoding: 418 418 356
Width: 955
GlyphClass: 2
Flags: W
LayerCount: 2
Fore
SplineSet
32 367 m 0,0,1
 32 540 32 540 120 645.5 c 128,-1,2
 208 751 208 751 354 751 c 0,3,4
 385 751 385 751 490 731 c 128,-1,5
 595 711 595 711 643 711 c 0,6,7
 771 711 771 711 886 735 c 1,8,-1
 886 0 l 1,9,-1
 738 0 l 1,10,-1
 738 590 l 1,11,12
 704 582 704 582 643 582 c 0,13,14
 609 582 609 582 564 590 c 1,15,-1
 564 66 l 1,16,17
 477 -16 477 -16 354 -16 c 0,18,19
 208 -16 208 -16 120 89.5 c 128,-1,20
 32 195 32 195 32 367 c 0,0,1
187 367 m 256,21,22
 187 249 187 249 230 180 c 128,-1,23
 273 111 273 111 354 111 c 0,24,25
 387 111 387 111 415 126 c 1,26,-1
 415 611 l 1,27,28
 382 623 382 623 354 623 c 0,29,30
 273 623 273 623 230 554 c 128,-1,31
 187 485 187 485 187 367 c 256,21,22
EndSplineSet
EndChar

StartChar: uni01A3
Encoding: 419 419 357
Width: 743
GlyphClass: 2
Flags: W
LayerCount: 2
Fore
SplineSet
28 269 m 0,0,1
 28 403 28 403 95.5 479.5 c 128,-1,2
 163 556 163 556 280 556 c 0,3,4
 318 556 318 556 393.5 542 c 128,-1,5
 469 528 469 528 496 528 c 0,6,7
 586 528 586 528 688 548 c 1,8,-1
 688 0 l 1,9,-1
 546 0 l 1,10,-1
 546 408 l 1,11,12
 517 405 517 405 495 405 c 0,13,14
 465 405 465 405 447 407 c 1,15,-1
 447 44 l 1,16,17
 386 -16 386 -16 280 -16 c 0,18,19
 161 -16 161 -16 94.5 60.5 c 128,-1,20
 28 137 28 137 28 269 c 0,0,1
175 269 m 0,21,22
 175 190 175 190 204 148 c 128,-1,23
 233 106 233 106 280 106 c 0,24,25
 286 106 286 106 304 114 c 1,26,-1
 304 431 l 1,27,28
 291 434 291 434 280 434 c 0,29,30
 232 434 232 434 203.5 392 c 128,-1,31
 175 350 175 350 175 269 c 0,21,22
EndSplineSet
EndChar

StartChar: uni01A5
Encoding: 421 421 359
Width: 584
GlyphClass: 2
Flags: W
LayerCount: 2
Fore
SplineSet
202 270 m 0,0,1
 202 195 202 195 229.5 150.5 c 128,-1,2
 257 106 257 106 306 106 c 0,3,4
 354 106 354 106 382 149 c 128,-1,5
 410 192 410 192 410 270 c 0,6,7
 410 345 410 345 383.5 389.5 c 128,-1,8
 357 434 357 434 306 434 c 256,9,10
 255 434 255 434 228.5 389 c 128,-1,11
 202 344 202 344 202 270 c 0,0,1
61 -212 m 1,12,-1
 61 588 l 2,13,14
 61 673 61 673 114.5 719 c 128,-1,15
 168 765 168 765 250 765 c 0,16,17
 284 765 284 765 350 760 c 1,18,-1
 350 634 l 1,19,20
 319 637 319 637 278 637 c 0,21,22
 248 637 248 637 226 617 c 128,-1,23
 204 597 204 597 204 561 c 2,24,-1
 204 495 l 1,25,26
 255 556 255 556 328 556 c 0,27,28
 426 556 426 556 491.5 479 c 128,-1,29
 557 402 557 402 557 270 c 0,30,31
 557 195 557 195 536 137 c 128,-1,32
 515 79 515 79 480 47 c 128,-1,33
 445 15 445 15 406.5 -0.5 c 128,-1,34
 368 -16 368 -16 328 -16 c 0,35,36
 243 -16 243 -16 204 43 c 1,37,-1
 204 -212 l 1,38,-1
 61 -212 l 1,12,-1
EndSplineSet
EndChar

StartChar: uni01A6
Encoding: 422 422 360
Width: 672
GlyphClass: 2
Flags: W
LayerCount: 2
Fore
SplineSet
218 333 m 1,0,-1
 360 333 l 2,1,2
 467 333 467 333 467 435 c 0,3,4
 467 524 467 524 359 524 c 2,5,-1
 218 524 l 1,6,-1
 218 333 l 1,0,-1
69 0 m 1,7,-1
 69 735 l 1,8,-1
 218 735 l 1,9,-1
 218 652 l 1,10,-1
 385 652 l 2,11,12
 500 652 500 652 560 593 c 128,-1,13
 620 534 620 534 620 447 c 0,14,15
 620 323 620 323 520 265 c 1,16,17
 546 245 546 245 559.5 223.5 c 128,-1,18
 573 202 573 202 577 187 c 128,-1,19
 581 172 581 172 587 135 c 0,20,21
 606 25 606 25 671 -87 c 1,22,-1
 503 -87 l 1,23,24
 454 -5 454 -5 431 121 c 1,25,-1
 422 159 l 2,26,27
 419 171 419 171 412 184 c 128,-1,28
 405 197 405 197 392.5 202 c 128,-1,29
 380 207 380 207 363 207 c 2,30,-1
 218 207 l 1,31,-1
 218 0 l 1,32,-1
 69 0 l 1,7,-1
EndSplineSet
EndChar

StartChar: uni01A7
Encoding: 423 423 361
Width: 607
GlyphClass: 2
Flags: W
LayerCount: 2
Fore
SplineSet
23 205 m 0,0,1
 23 241 23 241 35 272.5 c 128,-1,2
 47 304 47 304 65 326 c 128,-1,3
 83 348 83 348 109.5 366.5 c 128,-1,4
 136 385 136 385 162 396 c 128,-1,5
 188 407 188 407 220 418 c 0,6,7
 231 422 231 422 252 428.5 c 128,-1,8
 273 435 273 435 283.5 438.5 c 128,-1,9
 294 442 294 442 312 448.5 c 128,-1,10
 330 455 330 455 339.5 459.5 c 128,-1,11
 349 464 349 464 362.5 471 c 128,-1,12
 376 478 376 478 383 485.5 c 128,-1,13
 390 493 390 493 397.5 502 c 128,-1,14
 405 511 405 511 408 521 c 128,-1,15
 411 531 411 531 411 543 c 0,16,17
 411 579 411 579 381.5 601 c 128,-1,18
 352 623 352 623 301 623 c 0,19,20
 214 623 214 623 153 541 c 1,21,-1
 27 582 l 1,22,23
 61 656 61 656 130.5 703.5 c 128,-1,24
 200 751 200 751 301 751 c 0,25,26
 417 751 417 751 491.5 693 c 128,-1,27
 566 635 566 635 566 542 c 0,28,29
 566 490 566 490 548 452.5 c 128,-1,30
 530 415 530 415 489 389 c 128,-1,31
 448 363 448 363 420.5 351.5 c 128,-1,32
 393 340 393 340 337 322 c 0,33,34
 324 318 324 318 318 316 c 0,35,36
 249 292 249 292 214 267 c 128,-1,37
 179 242 179 242 179 198 c 0,38,39
 179 161 179 161 210 135.5 c 128,-1,40
 241 110 241 110 293 110 c 0,41,42
 343 110 343 110 391.5 139.5 c 128,-1,43
 440 169 440 169 463 211 c 1,44,-1
 592 168 l 1,45,46
 556 83 556 83 476.5 33.5 c 128,-1,47
 397 -16 397 -16 296 -16 c 0,48,49
 179 -16 179 -16 101 42 c 128,-1,50
 23 100 23 100 23 205 c 0,0,1
EndSplineSet
EndChar

StartChar: uni01A8
Encoding: 424 424 362
Width: 488
GlyphClass: 2
Flags: W
LayerCount: 2
Fore
SplineSet
26 153 m 0,0,1
 26 217 26 217 68 253 c 128,-1,2
 110 289 110 289 179 313 c 0,3,4
 187 316 187 316 205.5 322 c 128,-1,5
 224 328 224 328 231.5 330.5 c 128,-1,6
 239 333 239 333 253 338.5 c 128,-1,7
 267 344 267 344 273.5 348.5 c 128,-1,8
 280 353 280 353 287.5 359 c 128,-1,9
 295 365 295 365 298.5 372.5 c 128,-1,10
 302 380 302 380 302 389 c 0,11,12
 302 412 302 412 284.5 423.5 c 128,-1,13
 267 435 267 435 240 435 c 0,14,15
 172 435 172 435 119 372 c 1,16,-1
 23 428 l 1,17,18
 55 485 55 485 112.5 520.5 c 128,-1,19
 170 556 170 556 243 556 c 0,20,21
 329 556 329 556 388.5 510.5 c 128,-1,22
 448 465 448 465 448 388 c 0,23,24
 448 282 448 282 298 233 c 0,25,26
 291 231 291 231 277.5 227 c 128,-1,27
 264 223 264 223 256.5 220.5 c 128,-1,28
 249 218 249 218 237.5 213.5 c 128,-1,29
 226 209 226 209 219.5 206 c 128,-1,30
 213 203 213 203 204.5 198.5 c 128,-1,31
 196 194 196 194 191 189.5 c 128,-1,32
 186 185 186 185 181 179.5 c 128,-1,33
 176 174 176 174 174 167.5 c 128,-1,34
 172 161 172 161 172 153 c 0,35,36
 172 132 172 132 189.5 118.5 c 128,-1,37
 207 105 207 105 235 105 c 0,38,39
 312 105 312 105 370 176 c 1,40,-1
 471 118 l 1,41,42
 439 59 439 59 376 21.5 c 128,-1,43
 313 -16 313 -16 235 -16 c 0,44,45
 130 -16 130 -16 78 32.5 c 128,-1,46
 26 81 26 81 26 153 c 0,0,1
EndSplineSet
EndChar

StartChar: uni01A9
Encoding: 425 425 363
Width: 622
GlyphClass: 2
Flags: W
LayerCount: 2
Fore
SplineSet
68 0 m 1,0,-1
 68 96 l 1,1,-1
 319 370 l 1,2,-1
 68 639 l 1,3,-1
 68 735 l 1,4,-1
 579 735 l 1,5,-1
 579 606 l 1,6,-1
 279 606 l 1,7,-1
 488 370 l 1,8,-1
 279 127 l 1,9,-1
 586 127 l 1,10,-1
 586 0 l 1,11,-1
 68 0 l 1,0,-1
EndSplineSet
EndChar

StartChar: uni01AA
Encoding: 426 426 364
Width: 452
GlyphClass: 2
Flags: W
LayerCount: 2
Fore
SplineSet
67 590 m 0,0,1
 67 566 67 566 81 552.5 c 128,-1,2
 95 539 95 539 114 539 c 0,3,4
 144 539 144 539 164 558 c 1,5,6
 164 638 164 638 117 638 c 0,7,8
 96 638 96 638 81.5 624.5 c 128,-1,9
 67 611 67 611 67 590 c 0,0,1
-65 583 m 0,10,11
 -65 658 -65 658 -14 704.5 c 128,-1,12
 37 751 37 751 120 751 c 0,13,14
 208 751 208 751 256 698 c 128,-1,15
 304 645 304 645 304 548 c 2,16,-1
 304 -22 l 2,17,18
 304 -89 304 -89 362 -89 c 0,19,20
 395 -89 395 -89 442 -81 c 1,21,-1
 442 -206 l 1,22,23
 363 -215 363 -215 331 -215 c 0,24,25
 298 -215 298 -215 269.5 -206 c 128,-1,26
 241 -197 241 -197 215.5 -177.5 c 128,-1,27
 190 -158 190 -158 175.5 -120.5 c 128,-1,28
 161 -83 161 -83 161 -31 c 2,29,-1
 161 442 l 1,30,31
 140 424 140 424 92 424 c 0,32,33
 24 424 24 424 -20.5 469 c 128,-1,34
 -65 514 -65 514 -65 583 c 0,10,11
EndSplineSet
EndChar

StartChar: uni01AB
Encoding: 427 427 365
Width: 373
GlyphClass: 2
Flags: W
LayerCount: 2
Fore
SplineSet
15 419 m 1,0,-1
 15 540 l 1,1,-1
 92 540 l 1,2,-1
 92 694 l 1,3,-1
 234 694 l 1,4,-1
 234 540 l 1,5,-1
 346 540 l 1,6,-1
 346 419 l 1,7,-1
 234 419 l 1,8,-1
 234 181 l 2,9,10
 234 122 234 122 286 122 c 0,11,12
 311 122 311 122 350 127 c 1,13,-1
 350 22 l 2,14,15
 350 -94 350 -94 299.5 -154.5 c 128,-1,16
 249 -215 249 -215 160 -215 c 0,17,18
 107 -215 107 -215 74 -208 c 1,19,-1
 74 -82 l 1,20,21
 109 -89 109 -89 143 -89 c 0,22,23
 171 -89 171 -89 191.5 -67.5 c 128,-1,24
 212 -46 212 -46 212 -2 c 2,25,-1
 212 6 l 1,26,27
 190 12 190 12 170 21 c 0,28,29
 92 61 92 61 92 173 c 2,30,-1
 92 419 l 1,31,-1
 15 419 l 1,0,-1
EndSplineSet
EndChar

StartChar: uni01AC
Encoding: 428 428 366
Width: 643
GlyphClass: 2
Flags: W
LayerCount: 2
Fore
SplineSet
-41 552 m 0,0,1
 -41 647 -41 647 21 691 c 128,-1,2
 83 735 83 735 171 735 c 2,3,-1
 635 735 l 1,4,-1
 635 607 l 1,5,-1
 431 607 l 1,6,-1
 431 0 l 1,7,-1
 281 0 l 1,8,-1
 281 607 l 1,9,-1
 172 607 l 2,10,11
 132 607 132 607 111 588.5 c 128,-1,12
 90 570 90 570 90 541 c 0,13,14
 90 508 90 508 95 485 c 1,15,-1
 -34 485 l 1,16,17
 -41 509 -41 509 -41 552 c 0,0,1
EndSplineSet
EndChar

StartChar: uni01AD
Encoding: 429 429 367
Width: 373
GlyphClass: 2
Flags: W
LayerCount: 2
Fore
SplineSet
15 419 m 1,0,-1
 15 540 l 1,1,-1
 92 540 l 1,2,-1
 92 581 l 2,3,4
 92 667 92 667 145.5 712.5 c 128,-1,5
 199 758 199 758 282 758 c 0,6,7
 319 758 319 758 385 753 c 1,8,-1
 385 626 l 1,9,10
 352 631 352 631 309 631 c 0,11,12
 274 631 274 631 254 611.5 c 128,-1,13
 234 592 234 592 234 562 c 2,14,-1
 234 540 l 1,15,-1
 346 540 l 1,16,-1
 346 419 l 1,17,-1
 234 419 l 1,18,-1
 234 181 l 2,19,20
 234 122 234 122 286 122 c 2,21,-1
 347 122 l 1,22,-1
 347 0 l 1,23,-1
 268 0 l 2,24,25
 92 0 92 0 92 173 c 2,26,-1
 92 419 l 1,27,-1
 15 419 l 1,0,-1
EndSplineSet
EndChar

StartChar: uni01AE
Encoding: 430 430 368
Width: 576
GlyphClass: 2
Flags: W
LayerCount: 2
Fore
SplineSet
9 607 m 1,0,-1
 9 735 l 1,1,-1
 567 735 l 1,2,-1
 567 607 l 1,3,-1
 363 607 l 1,4,-1
 363 13 l 2,5,6
 363 -89 363 -89 430 -89 c 0,7,8
 450 -89 450 -89 482 -82 c 1,9,-1
 482 -207 l 1,10,11
 438 -215 438 -215 399 -215 c 0,12,13
 368 -215 368 -215 339 -205.5 c 128,-1,14
 310 -196 310 -196 280 -172.5 c 128,-1,15
 250 -149 250 -149 232 -101.5 c 128,-1,16
 214 -54 214 -54 214 13 c 2,17,-1
 214 607 l 1,18,-1
 9 607 l 1,0,-1
EndSplineSet
EndChar

StartChar: uni01B1
Encoding: 433 433 371
Width: 727
GlyphClass: 2
Flags: W
LayerCount: 2
Fore
SplineSet
32 309 m 0,0,1
 32 409 32 409 80.5 483 c 128,-1,2
 129 557 129 557 223 593 c 1,3,-1
 223 607 l 1,4,-1
 47 607 l 1,5,-1
 47 735 l 1,6,-1
 333 735 l 1,7,-1
 333 511 l 1,8,9
 259 491 259 491 224 436 c 128,-1,10
 189 381 189 381 189 309 c 0,11,12
 189 229 189 229 236 172 c 128,-1,13
 283 115 283 115 363 115 c 0,14,15
 442 115 442 115 490 171.5 c 128,-1,16
 538 228 538 228 538 309 c 0,17,18
 538 378 538 378 503.5 433.5 c 128,-1,19
 469 489 469 489 395 511 c 1,20,-1
 395 735 l 1,21,-1
 680 735 l 1,22,-1
 680 607 l 1,23,-1
 504 607 l 1,24,-1
 504 593 l 1,25,26
 597 559 597 559 646.5 483.5 c 128,-1,27
 696 408 696 408 696 309 c 0,28,29
 696 166 696 166 606.5 75 c 128,-1,30
 517 -16 517 -16 363 -16 c 0,31,32
 211 -16 211 -16 121.5 75 c 128,-1,33
 32 166 32 166 32 309 c 0,0,1
EndSplineSet
EndChar

StartChar: uni01B2
Encoding: 434 434 372
Width: 711
GlyphClass: 2
Flags: W
LayerCount: 2
Fore
SplineSet
67 268 m 2,0,-1
 67 735 l 1,1,-1
 216 735 l 1,2,-1
 216 284 l 2,3,4
 216 185 216 185 243.5 148 c 128,-1,5
 271 111 271 111 325 111 c 0,6,7
 400 111 400 111 462.5 199 c 128,-1,8
 525 287 525 287 525 419 c 0,9,10
 525 523 525 523 500 573 c 128,-1,11
 475 623 475 623 434 623 c 0,12,13
 392 623 392 623 348 608 c 1,14,-1
 348 739 l 1,15,16
 407 751 407 751 455 751 c 0,17,18
 567 751 567 751 624 665.5 c 128,-1,19
 681 580 681 580 681 421 c 0,20,21
 681 310 681 310 639.5 211 c 128,-1,22
 598 112 598 112 515 48 c 128,-1,23
 432 -16 432 -16 325 -16 c 0,24,25
 191 -16 191 -16 129 54 c 128,-1,26
 67 124 67 124 67 268 c 2,0,-1
EndSplineSet
EndChar

StartChar: uni01B3
Encoding: 435 435 373
Width: 649
GlyphClass: 2
Flags: W
LayerCount: 2
Fore
SplineSet
-1 735 m 1,0,-1
 168 735 l 1,1,-1
 273 519 l 2,2,3
 281 503 281 503 323 408 c 1,4,-1
 328 408 l 1,5,6
 336 426 336 426 354 464.5 c 128,-1,7
 372 503 372 503 380 520 c 2,8,-1
 433 631 l 2,9,10
 463 689 463 689 493 715 c 0,11,12
 534 751 534 751 589 751 c 0,13,14
 631 751 631 751 667 746 c 1,15,-1
 667 619 l 1,16,17
 650 624 650 624 609 624 c 0,18,19
 602 624 602 624 594 618 c 128,-1,20
 586 612 586 612 576 597.5 c 128,-1,21
 566 583 566 583 562 576.5 c 128,-1,22
 558 570 558 570 547 551 c 2,23,-1
 400 296 l 1,24,-1
 400 0 l 1,25,-1
 251 0 l 1,26,-1
 251 296 l 1,27,-1
 -1 735 l 1,0,-1
EndSplineSet
EndChar

StartChar: uni01B4
Encoding: 436 436 374
Width: 534
GlyphClass: 2
Flags: W
LayerCount: 2
Fore
SplineSet
5 540 m 1,0,-1
 160 540 l 1,1,-1
 240 286 l 1,2,3
 270 174 270 174 272 167 c 1,4,-1
 275 167 l 1,5,6
 281 193 281 193 292.5 237.5 c 128,-1,7
 304 282 304 282 305 285 c 2,8,-1
 354 457 l 2,9,10
 379 552 379 552 498 552 c 0,11,12
 528 552 528 552 581 544 c 1,13,-1
 581 415 l 1,14,15
 545 424 545 424 528 424 c 0,16,17
 488 424 488 424 477 392 c 2,18,-1
 315 -52 l 2,19,20
 284 -137 284 -137 231.5 -174.5 c 128,-1,21
 179 -212 179 -212 102 -212 c 2,22,-1
 59 -212 l 1,23,-1
 59 -92 l 1,24,-1
 79 -92 l 2,25,26
 120 -92 120 -92 146.5 -75.5 c 128,-1,27
 173 -59 173 -59 187 -20 c 2,28,-1
 203 25 l 1,29,-1
 5 540 l 1,0,-1
EndSplineSet
EndChar

StartChar: uni01B5
Encoding: 437 437 375
Width: 599
GlyphClass: 2
Flags: W
LayerCount: 2
Fore
SplineSet
77 303 m 1,0,-1
 77 421 l 1,1,-1
 250 421 l 1,2,-1
 384 607 l 1,3,-1
 53 607 l 1,4,-1
 53 735 l 1,5,-1
 570 735 l 1,6,-1
 570 625 l 1,7,-1
 423 421 l 1,8,-1
 503 421 l 1,9,-1
 503 303 l 1,10,-1
 336 303 l 1,11,-1
 209 127 l 1,12,-1
 580 127 l 1,13,-1
 580 0 l 1,14,-1
 23 0 l 1,15,-1
 23 108 l 1,16,-1
 164 303 l 1,17,-1
 77 303 l 1,0,-1
EndSplineSet
EndChar

StartChar: uni01B6
Encoding: 438 438 376
Width: 496
GlyphClass: 2
Flags: W
LayerCount: 2
Fore
SplineSet
20 0 m 1,0,-1
 20 94 l 1,1,-1
 117 216 l 1,2,-1
 57 216 l 1,3,-1
 57 333 l 1,4,-1
 210 333 l 1,5,-1
 277 419 l 1,6,-1
 39 419 l 1,7,-1
 39 540 l 1,8,-1
 465 540 l 1,9,-1
 465 451 l 1,10,-1
 371 333 l 1,11,-1
 434 333 l 1,12,-1
 434 216 l 1,13,-1
 278 216 l 1,14,-1
 205 122 l 1,15,-1
 477 122 l 1,16,-1
 477 0 l 1,17,-1
 20 0 l 1,0,-1
EndSplineSet
EndChar

StartChar: uni01B7
Encoding: 439 439 377
Width: 702
GlyphClass: 2
Flags: W
LayerCount: 2
Fore
SplineSet
43 18 m 1,0,-1
 172 66 l 1,1,2
 179 39 179 39 192 13 c 128,-1,3
 205 -13 205 -13 225.5 -36 c 128,-1,4
 246 -59 246 -59 278.5 -73.5 c 128,-1,5
 311 -88 311 -88 350 -88 c 0,6,7
 421 -88 421 -88 466 -37.5 c 128,-1,8
 511 13 511 13 511 92 c 0,9,10
 511 177 511 177 457.5 230 c 128,-1,11
 404 283 404 283 322 283 c 2,12,-1
 206 283 l 1,13,-1
 206 396 l 1,14,-1
 394 607 l 1,15,-1
 79 607 l 1,16,-1
 79 735 l 1,17,-1
 620 735 l 1,18,-1
 620 649 l 1,19,-1
 398 407 l 1,20,-1
 408 405 l 2,21,22
 521 383 521 383 593 300 c 128,-1,23
 665 217 665 217 665 92 c 0,24,25
 665 -40 665 -40 578 -127 c 128,-1,26
 491 -214 491 -214 354 -214 c 0,27,28
 284 -214 284 -214 228 -194 c 128,-1,29
 172 -174 172 -174 136.5 -138.5 c 128,-1,30
 101 -103 101 -103 78.5 -65 c 128,-1,31
 56 -27 56 -27 43 18 c 1,0,-1
EndSplineSet
EndChar

StartChar: uni01B8
Encoding: 440 440 378
Width: 702
GlyphClass: 2
Flags: W
LayerCount: 2
Fore
SplineSet
37 92 m 0,0,1
 37 217 37 217 109 300.5 c 128,-1,2
 181 384 181 384 293 405 c 2,3,-1
 304 407 l 1,4,-1
 82 649 l 1,5,-1
 82 735 l 1,6,-1
 623 735 l 1,7,-1
 623 607 l 1,8,-1
 308 607 l 1,9,-1
 496 396 l 1,10,-1
 496 283 l 1,11,-1
 380 283 l 2,12,13
 298 283 298 283 244.5 230 c 128,-1,14
 191 177 191 177 191 92 c 0,15,16
 191 13 191 13 236 -37.5 c 128,-1,17
 281 -88 281 -88 352 -88 c 0,18,19
 391 -88 391 -88 423.5 -73.5 c 128,-1,20
 456 -59 456 -59 476.5 -36 c 128,-1,21
 497 -13 497 -13 510 13 c 128,-1,22
 523 39 523 39 529 66 c 1,23,-1
 659 18 l 1,24,25
 646 -27 646 -27 623.5 -65 c 128,-1,26
 601 -103 601 -103 565 -138.5 c 128,-1,27
 529 -174 529 -174 473 -194 c 128,-1,28
 417 -214 417 -214 347 -214 c 0,29,30
 211 -214 211 -214 124 -127 c 128,-1,31
 37 -40 37 -40 37 92 c 0,0,1
EndSplineSet
EndChar

StartChar: uni01B9
Encoding: 441 441 379
Width: 597
GlyphClass: 2
Flags: W
LayerCount: 2
Fore
SplineSet
35 40 m 0,0,1
 35 128 35 128 92 198 c 128,-1,2
 149 268 149 268 236 282 c 1,3,-1
 240 283 l 1,4,-1
 71 453 l 1,5,-1
 71 540 l 1,6,-1
 529 540 l 1,7,-1
 529 419 l 1,8,-1
 284 419 l 1,9,-1
 419 275 l 1,10,-1
 419 178 l 1,11,-1
 320 178 l 2,12,13
 254 178 254 178 218 138 c 128,-1,14
 182 98 182 98 182 40 c 0,15,16
 182 -16 182 -16 215.5 -54.5 c 128,-1,17
 249 -93 249 -93 305 -93 c 256,18,19
 361 -93 361 -93 393.5 -55 c 128,-1,20
 426 -17 426 -17 433 31 c 1,21,-1
 562 0 l 1,22,23
 543 -91 543 -91 475 -153 c 128,-1,24
 407 -215 407 -215 300 -215 c 0,25,26
 181 -215 181 -215 108 -141 c 128,-1,27
 35 -67 35 -67 35 40 c 0,0,1
EndSplineSet
EndChar

StartChar: uni01BA
Encoding: 442 442 380
Width: 446
GlyphClass: 2
Flags: W
LayerCount: 2
Fore
SplineSet
31 -57 m 0,0,1
 31 -17 31 -17 54.5 17 c 128,-1,2
 78 51 78 51 112 73.5 c 128,-1,3
 146 96 146 96 180 115 c 128,-1,4
 214 134 214 134 238 151.5 c 128,-1,5
 262 169 262 169 262 183 c 0,6,7
 262 206 262 206 229.5 219.5 c 128,-1,8
 197 233 197 233 146 233 c 2,9,-1
 111 233 l 1,10,-1
 111 306 l 1,11,-1
 234 419 l 1,12,-1
 34 419 l 1,13,-1
 34 540 l 1,14,-1
 419 540 l 1,15,-1
 419 446 l 1,16,-1
 272 313 l 1,17,-1
 292 311 l 2,18,19
 337 306 337 306 372.5 277.5 c 128,-1,20
 408 249 408 249 408 190 c 0,21,22
 408 154 408 154 384.5 123 c 128,-1,23
 361 92 361 92 327 69.5 c 128,-1,24
 293 47 293 47 259 27.5 c 128,-1,25
 225 8 225 8 201.5 -11 c 128,-1,26
 178 -30 178 -30 178 -47 c 0,27,28
 178 -87 178 -87 236 -87 c 0,29,30
 275 -87 275 -87 352 -71 c 1,31,-1
 352 -196 l 1,32,33
 274 -210 274 -210 213 -210 c 0,34,35
 133 -210 133 -210 82 -169 c 128,-1,36
 31 -128 31 -128 31 -57 c 0,0,1
EndSplineSet
EndChar

StartChar: uni01BB
Encoding: 443 443 381
Width: 553
GlyphClass: 2
Flags: W
LayerCount: 2
Fore
SplineSet
89 293 m 1,0,-1
 89 411 l 1,1,-1
 298 411 l 1,2,3
 351 471 351 471 351 538 c 0,4,5
 351 582 351 582 327 605 c 128,-1,6
 303 628 303 628 274 628 c 0,7,8
 273 628 273 628 272 628 c 0,9,10
 229 627 229 627 203.5 597 c 128,-1,11
 178 567 178 567 161 506 c 1,12,-1
 35 544 l 1,13,14
 55 635 55 635 114 693 c 128,-1,15
 173 751 173 751 276 751 c 0,16,17
 378 751 378 751 441 691.5 c 128,-1,18
 504 632 504 632 504 532 c 0,19,20
 504 471 504 471 470 411 c 1,21,-1
 536 411 l 1,22,-1
 536 293 l 1,23,-1
 370 293 l 1,24,25
 366 289 366 289 347.5 271.5 c 128,-1,26
 329 254 329 254 322.5 247 c 128,-1,27
 316 240 316 240 300 223 c 128,-1,28
 284 206 284 206 274 192.5 c 128,-1,29
 264 179 264 179 250.5 160.5 c 128,-1,30
 237 142 237 142 225 122 c 1,31,-1
 502 122 l 1,32,-1
 502 0 l 1,33,-1
 44 0 l 1,34,35
 44 145 44 145 180 293 c 1,36,-1
 89 293 l 1,0,-1
EndSplineSet
EndChar

StartChar: uni01BC
Encoding: 444 444 382
Width: 608
GlyphClass: 2
Flags: W
LayerCount: 2
Fore
SplineSet
41 147 m 1,0,-1
 162 189 l 1,1,2
 179 152 179 152 212.5 129 c 128,-1,3
 246 106 246 106 290 106 c 0,4,5
 343 106 343 106 376 140.5 c 128,-1,6
 409 175 409 175 409 232 c 0,7,8
 409 282 409 282 371.5 319 c 128,-1,9
 334 356 334 356 265 356 c 0,10,11
 203 356 203 356 119 337 c 1,12,-1
 157 608 l 1,13,-1
 114 608 l 1,14,-1
 114 735 l 1,15,-1
 528 735 l 1,16,-1
 528 607 l 1,17,-1
 295 607 l 1,18,-1
 276 476 l 1,19,20
 289 478 289 478 322 478 c 0,21,22
 429 478 429 478 496.5 411 c 128,-1,23
 564 344 564 344 564 236 c 0,24,25
 564 190 564 190 549 147 c 128,-1,26
 534 104 534 104 503 67 c 128,-1,27
 472 30 472 30 418.5 7 c 128,-1,28
 365 -16 365 -16 297 -16 c 0,29,30
 203 -16 203 -16 135 30.5 c 128,-1,31
 67 77 67 77 41 147 c 1,0,-1
EndSplineSet
EndChar

StartChar: uni01BD
Encoding: 445 445 383
Width: 493
GlyphClass: 2
Flags: W
LayerCount: 2
Fore
SplineSet
39 120 m 1,0,-1
 154 169 l 1,1,2
 165 139 165 139 187 122 c 128,-1,3
 209 105 209 105 236 105 c 0,4,5
 268 105 268 105 289 124 c 128,-1,6
 310 143 310 143 310 175 c 0,7,8
 310 201 310 201 287.5 224.5 c 128,-1,9
 265 248 265 248 223 248 c 0,10,11
 176 248 176 248 95 234 c 1,12,-1
 124 420 l 1,13,-1
 95 420 l 1,14,-1
 95 540 l 1,15,-1
 415 540 l 1,16,-1
 415 419 l 1,17,-1
 248 419 l 1,18,-1
 238 369 l 1,19,-1
 261 370 l 2,20,21
 348 370 348 370 403 315 c 128,-1,22
 458 260 458 260 458 181 c 0,23,24
 458 145 458 145 445.5 111.5 c 128,-1,25
 433 78 433 78 408 49 c 128,-1,26
 383 20 383 20 338.5 2 c 128,-1,27
 294 -16 294 -16 237 -16 c 0,28,29
 101 -16 101 -16 39 120 c 1,0,-1
EndSplineSet
EndChar

StartChar: uni01BE
Encoding: 446 446 384
Width: 453
GlyphClass: 2
Flags: W
LayerCount: 2
Fore
SplineSet
17 419 m 1,0,-1
 17 540 l 1,1,-1
 92 540 l 1,2,-1
 92 693 l 1,3,-1
 234 693 l 1,4,-1
 234 540 l 1,5,-1
 345 540 l 1,6,-1
 345 419 l 1,7,-1
 234 419 l 1,8,-1
 234 406 l 2,9,10
 234 380 234 380 248 360.5 c 128,-1,11
 262 341 262 341 282.5 330 c 128,-1,12
 303 319 303 319 328 303.5 c 128,-1,13
 353 288 353 288 373.5 272.5 c 128,-1,14
 394 257 394 257 408 227.5 c 128,-1,15
 422 198 422 198 422 159 c 0,16,17
 422 127 422 127 412 98.5 c 128,-1,18
 402 70 402 70 381.5 43 c 128,-1,19
 361 16 361 16 321.5 0 c 128,-1,20
 282 -16 282 -16 228 -16 c 0,21,22
 97 -16 97 -16 28 111 c 1,23,-1
 129 166 l 1,24,25
 149 136 149 136 169.5 121 c 128,-1,26
 190 106 190 106 223 106 c 0,27,28
 248 106 248 106 263.5 120.5 c 128,-1,29
 279 135 279 135 279 154 c 0,30,31
 279 174 279 174 265 189 c 128,-1,32
 251 204 251 204 230.5 213.5 c 128,-1,33
 210 223 210 223 186 237 c 128,-1,34
 162 251 162 251 141 268 c 128,-1,35
 120 285 120 285 106 317.5 c 128,-1,36
 92 350 92 350 92 393 c 2,37,-1
 92 419 l 1,38,-1
 17 419 l 1,0,-1
EndSplineSet
EndChar

StartChar: uni01BF
Encoding: 447 447 385
Width: 575
GlyphClass: 2
Flags: W
LayerCount: 2
Fore
SplineSet
61 -212 m 1,0,-1
 61 540 l 1,1,-1
 199 540 l 1,2,-1
 199 499 l 1,3,4
 249 556 249 556 337 556 c 0,5,6
 442 556 442 556 495 495.5 c 128,-1,7
 548 435 548 435 548 342 c 0,8,9
 548 60 548 60 204 2 c 1,10,-1
 204 -212 l 1,11,-1
 61 -212 l 1,0,-1
204 120 m 1,12,13
 238 126 238 126 271.5 141 c 128,-1,14
 305 156 305 156 335 180.5 c 128,-1,15
 365 205 365 205 384 242.5 c 128,-1,16
 403 280 403 280 403 325 c 0,17,18
 403 382 403 382 380 408 c 128,-1,19
 357 434 357 434 319 434 c 0,20,21
 283 434 283 434 250.5 413.5 c 128,-1,22
 218 393 218 393 204 362 c 1,23,-1
 204 120 l 1,12,13
EndSplineSet
EndChar

StartChar: uni01C0
Encoding: 448 448 386
Width: 276
GlyphClass: 2
Flags: W
LayerCount: 2
Fore
SplineSet
73 -195 m 1,0,-1
 73 810 l 1,1,-1
 203 810 l 1,2,-1
 203 -195 l 1,3,-1
 73 -195 l 1,0,-1
EndSplineSet
EndChar

StartChar: uni01C1
Encoding: 449 449 387
Width: 485
GlyphClass: 2
Flags: W
LayerCount: 2
Fore
SplineSet
73 -195 m 1,0,-1
 73 810 l 1,1,-1
 203 810 l 1,2,-1
 203 -195 l 1,3,-1
 73 -195 l 1,0,-1
283 -195 m 1,4,-1
 283 810 l 1,5,-1
 412 810 l 1,6,-1
 412 -195 l 1,7,-1
 283 -195 l 1,4,-1
EndSplineSet
EndChar

StartChar: uni01C2
Encoding: 450 450 388
Width: 380
GlyphClass: 2
Flags: W
LayerCount: 2
Fore
SplineSet
13 405 m 1,0,-1
 13 503 l 1,1,-1
 127 503 l 1,2,-1
 127 810 l 1,3,-1
 258 810 l 1,4,-1
 258 503 l 1,5,-1
 369 503 l 1,6,-1
 369 405 l 1,7,-1
 258 405 l 1,8,-1
 258 293 l 1,9,-1
 369 293 l 1,10,-1
 369 194 l 1,11,-1
 258 194 l 1,12,-1
 258 -195 l 1,13,-1
 127 -195 l 1,14,-1
 127 194 l 1,15,-1
 13 194 l 1,16,-1
 13 293 l 1,17,-1
 127 293 l 1,18,-1
 127 405 l 1,19,-1
 13 405 l 1,0,-1
EndSplineSet
EndChar

StartChar: uni01DD
Encoding: 477 477 415
Width: 560
GlyphClass: 2
Flags: W
LayerCount: 2
Fore
SplineSet
27 267 m 0,0,1
 27 294 27 294 30 320 c 1,2,-1
 389 320 l 1,3,4
 389 371 389 371 356 406.5 c 128,-1,5
 323 442 323 442 268 442 c 0,6,7
 227 442 227 442 197.5 422 c 128,-1,8
 168 402 168 402 153 371 c 1,9,-1
 34 413 l 1,10,11
 61 473 61 473 121 514.5 c 128,-1,12
 181 556 181 556 272 556 c 0,13,14
 386 556 386 556 459.5 477.5 c 128,-1,15
 533 399 533 399 533 268 c 0,16,17
 533 136 533 136 460 60 c 128,-1,18
 387 -16 387 -16 278 -16 c 0,19,20
 173 -16 173 -16 100 62.5 c 128,-1,21
 27 141 27 141 27 267 c 0,0,1
171 223 m 1,22,23
 171 171 171 171 199.5 133.5 c 128,-1,24
 228 96 228 96 278 96 c 256,25,26
 328 96 328 96 358 133.5 c 128,-1,27
 388 171 388 171 389 223 c 1,28,-1
 171 223 l 1,22,23
EndSplineSet
EndChar

StartChar: uni01E4
Encoding: 484 484 422
Width: 727
GlyphClass: 2
Flags: W
LayerCount: 2
Fore
SplineSet
32 368 m 0,0,1
 32 472 32 472 69.5 557.5 c 128,-1,2
 107 643 107 643 186 697 c 128,-1,3
 265 751 265 751 373 751 c 0,4,5
 431 751 431 751 480.5 731.5 c 128,-1,6
 530 712 530 712 563 680.5 c 128,-1,7
 596 649 596 649 616 620.5 c 128,-1,8
 636 592 636 592 649 564 c 1,9,-1
 520 523 l 1,10,11
 520 524 520 524 513.5 533.5 c 128,-1,12
 507 543 507 543 505 545.5 c 128,-1,13
 503 548 503 548 495.5 558 c 128,-1,14
 488 568 488 568 472 585 c 0,15,16
 463 593 463 593 456.5 597 c 128,-1,17
 450 601 450 601 439.5 607 c 128,-1,18
 429 613 429 613 419.5 615.5 c 128,-1,19
 410 618 410 618 398 620.5 c 128,-1,20
 386 623 386 623 373 623 c 0,21,22
 287 623 287 623 236.5 554.5 c 128,-1,23
 186 486 186 486 186 368 c 0,24,25
 186 252 186 252 236.5 181.5 c 128,-1,26
 287 111 287 111 363 111 c 0,27,28
 444 111 444 111 485 162 c 1,29,-1
 327 162 l 1,30,-1
 327 253 l 1,31,-1
 520 253 l 1,32,33
 522 275 522 275 522 276 c 2,34,-1
 522 297 l 1,35,-1
 358 297 l 1,36,-1
 358 419 l 1,37,-1
 666 419 l 1,38,-1
 666 253 l 1,39,-1
 721 253 l 1,40,-1
 721 162 l 1,41,-1
 666 162 l 1,42,-1
 666 0 l 1,43,-1
 564 0 l 1,44,-1
 551 56 l 1,45,46
 492 -16 492 -16 361 -16 c 0,47,48
 223 -16 223 -16 127.5 87 c 128,-1,49
 32 190 32 190 32 368 c 0,0,1
EndSplineSet
EndChar

StartChar: uni01E5
Encoding: 485 485 423
Width: 571
GlyphClass: 2
Flags: W
LayerCount: 2
Fore
SplineSet
31 304 m 0,0,1
 31 417 31 417 96 486.5 c 128,-1,2
 161 556 161 556 258 556 c 0,3,4
 301 556 301 556 331.5 536.5 c 128,-1,5
 362 517 362 517 372 496 c 1,6,-1
 372 540 l 1,7,-1
 516 540 l 1,8,-1
 516 114 l 2,9,10
 516 66 516 66 513 31 c 1,11,-1
 573 31 l 1,12,-1
 573 -52 l 1,13,-1
 501 -52 l 1,14,15
 477 -132 477 -132 421.5 -173.5 c 128,-1,16
 366 -215 366 -215 265 -215 c 0,17,18
 126 -215 126 -215 48 -108 c 1,19,-1
 141 -41 l 1,20,21
 188 -101 188 -101 267 -101 c 0,22,23
 319 -101 319 -101 354 -52 c 1,24,-1
 196 -52 l 1,25,-1
 196 31 l 1,26,-1
 372 31 l 1,27,28
 374 49 374 49 374 74 c 2,29,-1
 374 105 l 1,30,31
 358 83 358 83 324.5 68.5 c 128,-1,32
 291 54 291 54 259 54 c 0,33,34
 162 54 162 54 96.5 121 c 128,-1,35
 31 188 31 188 31 304 c 0,0,1
179 304 m 0,36,37
 179 242 179 242 208 209 c 128,-1,38
 237 176 237 176 275 176 c 0,39,40
 314 176 314 176 342.5 211 c 128,-1,41
 371 246 371 246 371 306 c 256,42,43
 371 366 371 366 344 400 c 128,-1,44
 317 434 317 434 276 434 c 0,45,46
 233 434 233 434 206 398.5 c 128,-1,47
 179 363 179 363 179 304 c 0,36,37
EndSplineSet
EndChar

StartChar: uni01EF
Encoding: 495 495 433
Width: 597
GlyphClass: 2
Flags: W
LayerCount: 2
Fore
SplineSet
90 787 m 1,0,-1
 227 787 l 1,1,-1
 300 694 l 1,2,-1
 374 787 l 1,3,-1
 511 787 l 1,4,-1
 359 621 l 1,5,-1
 238 621 l 1,6,-1
 90 787 l 1,0,-1
38 0 m 1,7,-1
 166 31 l 1,8,9
 173 -17 173 -17 205.5 -55 c 128,-1,10
 238 -93 238 -93 293 -93 c 0,11,12
 349 -93 349 -93 383 -55 c 128,-1,13
 417 -17 417 -17 417 40 c 0,14,15
 417 98 417 98 381.5 138 c 128,-1,16
 346 178 346 178 279 178 c 2,17,-1
 179 178 l 1,18,-1
 179 275 l 1,19,-1
 315 419 l 1,20,-1
 71 419 l 1,21,-1
 71 540 l 1,22,-1
 529 540 l 1,23,-1
 529 453 l 1,24,-1
 359 282 l 1,25,-1
 398 273 l 1,26,27
 468 251 468 251 516 186.5 c 128,-1,28
 564 122 564 122 564 40 c 0,29,30
 564 -67 564 -67 490.5 -141 c 128,-1,31
 417 -215 417 -215 299 -215 c 0,32,33
 191 -215 191 -215 124 -153 c 128,-1,34
 57 -91 57 -91 38 0 c 1,7,-1
EndSplineSet
EndChar

StartChar: uni01F6
Encoding: 502 502 440
Width: 985
GlyphClass: 2
Flags: W
LayerCount: 2
Fore
SplineSet
71 0 m 1,0,-1
 71 735 l 1,1,-1
 220 735 l 1,2,-1
 220 441 l 1,3,-1
 478 441 l 1,4,-1
 478 735 l 1,5,-1
 628 735 l 1,6,-1
 628 212 l 2,7,8
 628 106 628 106 711 106 c 0,9,10
 745 106 745 106 767 132.5 c 128,-1,11
 789 159 789 159 789 197 c 2,12,-1
 789 540 l 1,13,-1
 938 540 l 1,14,-1
 938 179 l 2,15,16
 938 82 938 82 871.5 33 c 128,-1,17
 805 -16 805 -16 710 -16 c 0,18,19
 665 -16 665 -16 626 -6 c 128,-1,20
 587 4 587 4 553 25.5 c 128,-1,21
 519 47 519 47 498.5 86.5 c 128,-1,22
 478 126 478 126 478 180 c 2,23,-1
 478 314 l 1,24,-1
 220 314 l 1,25,-1
 220 0 l 1,26,-1
 71 0 l 1,0,-1
EndSplineSet
EndChar

StartChar: uni01F7
Encoding: 503 503 441
Width: 644
GlyphClass: 2
Flags: W
LayerCount: 2
Fore
SplineSet
72 -211 m 1,0,-1
 72 735 l 1,1,-1
 221 735 l 1,2,-1
 221 678 l 1,3,4
 302 751 302 751 394 751 c 0,5,6
 504 751 504 751 558 683.5 c 128,-1,7
 612 616 612 616 612 492 c 0,8,9
 612 407 612 407 575.5 326 c 128,-1,10
 539 245 539 245 480 183.5 c 128,-1,11
 421 122 421 122 355.5 76.5 c 128,-1,12
 290 31 290 31 221 1 c 1,13,-1
 221 -211 l 1,14,-1
 72 -211 l 1,0,-1
221 144 m 1,15,16
 315 194 315 194 387 288.5 c 128,-1,17
 459 383 459 383 459 485 c 0,18,19
 459 623 459 623 363 623 c 0,20,21
 326 623 326 623 287.5 598 c 128,-1,22
 249 573 249 573 221 534 c 1,23,-1
 221 144 l 1,15,16
EndSplineSet
EndChar

StartChar: Aringacute
Encoding: 506 506 444
Width: 670
GlyphClass: 2
Flags: W
LayerCount: 2
Fore
SplineSet
-4 0 m 1,0,-1
 252 722 l 1,1,2
 241 729 241 729 231 738 c 0,3,4
 186 778 186 778 186 839 c 0,5,6
 186 897 186 897 229 939 c 0,7,8
 253 962 253 962 284 972 c 1,9,-1
 368 1103 l 1,10,-1
 535 1103 l 1,11,-1
 406 966 l 1,12,13
 427 956 427 956 445 938 c 0,14,15
 487 896 487 896 487 839 c 0,16,17
 487 779 487 779 443 739 c 0,18,19
 432 728 432 728 420 721 c 1,20,-1
 674 0 l 1,21,-1
 517 0 l 1,22,-1
 465 164 l 1,23,-1
 206 164 l 1,24,-1
 153 0 l 1,25,-1
 -4 0 l 1,0,-1
242 284 m 1,26,-1
 427 284 l 1,27,-1
 380 440 l 2,28,29
 353 533 353 533 337 590 c 1,30,-1
 332 590 l 1,31,32
 311 512 311 512 290 440 c 2,33,-1
 242 284 l 1,26,-1
283 839 m 0,34,35
 283 817 283 817 298 801.5 c 128,-1,36
 313 786 313 786 337 786 c 0,37,38
 358 786 358 786 373.5 800.5 c 128,-1,39
 389 815 389 815 389 839 c 0,40,41
 389 862 389 862 374 877 c 128,-1,42
 359 892 359 892 337 892 c 0,43,44
 314 892 314 892 298.5 877 c 128,-1,45
 283 862 283 862 283 839 c 0,34,35
EndSplineSet
EndChar

StartChar: aringacute
Encoding: 507 507 445
Width: 545
GlyphClass: 2
Flags: W
LayerCount: 2
Fore
SplineSet
27 147 m 0,0,1
 27 221 27 221 83.5 269.5 c 128,-1,2
 140 318 140 318 249 334 c 0,3,4
 339 348 339 348 354 353 c 1,5,-1
 354 380 l 2,6,7
 354 414 354 414 331 429.5 c 128,-1,8
 308 445 308 445 271 445 c 0,9,10
 187 445 187 445 126 379 c 1,11,-1
 41 451 l 1,12,13
 129 556 129 556 269 556 c 0,14,15
 393 556 393 556 445 497 c 128,-1,16
 497 438 497 438 497 329 c 2,17,-1
 497 0 l 1,18,-1
 358 0 l 1,19,-1
 358 56 l 1,20,21
 342 25 342 25 304.5 4.5 c 128,-1,22
 267 -16 267 -16 218 -16 c 0,23,24
 130 -16 130 -16 78.5 29 c 128,-1,25
 27 74 27 74 27 147 c 0,0,1
127 730 m 0,26,27
 127 788 127 788 170 830 c 0,28,29
 194 853 194 853 226 863 c 1,30,-1
 310 994 l 1,31,-1
 477 994 l 1,32,-1
 348 857 l 1,33,34
 369 847 369 847 387 829 c 0,35,36
 429 787 429 787 429 730 c 0,37,38
 429 670 429 670 385 630 c 128,-1,39
 341 590 341 590 278 590 c 0,40,41
 217 590 217 590 172 629.5 c 128,-1,42
 127 669 127 669 127 730 c 0,26,27
172 160 m 0,43,44
 172 136 172 136 191 119 c 128,-1,45
 210 102 210 102 240 102 c 0,46,47
 287 102 287 102 320.5 134.5 c 128,-1,48
 354 167 354 167 354 221 c 2,49,-1
 354 257 l 1,50,51
 302 244 302 244 271 240 c 0,52,53
 172 225 172 225 172 160 c 0,43,44
224 730 m 0,54,55
 224 708 224 708 239.5 693 c 128,-1,56
 255 678 255 678 278 678 c 0,57,58
 300 678 300 678 315 692 c 128,-1,59
 330 706 330 706 330 730 c 0,60,61
 330 753 330 753 315.5 768 c 128,-1,62
 301 783 301 783 278 783 c 0,63,64
 256 783 256 783 240 768 c 128,-1,65
 224 753 224 753 224 730 c 0,54,55
EndSplineSet
EndChar

StartChar: uni021C
Encoding: 540 540 478
Width: 578
GlyphClass: 2
Flags: W
LayerCount: 2
Fore
SplineSet
30 -65 m 1,0,1
 105 -83 105 -83 196 -83 c 0,2,3
 281 -83 281 -83 333 -35 c 128,-1,4
 385 13 385 13 385 92 c 0,5,6
 385 180 385 180 345 220.5 c 128,-1,7
 305 261 305 261 250 261 c 0,8,9
 192 261 192 261 126 235 c 1,10,-1
 126 365 l 1,11,-1
 241 389 l 2,12,13
 298 399 298 399 335 432 c 128,-1,14
 372 465 372 465 372 519 c 0,15,16
 372 564 372 564 342 592.5 c 128,-1,17
 312 621 312 621 260 621 c 0,18,19
 219 621 219 621 194.5 602 c 128,-1,20
 170 583 170 583 149 543 c 1,21,-1
 32 599 l 1,22,23
 60 672 60 672 123 711.5 c 128,-1,24
 186 751 186 751 264 751 c 0,25,26
 391 751 391 751 460 692 c 128,-1,27
 529 633 529 633 529 537 c 0,28,29
 529 457 529 457 494 405.5 c 128,-1,30
 459 354 459 354 410 331 c 1,31,-1
 410 330 l 1,32,33
 466 309 466 309 503 245.5 c 128,-1,34
 540 182 540 182 540 89 c 0,35,36
 540 -56 540 -56 444 -135 c 128,-1,37
 348 -214 348 -214 197 -214 c 0,38,39
 129 -214 129 -214 30 -197 c 1,40,-1
 30 -65 l 1,0,1
EndSplineSet
EndChar

StartChar: uni021D
Encoding: 541 541 479
Width: 451
GlyphClass: 2
Flags: W
LayerCount: 2
Fore
SplineSet
22 -79 m 1,0,1
 92 -93 92 -93 154 -93 c 0,2,3
 210 -93 210 -93 243 -62 c 128,-1,4
 276 -31 276 -31 276 28 c 0,5,6
 276 83 276 83 249 114 c 128,-1,7
 222 145 222 145 184 145 c 0,8,9
 152 145 152 145 98 128 c 1,10,-1
 98 249 l 1,11,-1
 186 267 l 2,12,13
 224 275 224 275 247 300 c 128,-1,14
 270 325 270 325 270 360 c 0,15,16
 270 394 270 394 254 414 c 128,-1,17
 238 434 238 434 214 434 c 0,18,19
 157 434 157 434 138 368 c 1,20,-1
 29 407 l 1,21,22
 40 470 40 470 90 513 c 128,-1,23
 140 556 140 556 223 556 c 0,24,25
 308 556 308 556 361.5 503.5 c 128,-1,26
 415 451 415 451 415 380 c 0,27,28
 415 269 415 269 324 214 c 1,29,30
 363 199 363 199 393 148 c 128,-1,31
 423 97 423 97 423 32 c 0,32,33
 423 -90 423 -90 353.5 -152.5 c 128,-1,34
 284 -215 284 -215 156 -215 c 0,35,36
 101 -215 101 -215 22 -204 c 1,37,-1
 22 -79 l 1,0,1
EndSplineSet
EndChar

StartChar: uni0220
Encoding: 544 544 482
Width: 691
GlyphClass: 2
Flags: W
LayerCount: 2
Fore
SplineSet
71 0 m 1,0,-1
 71 735 l 1,1,-1
 213 735 l 1,2,-1
 213 659 l 1,3,-1
 214 659 l 1,4,5
 296 751 296 751 409 751 c 0,6,7
 624 751 624 751 624 483 c 2,8,-1
 624 -212 l 1,9,-1
 474 -212 l 1,10,-1
 474 476 l 2,11,12
 474 623 474 623 370 623 c 0,13,14
 307 623 307 623 263.5 568.5 c 128,-1,15
 220 514 220 514 220 435 c 2,16,-1
 220 0 l 1,17,-1
 71 0 l 1,0,-1
EndSplineSet
EndChar

StartChar: uni0221
Encoding: 545 545 483
Width: 731
GlyphClass: 2
Flags: W
LayerCount: 2
Fore
SplineSet
536 -66 m 1,0,1
 549 -117 549 -117 596 -117 c 0,2,3
 616 -117 616 -117 626.5 -107 c 128,-1,4
 637 -97 637 -97 637 -83 c 0,5,6
 637 -70 637 -70 623.5 -58 c 128,-1,7
 610 -46 610 -46 589 -46 c 0,8,9
 558 -46 558 -46 536 -66 c 1,0,1
28 270 m 0,10,11
 28 404 28 404 93 480 c 128,-1,12
 158 556 158 556 260 556 c 0,13,14
 301 556 301 556 332 539.5 c 128,-1,15
 363 523 363 523 380 500 c 1,16,-1
 380 757 l 1,17,-1
 524 757 l 1,18,-1
 524 83 l 2,19,20
 524 45 524 45 525 41 c 1,21,22
 555 57 555 57 594 57 c 0,23,24
 661 57 661 57 704 17.5 c 128,-1,25
 747 -22 747 -22 747 -79 c 0,26,27
 747 -143 747 -143 706.5 -179 c 128,-1,28
 666 -215 666 -215 597 -215 c 0,29,30
 533 -215 533 -215 482 -172 c 1,31,32
 472 -188 472 -188 462 -220 c 1,33,-1
 345 -174 l 1,34,35
 380 -95 380 -95 399 -67 c 1,36,37
 390 -41 390 -41 382 36 c 1,38,-1
 382 52 l 1,39,40
 370 29 370 29 336.5 6.5 c 128,-1,41
 303 -16 303 -16 259 -16 c 256,42,43
 215 -16 215 -16 175.5 -0.5 c 128,-1,44
 136 15 136 15 102 48 c 128,-1,45
 68 81 68 81 48 138 c 128,-1,46
 28 195 28 195 28 270 c 0,10,11
175 270 m 0,47,48
 175 190 175 190 203.5 148 c 128,-1,49
 232 106 232 106 279 106 c 0,50,51
 327 106 327 106 354.5 149.5 c 128,-1,52
 382 193 382 193 382 270 c 0,53,54
 382 344 382 344 356 389 c 128,-1,55
 330 434 330 434 280 434 c 0,56,57
 229 434 229 434 202 390.5 c 128,-1,58
 175 347 175 347 175 270 c 0,47,48
EndSplineSet
EndChar

StartChar: uni0222
Encoding: 546 546 484
Width: 729
GlyphClass: 2
Flags: W
LayerCount: 2
Fore
SplineSet
33 248 m 0,0,1
 33 308 33 308 64.5 365.5 c 128,-1,2
 96 423 96 423 161 463 c 1,3,4
 115 491 115 491 87.5 529 c 128,-1,5
 60 567 60 567 60 634 c 0,6,7
 60 694 60 694 78 735 c 1,8,-1
 225 735 l 1,9,10
 215 704 215 704 215 643 c 0,11,12
 215 594 215 594 255 555 c 128,-1,13
 295 516 295 516 365 516 c 256,14,15
 435 516 435 516 474 555 c 128,-1,16
 513 594 513 594 513 643 c 0,17,18
 513 691 513 691 503 735 c 1,19,-1
 651 735 l 1,20,21
 669 694 669 694 669 634 c 0,22,23
 669 566 669 566 642.5 528.5 c 128,-1,24
 616 491 616 491 571 463 c 1,25,26
 635 424 635 424 665 366.5 c 128,-1,27
 695 309 695 309 695 248 c 0,28,29
 695 201 695 201 676.5 156 c 128,-1,30
 658 111 658 111 620 71.5 c 128,-1,31
 582 32 582 32 516 8 c 128,-1,32
 450 -16 450 -16 365 -16 c 256,33,34
 280 -16 280 -16 213 8 c 128,-1,35
 146 32 146 32 108.5 72 c 128,-1,36
 71 112 71 112 52 156.5 c 128,-1,37
 33 201 33 201 33 248 c 0,0,1
188 248 m 0,38,39
 188 184 188 184 237.5 147.5 c 128,-1,40
 287 111 287 111 365 111 c 0,41,42
 442 111 442 111 491 147.5 c 128,-1,43
 540 184 540 184 540 248 c 0,44,45
 540 311 540 311 489.5 349 c 128,-1,46
 439 387 439 387 365 387 c 256,47,48
 291 387 291 387 239.5 349 c 128,-1,49
 188 311 188 311 188 248 c 0,38,39
EndSplineSet
EndChar

StartChar: uni0223
Encoding: 547 547 485
Width: 558
GlyphClass: 2
Flags: W
LayerCount: 2
Fore
SplineSet
28 249 m 0,0,1
 28 322 28 322 55.5 377.5 c 128,-1,2
 83 433 83 433 134 461 c 1,3,4
 48 517 48 517 48 636 c 0,5,6
 48 687 48 687 66 738 c 1,7,-1
 207 738 l 1,8,9
 196 676 196 676 196 646 c 0,10,11
 196 516 196 516 279 516 c 0,12,13
 363 516 363 516 363 646 c 0,14,15
 363 673 363 673 351 738 c 1,16,-1
 491 738 l 1,17,18
 509 688 509 688 509 636 c 0,19,20
 509 514 509 514 426 461 c 1,21,22
 477 433 477 433 504 377.5 c 128,-1,23
 531 322 531 322 531 249 c 0,24,25
 531 212 531 212 524 176.5 c 128,-1,26
 517 141 517 141 498 105 c 128,-1,27
 479 69 479 69 451.5 43 c 128,-1,28
 424 17 424 17 379.5 0.5 c 128,-1,29
 335 -16 335 -16 279 -16 c 0,30,31
 211 -16 211 -16 160 8 c 128,-1,32
 109 32 109 32 81.5 73 c 128,-1,33
 54 114 54 114 41 158 c 128,-1,34
 28 202 28 202 28 249 c 0,0,1
176 249 m 0,35,36
 176 184 176 184 204 145 c 128,-1,37
 232 106 232 106 279 106 c 0,38,39
 328 106 328 106 356 145.5 c 128,-1,40
 384 185 384 185 384 249 c 0,41,42
 384 312 384 312 355.5 352 c 128,-1,43
 327 392 327 392 279 392 c 0,44,45
 232 392 232 392 204 352 c 128,-1,46
 176 312 176 312 176 249 c 0,35,36
EndSplineSet
EndChar

StartChar: uni0224
Encoding: 548 548 486
Width: 599
GlyphClass: 2
Flags: W
LayerCount: 2
Fore
SplineSet
23 0 m 1,0,-1
 23 108 l 1,1,-1
 384 607 l 1,2,-1
 53 607 l 1,3,-1
 53 735 l 1,4,-1
 570 735 l 1,5,-1
 570 625 l 1,6,-1
 209 127 l 1,7,-1
 455 127 l 2,8,9
 633 127 633 127 633 -73 c 0,10,11
 633 -145 633 -145 602 -212 c 1,12,-1
 468 -212 l 1,13,14
 500 -153 500 -153 500 -93 c 0,15,16
 500 -57 500 -57 480 -28.5 c 128,-1,17
 460 0 460 0 417 0 c 2,18,-1
 23 0 l 1,0,-1
EndSplineSet
EndChar

StartChar: uni0225
Encoding: 549 549 487
Width: 485
GlyphClass: 2
Flags: W
LayerCount: 2
Fore
SplineSet
20 0 m 1,0,-1
 20 94 l 1,1,-1
 277 419 l 1,2,-1
 39 419 l 1,3,-1
 39 541 l 1,4,-1
 465 541 l 1,5,-1
 465 452 l 1,6,-1
 205 122 l 1,7,-1
 375 122 l 2,8,9
 550 122 550 122 550 -71 c 0,10,11
 550 -165 550 -165 529 -212 c 1,12,-1
 404 -212 l 1,13,14
 427 -168 427 -168 427 -98 c 0,15,16
 427 -51 427 -51 408 -25.5 c 128,-1,17
 389 0 389 0 342 0 c 2,18,-1
 20 0 l 1,0,-1
EndSplineSet
EndChar

StartChar: uni0234
Encoding: 564 564 502
Width: 414
GlyphClass: 2
Flags: W
LayerCount: 2
Fore
SplineSet
220 -66 m 1,0,1
 223 -86 223 -86 239 -101.5 c 128,-1,2
 255 -117 255 -117 277 -117 c 0,3,4
 298 -117 298 -117 309.5 -107 c 128,-1,5
 321 -97 321 -97 321 -83 c 256,6,7
 321 -69 321 -69 307 -57.5 c 128,-1,8
 293 -46 293 -46 273 -46 c 0,9,10
 244 -46 244 -46 220 -66 c 1,0,1
29 -174 m 1,11,12
 68 -90 68 -90 83 -67 c 1,13,14
 64 -19 64 -19 64 48 c 2,15,-1
 64 757 l 1,16,-1
 207 757 l 1,17,-1
 207 83 l 2,18,19
 207 55 207 55 208 40 c 1,20,21
 242 57 242 57 277 57 c 0,22,23
 345 57 345 57 387.5 17.5 c 128,-1,24
 430 -22 430 -22 430 -79 c 0,25,26
 430 -143 430 -143 389 -179 c 128,-1,27
 348 -215 348 -215 279 -215 c 0,28,29
 215 -215 215 -215 164 -172 c 1,30,31
 153 -191 153 -191 144 -220 c 1,32,-1
 29 -174 l 1,11,12
EndSplineSet
EndChar

StartChar: uni0235
Encoding: 565 565 503
Width: 718
GlyphClass: 2
Flags: W
LayerCount: 2
Fore
SplineSet
522 -66 m 1,0,1
 527 -88 527 -88 543 -102.5 c 128,-1,2
 559 -117 559 -117 582 -117 c 0,3,4
 601 -117 601 -117 612.5 -107 c 128,-1,5
 624 -97 624 -97 624 -82 c 0,6,7
 624 -69 624 -69 611 -57.5 c 128,-1,8
 598 -46 598 -46 576 -46 c 0,9,10
 547 -46 547 -46 522 -66 c 1,0,1
56 0 m 1,11,-1
 56 540 l 1,12,-1
 193 540 l 1,13,-1
 193 487 l 1,14,-1
 194 487 l 1,15,16
 239 556 239 556 331 556 c 0,17,18
 510 556 510 556 510 346 c 2,19,-1
 510 76 l 2,20,21
 509 68 509 68 509 59 c 256,22,23
 509 50 509 50 510 41 c 1,24,25
 542 57 542 57 581 57 c 0,26,27
 647 57 647 57 690 17.5 c 128,-1,28
 733 -22 733 -22 733 -79 c 0,29,30
 733 -143 733 -143 691.5 -179 c 128,-1,31
 650 -215 650 -215 581 -215 c 0,32,33
 520 -215 520 -215 468 -171 c 1,34,35
 449 -218 449 -218 448 -220 c 2,36,-1
 331 -174 l 1,37,38
 349 -124 349 -124 387 -67 c 1,39,40
 367 -19 367 -19 367 49 c 2,41,-1
 367 329 l 2,42,43
 367 379 367 379 353 406.5 c 128,-1,44
 339 434 339 434 300 434 c 0,45,46
 255 434 255 434 227 398 c 128,-1,47
 199 362 199 362 199 307 c 2,48,-1
 199 0 l 1,49,-1
 56 0 l 1,11,-1
EndSplineSet
EndChar

StartChar: uni0236
Encoding: 566 566 504
Width: 450
GlyphClass: 2
Flags: W
LayerCount: 2
Fore
SplineSet
247 -66 m 1,0,1
 249 -83 249 -83 265.5 -100 c 128,-1,2
 282 -117 282 -117 305 -117 c 0,3,4
 326 -117 326 -117 337.5 -107 c 128,-1,5
 349 -97 349 -97 349 -83 c 0,6,7
 349 -71 349 -71 336 -58.5 c 128,-1,8
 323 -46 323 -46 302 -46 c 0,9,10
 271 -46 271 -46 247 -66 c 1,0,1
15 419 m 1,11,-1
 15 540 l 1,12,-1
 92 540 l 1,13,-1
 92 694 l 1,14,-1
 234 694 l 1,15,-1
 234 540 l 1,16,-1
 346 540 l 1,17,-1
 346 419 l 1,18,-1
 234 419 l 1,19,-1
 234 41 l 1,20,21
 267 57 267 57 304 57 c 0,22,23
 372 57 372 57 414.5 17.5 c 128,-1,24
 457 -22 457 -22 457 -79 c 0,25,26
 457 -143 457 -143 416.5 -179 c 128,-1,27
 376 -215 376 -215 307 -215 c 0,28,29
 243 -215 243 -215 192 -172 c 1,30,31
 179 -193 179 -193 171 -220 c 1,32,-1
 57 -174 l 1,33,34
 91 -98 91 -98 111 -67 c 1,35,36
 92 -21 92 -21 92 49 c 2,37,-1
 92 419 l 1,38,-1
 15 419 l 1,11,-1
EndSplineSet
EndChar

StartChar: uni0237
Encoding: 567 567 505
Width: 273
GlyphClass: 2
Flags: W
LayerCount: 2
Fore
SplineSet
-13 -81 m 1,0,-1
 4 -81 l 2,1,2
 37 -81 37 -81 52 -59 c 128,-1,3
 67 -37 67 -37 67 13 c 2,4,-1
 67 540 l 1,5,-1
 212 540 l 1,6,-1
 212 7 l 2,7,8
 212 -98 212 -98 164.5 -151.5 c 128,-1,9
 117 -205 117 -205 27 -205 c 2,10,-1
 -13 -205 l 1,11,-1
 -13 -81 l 1,0,-1
EndSplineSet
EndChar

StartChar: uni0238
Encoding: 568 568 506
Width: 902
GlyphClass: 3
Flags: W
LayerCount: 2
Fore
SplineSet
28 270 m 0,0,1
 28 405 28 405 94 480.5 c 128,-1,2
 160 556 160 556 259 556 c 0,3,4
 300 556 300 556 331.5 539 c 128,-1,5
 363 522 363 522 380 500 c 1,6,-1
 380 757 l 1,7,-1
 523 757 l 1,8,-1
 523 503 l 1,9,10
 575 556 575 556 645 556 c 0,11,12
 745 556 745 556 810.5 480.5 c 128,-1,13
 876 405 876 405 876 270 c 0,14,15
 876 193 876 193 855 135 c 128,-1,16
 834 77 834 77 799.5 45.5 c 128,-1,17
 765 14 765 14 726 -1 c 128,-1,18
 687 -16 687 -16 647 -16 c 0,19,20
 602 -16 602 -16 570 4 c 128,-1,21
 538 24 538 24 523 51 c 1,22,-1
 523 0 l 1,23,-1
 380 0 l 1,24,-1
 380 52 l 1,25,26
 364 24 364 24 330 4 c 128,-1,27
 296 -16 296 -16 258 -16 c 0,28,29
 216 -16 216 -16 178 -1.5 c 128,-1,30
 140 13 140 13 105 44.5 c 128,-1,31
 70 76 70 76 49 134.5 c 128,-1,32
 28 193 28 193 28 270 c 0,0,1
175 270 m 0,33,34
 175 188 175 188 203.5 147 c 128,-1,35
 232 106 232 106 279 106 c 0,36,37
 328 106 328 106 355 148.5 c 128,-1,38
 382 191 382 191 382 264 c 2,39,-1
 382 267 l 2,40,41
 382 343 382 343 356 388.5 c 128,-1,42
 330 434 330 434 279 434 c 0,43,44
 230 434 230 434 202.5 391.5 c 128,-1,45
 175 349 175 349 175 270 c 0,33,34
521 263 m 2,46,47
 521 193 521 193 550 149.5 c 128,-1,48
 579 106 579 106 625 106 c 256,49,50
 671 106 671 106 700 147.5 c 128,-1,51
 729 189 729 189 729 270 c 0,52,53
 729 346 729 346 701 390 c 128,-1,54
 673 434 673 434 625 434 c 0,55,56
 575 434 575 434 548 387.5 c 128,-1,57
 521 341 521 341 521 267 c 2,58,-1
 521 263 l 2,46,47
EndSplineSet
EndChar

StartChar: uni0239
Encoding: 569 569 507
Width: 903
GlyphClass: 3
Flags: W
LayerCount: 2
Fore
SplineSet
28 270 m 0,0,1
 28 404 28 404 92.5 480 c 128,-1,2
 157 556 157 556 259 556 c 0,3,4
 334 556 334 556 380 495 c 1,5,-1
 380 540 l 1,6,-1
 523 540 l 1,7,-1
 523 497 l 1,8,9
 571 556 571 556 645 556 c 0,10,11
 746 556 746 556 811 479.5 c 128,-1,12
 876 403 876 403 876 270 c 0,13,14
 876 194 876 194 855.5 136.5 c 128,-1,15
 835 79 835 79 801 47 c 128,-1,16
 767 15 767 15 728 -0.5 c 128,-1,17
 689 -16 689 -16 646 -16 c 0,18,19
 563 -16 563 -16 523 50 c 1,20,-1
 523 -212 l 1,21,-1
 380 -212 l 1,22,-1
 380 50 l 1,23,24
 363 24 363 24 330.5 4 c 128,-1,25
 298 -16 298 -16 257 -16 c 0,26,27
 214 -16 214 -16 175 -1 c 128,-1,28
 136 14 136 14 102 46.5 c 128,-1,29
 68 79 68 79 48 136.5 c 128,-1,30
 28 194 28 194 28 270 c 0,0,1
174 270 m 0,31,32
 174 191 174 191 202.5 148.5 c 128,-1,33
 231 106 231 106 276 106 c 0,34,35
 328 106 328 106 355 148.5 c 128,-1,36
 382 191 382 191 382 270 c 2,37,-1
 382 276 l 2,38,39
 382 346 382 346 354 390 c 128,-1,40
 326 434 326 434 276 434 c 0,41,42
 228 434 228 434 201 389.5 c 128,-1,43
 174 345 174 345 174 270 c 0,31,32
520 273 m 2,44,45
 520 196 520 196 549 151 c 128,-1,46
 578 106 578 106 625 106 c 0,47,48
 671 106 671 106 700 148 c 128,-1,49
 729 190 729 190 729 270 c 0,50,51
 729 346 729 346 701.5 390 c 128,-1,52
 674 434 674 434 625 434 c 0,53,54
 579 434 579 434 549.5 389.5 c 128,-1,55
 520 345 520 345 520 277 c 2,56,-1
 520 273 l 2,44,45
EndSplineSet
EndChar

StartChar: uni023A
Encoding: 570 570 508
Width: 670
GlyphClass: 2
Flags: W
LayerCount: 2
Fore
SplineSet
242 284 m 1,0,-1
 253 284 l 1,1,-1
 373 468 l 1,2,3
 368 484 368 484 361 508 c 0,4,5
 345 561 345 561 337 590 c 1,6,-1
 332 590 l 1,7,8
 321 548 321 548 290 440 c 2,9,-1
 242 284 l 1,0,-1
354 284 m 1,10,-1
 427 284 l 1,11,-1
 404 362 l 1,12,-1
 354 284 l 1,10,-1
-4 0 m 1,13,-1
 256 735 l 1,14,-1
 415 735 l 1,15,-1
 461 605 l 1,16,-1
 580 788 l 1,17,-1
 679 788 l 1,18,-1
 496 505 l 1,19,-1
 674 0 l 1,20,-1
 517 0 l 1,21,-1
 465 164 l 1,22,-1
 276 164 l 1,23,-1
 107 -98 l 1,24,-1
 5 -98 l 1,25,-1
 69 0 l 1,26,-1
 -4 0 l 1,13,-1
EndSplineSet
EndChar

StartChar: uni023B
Encoding: 571 571 509
Width: 671
GlyphClass: 2
Flags: W
LayerCount: 2
Fore
SplineSet
32 368 m 0,0,1
 32 537 32 537 122.5 644 c 128,-1,2
 213 751 213 751 364 751 c 0,3,4
 409 751 409 751 457 738 c 1,5,-1
 474 786 l 1,6,-1
 582 786 l 1,7,-1
 546 688 l 1,8,9
 572 669 572 669 598.5 633 c 128,-1,10
 625 597 625 597 637 564 c 1,11,-1
 509 522 l 1,12,13
 506 528 506 528 493 547 c 1,14,-1
 333 115 l 1,15,16
 351 111 351 111 364 111 c 0,17,18
 420 111 420 111 462 148 c 128,-1,19
 504 185 504 185 520 231 c 1,20,-1
 655 188 l 1,21,22
 641 156 641 156 621 126 c 128,-1,23
 601 96 601 96 566.5 61 c 128,-1,24
 532 26 532 26 479.5 5 c 128,-1,25
 427 -16 427 -16 364 -16 c 0,26,27
 323 -16 323 -16 288 -8 c 1,28,-1
 274 -51 l 1,29,-1
 164 -51 l 1,30,-1
 194 30 l 1,31,32
 116 80 116 80 74 166.5 c 128,-1,33
 32 253 32 253 32 368 c 0,0,1
245 167 m 1,34,-1
 412 616 l 1,35,36
 390 623 390 623 364 623 c 0,37,38
 277 623 277 623 231.5 550 c 128,-1,39
 186 477 186 477 186 368 c 0,40,41
 186 237 186 237 245 167 c 1,34,-1
EndSplineSet
EndChar

StartChar: uni023C
Encoding: 572 572 510
Width: 522
GlyphClass: 2
Flags: W
LayerCount: 2
Fore
SplineSet
28 270 m 0,0,1
 28 395 28 395 96 475.5 c 128,-1,2
 164 556 164 556 285 556 c 0,3,4
 314 556 314 556 343 549 c 1,5,-1
 363 605 l 1,6,-1
 462 605 l 1,7,-1
 424 504 l 1,8,9
 447 487 447 487 468 452.5 c 128,-1,10
 489 418 489 418 496 385 c 1,11,-1
 384 354 l 1,12,13
 378 367 378 367 374 373 c 1,14,-1
 274 107 l 2,15,16
 276 106 276 106 283 106 c 0,17,18
 355 106 355 106 387 195 c 1,19,-1
 508 162 l 1,20,21
 503 136 503 136 486 106.5 c 128,-1,22
 469 77 469 77 442 49 c 128,-1,23
 415 21 415 21 372.5 2.5 c 128,-1,24
 330 -16 330 -16 281 -16 c 0,25,26
 254 -16 254 -16 229 -12 c 1,27,-1
 214 -53 l 1,28,-1
 115 -53 l 1,29,-1
 144 22 l 1,30,31
 84 61 84 61 56 129 c 128,-1,32
 28 197 28 197 28 270 c 0,0,1
198 165 m 1,33,-1
 298 432 l 1,34,35
 287 433 287 433 283 433 c 0,36,37
 231 433 231 433 203.5 386.5 c 128,-1,38
 176 340 176 340 176 270 c 0,39,40
 176 213 176 213 198 165 c 1,33,-1
EndSplineSet
EndChar

StartChar: uni023D
Encoding: 573 573 511
Width: 553
GlyphClass: 2
Flags: W
LayerCount: 2
Fore
SplineSet
-1 352 m 1,0,-1
 -1 470 l 1,1,-1
 71 470 l 1,2,-1
 71 735 l 1,3,-1
 220 735 l 1,4,-1
 220 470 l 1,5,-1
 392 470 l 1,6,-1
 392 352 l 1,7,-1
 220 352 l 1,8,-1
 220 127 l 1,9,-1
 543 127 l 1,10,-1
 543 0 l 1,11,-1
 71 0 l 1,12,-1
 71 352 l 1,13,-1
 -1 352 l 1,0,-1
EndSplineSet
EndChar

StartChar: uni023E
Encoding: 574 574 512
Width: 576
GlyphClass: 2
Flags: W
LayerCount: 2
Fore
SplineSet
363 607 m 1,0,-1
 363 533 l 1,1,-1
 404 607 l 1,2,-1
 363 607 l 1,0,-1
9 607 m 1,3,-1
 9 735 l 1,4,-1
 475 735 l 1,5,-1
 503 786 l 1,6,-1
 600 786 l 1,7,-1
 567 726 l 1,8,-1
 567 607 l 1,9,-1
 501 607 l 1,10,-1
 363 356 l 1,11,-1
 363 0 l 1,12,-1
 214 0 l 1,13,-1
 214 86 l 1,14,-1
 137 -54 l 1,15,-1
 39 -54 l 1,16,-1
 214 263 l 1,17,-1
 214 607 l 1,18,-1
 9 607 l 1,3,-1
EndSplineSet
EndChar

StartChar: uni023F
Encoding: 575 575 513
Width: 488
GlyphClass: 2
Flags: W
LayerCount: 2
Fore
SplineSet
18 117 m 1,0,-1
 117 176 l 1,1,2
 171 99 171 99 255 99 c 0,3,4
 284 99 284 99 306 113 c 128,-1,5
 328 127 328 127 328 148 c 0,6,7
 328 163 328 163 319.5 175 c 128,-1,8
 311 187 311 187 293 196.5 c 128,-1,9
 275 206 275 206 258.5 211.5 c 128,-1,10
 242 217 242 217 215 226 c 128,-1,11
 188 235 188 235 173 241 c 0,12,13
 111 264 111 264 76.5 297.5 c 128,-1,14
 42 331 42 331 42 394 c 0,15,16
 42 469 42 469 106 512.5 c 128,-1,17
 170 556 170 556 251 556 c 0,18,19
 327 556 327 556 385.5 520.5 c 128,-1,20
 444 485 444 485 476 428 c 1,21,-1
 381 372 l 1,22,23
 352 407 352 407 323.5 424.5 c 128,-1,24
 295 442 295 442 250 442 c 0,25,26
 223 442 223 442 205.5 428 c 128,-1,27
 188 414 188 414 188 391 c 0,28,29
 188 372 188 372 210.5 354.5 c 128,-1,30
 233 337 233 337 265.5 328 c 128,-1,31
 298 319 298 319 322 310.5 c 128,-1,32
 346 302 346 302 376.5 286 c 128,-1,33
 407 270 407 270 426.5 252 c 128,-1,34
 446 234 446 234 460 207 c 128,-1,35
 474 180 474 180 474 148 c 0,36,37
 474 75 474 75 415.5 29.5 c 128,-1,38
 357 -16 357 -16 254 -16 c 0,39,40
 220 -16 220 -16 180 -5 c 1,41,42
 182 -11 182 -11 188 -28.5 c 128,-1,43
 194 -46 194 -46 196.5 -51.5 c 128,-1,44
 199 -57 199 -57 205.5 -70.5 c 128,-1,45
 212 -84 212 -84 218.5 -89 c 128,-1,46
 225 -94 225 -94 236 -101.5 c 128,-1,47
 247 -109 247 -109 261 -111.5 c 128,-1,48
 275 -114 275 -114 293 -114 c 0,49,50
 336 -114 336 -114 361 -108 c 1,51,-1
 361 -208 l 1,52,53
 319 -215 319 -215 285 -215 c 0,54,55
 241 -215 241 -215 206 -201.5 c 128,-1,56
 171 -188 171 -188 149.5 -169 c 128,-1,57
 128 -150 128 -150 111.5 -120.5 c 128,-1,58
 95 -91 95 -91 88 -68 c 128,-1,59
 81 -45 81 -45 74 -14 c 0,60,61
 56 71 56 71 18 117 c 1,0,-1
EndSplineSet
EndChar

StartChar: uni0240
Encoding: 576 576 514
Width: 496
GlyphClass: 2
Flags: W
LayerCount: 2
Fore
SplineSet
20 0 m 1,0,-1
 20 94 l 1,1,-1
 277 419 l 1,2,-1
 39 419 l 1,3,-1
 39 540 l 1,4,-1
 465 540 l 1,5,-1
 465 451 l 1,6,-1
 182 93 l 1,7,8
 211 83 211 83 236.5 60 c 128,-1,9
 262 37 262 37 280.5 12 c 128,-1,10
 299 -13 299 -13 318 -37.5 c 128,-1,11
 337 -62 337 -62 360 -77.5 c 128,-1,12
 383 -93 383 -93 410 -93 c 0,13,14
 458 -93 458 -93 479 -88 c 1,15,-1
 479 -207 l 1,16,17
 450 -215 450 -215 402 -215 c 0,18,19
 355 -215 355 -215 318 -194.5 c 128,-1,20
 281 -174 281 -174 256 -144.5 c 128,-1,21
 231 -115 231 -115 208.5 -84 c 128,-1,22
 186 -53 186 -53 157 -28.5 c 128,-1,23
 128 -4 128 -4 95 0 c 1,24,-1
 20 0 l 1,0,-1
EndSplineSet
EndChar

StartChar: uni0241
Encoding: 577 577 515
Width: 601
GlyphClass: 2
Flags: W
LayerCount: 2
Fore
SplineSet
53 558 m 1,0,1
 72 642 72 642 140 696.5 c 128,-1,2
 208 751 208 751 307 751 c 0,3,4
 408 751 408 751 475 692 c 128,-1,5
 542 633 542 633 542 538 c 0,6,7
 542 494 542 494 525 457.5 c 128,-1,8
 508 421 508 421 483.5 396.5 c 128,-1,9
 459 372 459 372 435 348.5 c 128,-1,10
 411 325 411 325 394 296 c 128,-1,11
 377 267 377 267 377 232 c 2,12,-1
 377 0 l 1,13,-1
 228 0 l 1,14,-1
 228 245 l 2,15,16
 228 287 228 287 244.5 322.5 c 128,-1,17
 261 358 261 358 285 382.5 c 128,-1,18
 309 407 309 407 332 430 c 128,-1,19
 355 453 355 453 372 482 c 128,-1,20
 389 511 389 511 389 543 c 0,21,22
 389 579 389 579 365.5 601.5 c 128,-1,23
 342 624 342 624 309 624 c 0,24,25
 268 624 268 624 236.5 596.5 c 128,-1,26
 205 569 205 569 188 518 c 1,27,-1
 53 558 l 1,0,1
EndSplineSet
EndChar

StartChar: uni0250
Encoding: 592 592 516
Width: 545
GlyphClass: 2
Flags: W
LayerCount: 2
Fore
SplineSet
193 284 m 1,0,1
 233 293 233 293 275 301 c 0,2,3
 324 310 324 310 348.5 328 c 128,-1,4
 373 346 373 346 373 380 c 0,5,6
 373 406 373 406 355 422 c 128,-1,7
 337 438 337 438 307 438 c 0,8,9
 261 438 261 438 227 405.5 c 128,-1,10
 193 373 193 373 193 328 c 2,11,-1
 193 284 l 1,0,1
48 211 m 2,12,-1
 48 540 l 1,13,-1
 188 540 l 1,14,-1
 188 486 l 1,15,16
 204 512 204 512 241 534 c 128,-1,17
 278 556 278 556 328 556 c 0,18,19
 416 556 416 556 468 511 c 128,-1,20
 520 466 520 466 520 393 c 0,21,22
 520 314 520 314 456.5 266 c 128,-1,23
 393 218 393 218 280 204 c 0,24,25
 231 197 231 197 193 188 c 1,26,-1
 193 155 l 2,27,28
 193 127 193 127 217.5 111 c 128,-1,29
 242 95 242 95 276 95 c 0,30,31
 357 95 357 95 420 162 c 1,32,-1
 505 89 l 1,33,34
 462 38 462 38 402.5 11 c 128,-1,35
 343 -16 343 -16 276 -16 c 0,36,37
 153 -16 153 -16 100.5 42.5 c 128,-1,38
 48 101 48 101 48 211 c 2,12,-1
EndSplineSet
EndChar

StartChar: uni0251
Encoding: 593 593 517
Width: 576
GlyphClass: 2
Flags: W
LayerCount: 2
Fore
SplineSet
175 270 m 0,0,1
 175 188 175 188 203.5 147 c 128,-1,2
 232 106 232 106 277 106 c 0,3,4
 315 106 315 106 345.5 144.5 c 128,-1,5
 376 183 376 183 376 270 c 0,6,7
 376 344 376 344 351 389 c 128,-1,8
 326 434 326 434 276 434 c 0,9,10
 228 434 228 434 201.5 390.5 c 128,-1,11
 175 347 175 347 175 270 c 0,0,1
28 270 m 0,12,13
 28 404 28 404 91 480 c 128,-1,14
 154 556 154 556 257 556 c 0,15,16
 328 556 328 556 375 501 c 1,17,-1
 375 540 l 1,18,-1
 518 540 l 1,19,-1
 518 0 l 1,20,-1
 378 0 l 1,21,-1
 378 54 l 1,22,23
 362 25 362 25 328.5 4.5 c 128,-1,24
 295 -16 295 -16 255 -16 c 0,25,26
 212 -16 212 -16 173.5 -0.5 c 128,-1,27
 135 15 135 15 101 48 c 128,-1,28
 67 81 67 81 47.5 138 c 128,-1,29
 28 195 28 195 28 270 c 0,12,13
EndSplineSet
EndChar

StartChar: uni0252
Encoding: 594 594 518
Width: 576
GlyphClass: 2
Flags: W
LayerCount: 2
Fore
SplineSet
59 0 m 1,0,-1
 59 540 l 1,1,-1
 201 540 l 1,2,-1
 201 502 l 1,3,4
 254 556 254 556 322 556 c 0,5,6
 423 556 423 556 486 479.5 c 128,-1,7
 549 403 549 403 549 270 c 0,8,9
 549 194 549 194 528.5 136 c 128,-1,10
 508 78 508 78 474.5 46 c 128,-1,11
 441 14 441 14 402.5 -1 c 128,-1,12
 364 -16 364 -16 324 -16 c 0,13,14
 280 -16 280 -16 247 5.5 c 128,-1,15
 214 27 214 27 199 53 c 1,16,-1
 199 0 l 1,17,-1
 59 0 l 1,0,-1
200 270 m 0,18,19
 200 193 200 193 227.5 149.5 c 128,-1,20
 255 106 255 106 301 106 c 256,21,22
 347 106 347 106 374 148 c 128,-1,23
 401 190 401 190 401 270 c 0,24,25
 401 348 401 348 375 391 c 128,-1,26
 349 434 349 434 301 434 c 0,27,28
 251 434 251 434 225.5 389 c 128,-1,29
 200 344 200 344 200 270 c 0,18,19
EndSplineSet
EndChar

StartChar: uni0253
Encoding: 595 595 519
Width: 583
GlyphClass: 2
Flags: W
LayerCount: 2
Fore
SplineSet
201 272 m 0,0,1
 201 194 201 194 229 150 c 128,-1,2
 257 106 257 106 306 106 c 0,3,4
 354 106 354 106 381 148 c 128,-1,5
 408 190 408 190 408 271 c 0,6,7
 408 345 408 345 381 389.5 c 128,-1,8
 354 434 354 434 306 434 c 0,9,10
 257 434 257 434 229 390 c 128,-1,11
 201 346 201 346 201 272 c 0,0,1
60 0 m 1,12,-1
 60 617 l 2,13,14
 60 699 60 699 113 742.5 c 128,-1,15
 166 786 166 786 247 786 c 0,16,17
 277 786 277 786 342 781 c 1,18,-1
 342 653 l 1,19,20
 277 659 277 659 273 659 c 0,21,22
 243 659 243 659 223 641 c 128,-1,23
 203 623 203 623 203 590 c 2,24,-1
 203 502 l 1,25,26
 256 556 256 556 328 556 c 0,27,28
 427 556 427 556 492 480 c 128,-1,29
 557 404 557 404 557 271 c 0,30,31
 557 197 557 197 536.5 139.5 c 128,-1,32
 516 82 516 82 482 49 c 128,-1,33
 448 16 448 16 409 0 c 128,-1,34
 370 -16 370 -16 328 -16 c 0,35,36
 284 -16 284 -16 251 5 c 128,-1,37
 218 26 218 26 199 53 c 1,38,-1
 199 0 l 1,39,-1
 60 0 l 1,12,-1
EndSplineSet
EndChar

StartChar: uni0254
Encoding: 596 596 520
Width: 522
GlyphClass: 2
Flags: W
LayerCount: 2
Fore
SplineSet
15 162 m 1,0,-1
 136 195 l 1,1,2
 144 160 144 160 171 133 c 128,-1,3
 198 106 198 106 238 106 c 0,4,5
 285 106 285 106 316.5 148 c 128,-1,6
 348 190 348 190 348 269 c 0,7,8
 348 340 348 340 320 387 c 128,-1,9
 292 434 292 434 238 434 c 0,10,11
 203 434 203 434 181 409.5 c 128,-1,12
 159 385 159 385 150 352 c 1,13,-1
 29 385 l 1,14,15
 42 450 42 450 98.5 503 c 128,-1,16
 155 556 155 556 241 556 c 0,17,18
 353 556 353 556 424.5 479 c 128,-1,19
 496 402 496 402 496 269 c 0,20,21
 496 139 496 139 425 61.5 c 128,-1,22
 354 -16 354 -16 241 -16 c 0,23,24
 157 -16 157 -16 94 38 c 128,-1,25
 31 92 31 92 15 162 c 1,0,-1
EndSplineSet
EndChar

StartChar: uni0255
Encoding: 597 597 521
Width: 524
GlyphClass: 2
Flags: W
LayerCount: 2
Fore
SplineSet
277 97 m 1,0,1
 301 79 301 79 329 79 c 256,2,3
 357 79 357 79 373 89 c 128,-1,4
 389 99 389 99 389 114 c 0,5,6
 389 128 389 128 376.5 136.5 c 128,-1,7
 364 145 364 145 346 145 c 0,8,9
 303 145 303 145 277 97 c 1,0,1
28 280 m 0,10,11
 28 396 28 396 95.5 476 c 128,-1,12
 163 556 163 556 284 556 c 0,13,14
 330 556 330 556 369 539 c 128,-1,15
 408 522 408 522 433.5 495 c 128,-1,16
 459 468 459 468 474 440 c 128,-1,17
 489 412 489 412 495 385 c 1,18,-1
 374 351 l 1,19,20
 351 434 351 434 284 434 c 0,21,22
 232 434 232 434 204 387 c 128,-1,23
 176 340 176 340 176 270 c 0,24,25
 176 210 176 210 197 164 c 1,26,27
 220 196 220 196 261.5 219 c 128,-1,28
 303 242 303 242 352 242 c 0,29,30
 414 242 414 242 457 208.5 c 128,-1,31
 500 175 500 175 500 116 c 0,32,33
 500 52 500 52 454 18 c 128,-1,34
 408 -16 408 -16 327 -16 c 0,35,36
 276 -16 276 -16 236 -8 c 1,37,38
 224 -42 224 -42 222 -64 c 1,39,-1
 100 -37 l 1,40,41
 108 4 108 4 124 39 c 1,42,43
 28 121 28 121 28 280 c 0,10,11
EndSplineSet
EndChar

StartChar: uni0256
Encoding: 598 598 522
Width: 576
GlyphClass: 2
Flags: W
LayerCount: 2
Fore
SplineSet
28 270 m 0,0,1
 28 406 28 406 94 481 c 128,-1,2
 160 556 160 556 260 556 c 0,3,4
 335 556 335 556 380 501 c 1,5,-1
 380 757 l 1,6,-1
 524 757 l 1,7,-1
 524 -26 l 2,8,9
 524 -89 524 -89 582 -89 c 0,10,11
 616 -89 616 -89 660 -81 c 1,12,-1
 660 -206 l 1,13,14
 584 -215 584 -215 553 -215 c 0,15,16
 481 -215 481 -215 432 -173 c 128,-1,17
 383 -131 383 -131 383 -35 c 2,18,-1
 383 52 l 1,19,20
 367 24 367 24 333 4 c 128,-1,21
 299 -16 299 -16 259 -16 c 0,22,23
 215 -16 215 -16 175.5 -0.5 c 128,-1,24
 136 15 136 15 102 48 c 128,-1,25
 68 81 68 81 48 138 c 128,-1,26
 28 195 28 195 28 270 c 0,0,1
175 270 m 256,27,28
 175 192 175 192 202.5 149 c 128,-1,29
 230 106 230 106 280 106 c 0,30,31
 328 106 328 106 355 150.5 c 128,-1,32
 382 195 382 195 382 270 c 0,33,34
 382 344 382 344 356 389 c 128,-1,35
 330 434 330 434 280 434 c 0,36,37
 231 434 231 434 203 391 c 128,-1,38
 175 348 175 348 175 270 c 256,27,28
EndSplineSet
EndChar

StartChar: uni0257
Encoding: 599 599 523
Width: 576
GlyphClass: 2
Flags: W
LayerCount: 2
Fore
SplineSet
28 271 m 0,0,1
 28 404 28 404 93 480 c 128,-1,2
 158 556 158 556 260 556 c 0,3,4
 337 556 337 556 380 501 c 1,5,-1
 380 608 l 2,6,7
 380 694 380 694 433.5 740 c 128,-1,8
 487 786 487 786 569 786 c 0,9,10
 600 786 600 786 669 781 c 1,11,-1
 669 654 l 1,12,13
 643 658 643 658 596 658 c 0,14,15
 565 658 565 658 544.5 636.5 c 128,-1,16
 524 615 524 615 524 580 c 2,17,-1
 524 0 l 1,18,-1
 385 0 l 1,19,-1
 385 54 l 1,20,21
 370 26 370 26 335.5 5 c 128,-1,22
 301 -16 301 -16 259 -16 c 0,23,24
 215 -16 215 -16 175.5 0 c 128,-1,25
 136 16 136 16 102 48.5 c 128,-1,26
 68 81 68 81 48 138.5 c 128,-1,27
 28 196 28 196 28 271 c 0,0,1
175 271 m 0,28,29
 175 190 175 190 203 148 c 128,-1,30
 231 106 231 106 280 106 c 0,31,32
 326 106 326 106 354 149.5 c 128,-1,33
 382 193 382 193 382 271 c 0,34,35
 382 345 382 345 356 389.5 c 128,-1,36
 330 434 330 434 280 434 c 0,37,38
 228 434 228 434 201.5 390 c 128,-1,39
 175 346 175 346 175 271 c 0,28,29
EndSplineSet
EndChar

StartChar: uni0258
Encoding: 600 600 524
Width: 560
GlyphClass: 2
Flags: W
LayerCount: 2
Fore
SplineSet
30 220 m 1,0,1
 27 246 27 246 27 272 c 0,2,3
 27 399 27 399 100 477.5 c 128,-1,4
 173 556 173 556 278 556 c 0,5,6
 387 556 387 556 460 480 c 128,-1,7
 533 404 533 404 533 272 c 256,8,9
 533 140 533 140 459.5 62 c 128,-1,10
 386 -16 386 -16 272 -16 c 0,11,12
 181 -16 181 -16 121 25.5 c 128,-1,13
 61 67 61 67 34 127 c 1,14,-1
 153 170 l 1,15,16
 168 138 168 138 198 118 c 128,-1,17
 228 98 228 98 268 98 c 0,18,19
 323 98 323 98 355 133.5 c 128,-1,20
 387 169 387 169 387 220 c 1,21,-1
 30 220 l 1,0,1
173 318 m 1,22,-1
 386 318 l 1,23,24
 385 369 385 369 356.5 406.5 c 128,-1,25
 328 444 328 444 278 444 c 256,26,27
 228 444 228 444 200.5 407 c 128,-1,28
 173 370 173 370 173 318 c 1,22,-1
EndSplineSet
EndChar

StartChar: uni025A
Encoding: 602 602 526
Width: 663
GlyphClass: 2
Flags: W
LayerCount: 2
Fore
SplineSet
29 231 m 1,0,-1
 373 380 l 1,1,2
 339 442 339 442 274 442 c 0,3,4
 195 442 195 442 152 371 c 1,5,-1
 33 413 l 1,6,7
 61 474 61 474 121 515 c 128,-1,8
 181 556 181 556 275 556 c 0,9,10
 345 556 345 556 402 523.5 c 128,-1,11
 459 491 459 491 490 436 c 1,12,-1
 573 473 l 1,13,14
 583 436 583 436 606 412.5 c 128,-1,15
 629 389 629 389 654 389 c 0,16,17
 687 389 687 389 704 396 c 1,18,-1
 704 283 l 1,19,20
 673 273 673 273 641 273 c 256,21,22
 609 273 609 273 583 287.5 c 128,-1,23
 557 302 557 302 545 325 c 1,24,-1
 530 319 l 1,25,26
 533 293 533 293 533 268 c 0,27,28
 533 141 533 141 462.5 62.5 c 128,-1,29
 392 -16 392 -16 278 -16 c 0,30,31
 219 -16 219 -16 170 8.5 c 128,-1,32
 121 33 121 33 92.5 71 c 128,-1,33
 64 109 64 109 47.5 150.5 c 128,-1,34
 31 192 31 192 29 231 c 1,0,-1
181 171 m 1,35,36
 189 136 189 136 217 116 c 128,-1,37
 245 96 245 96 278 96 c 0,38,39
 313 96 313 96 338.5 117 c 128,-1,40
 364 138 364 138 375 173 c 0,41,42
 389 208 389 208 389 254 c 0,43,44
 389 257 389 257 389 260 c 1,45,-1
 181 171 l 1,35,36
EndSplineSet
EndChar

StartChar: uni025B
Encoding: 603 603 527
Width: 512
GlyphClass: 2
Flags: W
LayerCount: 2
Fore
SplineSet
28 161 m 0,0,1
 28 204 28 204 49.5 235.5 c 128,-1,2
 71 267 71 267 103 284 c 1,3,-1
 104 285 l 1,4,5
 47 331 47 331 47 397 c 0,6,7
 47 468 47 468 107 512 c 128,-1,8
 167 556 167 556 263 556 c 0,9,10
 415 556 415 556 489 414 c 1,11,-1
 372 367 l 1,12,13
 355 396 355 396 326 415 c 128,-1,14
 297 434 297 434 265 434 c 0,15,16
 193 434 193 434 193 385 c 0,17,18
 193 362 193 362 214.5 346 c 128,-1,19
 236 330 236 330 272 330 c 2,20,-1
 344 330 l 1,21,-1
 344 223 l 1,22,-1
 272 223 l 2,23,24
 222 223 222 223 198.5 205.5 c 128,-1,25
 175 188 175 188 175 162 c 0,26,27
 175 133 175 133 204.5 119.5 c 128,-1,28
 234 106 234 106 267 106 c 0,29,30
 304 106 304 106 336 124 c 128,-1,31
 368 142 368 142 385 169 c 1,32,-1
 497 120 l 1,33,34
 470 60 470 60 409 22 c 128,-1,35
 348 -16 348 -16 266 -16 c 0,36,37
 164 -16 164 -16 96 31 c 128,-1,38
 28 78 28 78 28 161 c 0,0,1
EndSplineSet
EndChar

StartChar: uni025C
Encoding: 604 604 528
Width: 512
GlyphClass: 2
Flags: W
LayerCount: 2
Fore
SplineSet
14 120 m 1,0,-1
 127 169 l 1,1,2
 144 142 144 142 175.5 124 c 128,-1,3
 207 106 207 106 245 106 c 0,4,5
 277 106 277 106 307 119.5 c 128,-1,6
 337 133 337 133 337 162 c 0,7,8
 337 188 337 188 314 205.5 c 128,-1,9
 291 223 291 223 241 223 c 2,10,-1
 169 223 l 1,11,-1
 169 330 l 1,12,-1
 241 330 l 2,13,14
 276 330 276 330 297.5 346 c 128,-1,15
 319 362 319 362 319 385 c 0,16,17
 319 434 319 434 247 434 c 0,18,19
 214 434 214 434 185 415 c 128,-1,20
 156 396 156 396 140 367 c 1,21,-1
 22 414 l 1,22,23
 96 556 96 556 249 556 c 0,24,25
 345 556 345 556 405 512 c 128,-1,26
 465 468 465 468 465 397 c 0,27,28
 465 330 465 330 408 285 c 1,29,-1
 409 284 l 1,30,31
 441 267 441 267 462.5 235.5 c 128,-1,32
 484 204 484 204 484 161 c 0,33,34
 484 78 484 78 416 31 c 128,-1,35
 348 -16 348 -16 247 -16 c 0,36,37
 164 -16 164 -16 102.5 22 c 128,-1,38
 41 60 41 60 14 120 c 1,0,-1
EndSplineSet
EndChar

StartChar: uni025D
Encoding: 605 605 529
Width: 621
GlyphClass: 2
Flags: W
LayerCount: 2
Fore
SplineSet
14 120 m 1,0,-1
 127 169 l 1,1,2
 142 144 142 144 174 125 c 128,-1,3
 206 106 206 106 246 106 c 256,4,5
 286 106 286 106 311.5 121.5 c 128,-1,6
 337 137 337 137 337 164 c 0,7,8
 337 190 337 190 312.5 206.5 c 128,-1,9
 288 223 288 223 240 223 c 2,10,-1
 169 223 l 1,11,-1
 169 330 l 1,12,-1
 240 330 l 2,13,14
 276 330 276 330 297.5 346 c 128,-1,15
 319 362 319 362 319 385 c 0,16,17
 319 434 319 434 248 434 c 0,18,19
 182 434 182 434 140 367 c 1,20,-1
 22 414 l 1,21,22
 38 442 38 442 55.5 464 c 128,-1,23
 73 486 73 486 100 508.5 c 128,-1,24
 127 531 127 531 164.5 543.5 c 128,-1,25
 202 556 202 556 249 556 c 0,26,27
 370 556 370 556 431 490 c 1,28,-1
 509 537 l 1,29,30
 520 500 520 500 545 474.5 c 128,-1,31
 570 449 570 449 595 449 c 0,32,33
 626 449 626 449 645 457 c 1,34,-1
 645 343 l 1,35,36
 614 333 614 333 583 333 c 0,37,38
 551 333 551 333 522.5 348 c 128,-1,39
 494 363 494 363 482 385 c 1,40,-1
 463 374 l 2,41,42
 462 372 462 372 460.5 363.5 c 128,-1,43
 459 355 459 355 458 352 c 0,44,45
 444 311 444 311 409 285 c 1,46,-1
 409 284 l 1,47,48
 440 267 440 267 462 236.5 c 128,-1,49
 484 206 484 206 484 163 c 0,50,51
 484 80 484 80 417 32 c 128,-1,52
 350 -16 350 -16 246 -16 c 0,53,54
 162 -16 162 -16 101 22.5 c 128,-1,55
 40 61 40 61 14 120 c 1,0,-1
EndSplineSet
EndChar

StartChar: uni025E
Encoding: 606 606 530
Width: 556
GlyphClass: 2
Flags: W
LayerCount: 2
Fore
SplineSet
28 270 m 0,0,1
 28 315 28 315 36.5 355 c 128,-1,2
 45 395 45 395 64.5 432 c 128,-1,3
 84 469 84 469 114.5 496.5 c 128,-1,4
 145 524 145 524 192.5 540 c 128,-1,5
 240 556 240 556 299 556 c 0,6,7
 384 556 384 556 448 516.5 c 128,-1,8
 512 477 512 477 512 398 c 0,9,10
 512 327 512 327 462 287 c 1,11,12
 482 275 482 275 495 262.5 c 128,-1,13
 508 250 508 250 520 224 c 128,-1,14
 532 198 532 198 532 164 c 0,15,16
 532 124 532 124 518 92.5 c 128,-1,17
 504 61 504 61 481.5 41 c 128,-1,18
 459 21 459 21 427.5 8 c 128,-1,19
 396 -5 396 -5 364 -10.5 c 128,-1,20
 332 -16 332 -16 298 -16 c 0,21,22
 223 -16 223 -16 168.5 7.5 c 128,-1,23
 114 31 114 31 84.5 72.5 c 128,-1,24
 55 114 55 114 41.5 163 c 128,-1,25
 28 212 28 212 28 270 c 0,0,1
176 270 m 0,26,27
 176 179 176 179 211.5 142.5 c 128,-1,28
 247 106 247 106 300 106 c 0,29,30
 384 106 384 106 384 164 c 0,31,32
 384 188 384 188 360 205.5 c 128,-1,33
 336 223 336 223 296 223 c 2,34,-1
 256 223 l 1,35,-1
 256 335 l 1,36,-1
 296 335 l 2,37,38
 327 335 327 335 346 349.5 c 128,-1,39
 365 364 365 364 365 388 c 256,40,41
 365 412 365 412 346.5 423.5 c 128,-1,42
 328 435 328 435 300 435 c 0,43,44
 252 435 252 435 214 396.5 c 128,-1,45
 176 358 176 358 176 270 c 0,26,27
EndSplineSet
EndChar

StartChar: uni025F
Encoding: 607 607 531
Width: 273
GlyphClass: 2
Flags: W
LayerCount: 2
Fore
SplineSet
-22 238 m 1,0,-1
 -22 355 l 1,1,-1
 68 355 l 1,2,-1
 68 540 l 1,3,-1
 212 540 l 1,4,-1
 212 355 l 1,5,-1
 298 355 l 1,6,-1
 298 238 l 1,7,-1
 212 238 l 1,8,-1
 212 7 l 2,9,10
 212 -98 212 -98 164.5 -151.5 c 128,-1,11
 117 -205 117 -205 27 -205 c 2,12,-1
 -12 -205 l 1,13,-1
 -12 -81 l 1,14,-1
 4 -81 l 2,15,16
 38 -81 38 -81 53 -59 c 128,-1,17
 68 -37 68 -37 68 13 c 2,18,-1
 68 238 l 1,19,-1
 -22 238 l 1,0,-1
EndSplineSet
EndChar

StartChar: uni0260
Encoding: 608 608 532
Width: 584
GlyphClass: 2
Flags: W
LayerCount: 2
Fore
SplineSet
31 281 m 0,0,1
 31 407 31 407 95.5 481.5 c 128,-1,2
 160 556 160 556 258 556 c 0,3,4
 332 556 332 556 372 494 c 1,5,-1
 372 608 l 2,6,7
 372 695 372 695 426 740.5 c 128,-1,8
 480 786 480 786 563 786 c 0,9,10
 599 786 599 786 667 781 c 1,11,-1
 667 654 l 1,12,13
 634 659 634 659 591 659 c 0,14,15
 561 659 561 659 538.5 637 c 128,-1,16
 516 615 516 615 516 581 c 2,17,-1
 516 82 l 2,18,19
 516 -65 516 -65 457 -140 c 128,-1,20
 398 -215 398 -215 265 -215 c 0,21,22
 129 -215 129 -215 48 -108 c 1,23,-1
 141 -41 l 1,24,25
 190 -101 190 -101 266 -101 c 0,26,27
 313 -101 313 -101 342 -67.5 c 128,-1,28
 371 -34 371 -34 372 21 c 2,29,-1
 374 57 l 1,30,31
 358 34 358 34 325.5 20 c 128,-1,32
 293 6 293 6 262 6 c 0,33,34
 161 6 161 6 96 80 c 128,-1,35
 31 154 31 154 31 281 c 0,0,1
179 282 m 0,36,37
 179 203 179 203 206.5 165.5 c 128,-1,38
 234 128 234 128 276 128 c 0,39,40
 321 128 321 128 346.5 167.5 c 128,-1,41
 372 207 372 207 372 282 c 0,42,43
 372 352 372 352 346.5 393 c 128,-1,44
 321 434 321 434 276 434 c 0,45,46
 232 434 232 434 205.5 396 c 128,-1,47
 179 358 179 358 179 282 c 0,36,37
EndSplineSet
EndChar

StartChar: uni0262
Encoding: 610 610 534
Width: 547
GlyphClass: 2
Flags: W
LayerCount: 2
Fore
SplineSet
28 267 m 0,0,1
 28 399 28 399 96 477.5 c 128,-1,2
 164 556 164 556 285 556 c 0,3,4
 437 556 437 556 504 408 c 1,5,-1
 385 360 l 1,6,7
 372 389 372 389 346.5 411.5 c 128,-1,8
 321 434 321 434 285 434 c 0,9,10
 233 434 233 434 204 390.5 c 128,-1,11
 175 347 175 347 175 267 c 0,12,13
 175 191 175 191 205.5 149 c 128,-1,14
 236 107 236 107 286 107 c 0,15,16
 356 107 356 107 373 183 c 1,17,-1
 374 206 l 1,18,-1
 267 206 l 1,19,-1
 267 314 l 1,20,-1
 509 314 l 1,21,-1
 509 0 l 1,22,-1
 401 0 l 1,23,-1
 398 33 l 1,24,25
 381 13 381 13 347.5 -1.5 c 128,-1,26
 314 -16 314 -16 278 -16 c 0,27,28
 171 -16 171 -16 99.5 57.5 c 128,-1,29
 28 131 28 131 28 267 c 0,0,1
EndSplineSet
EndChar

StartChar: uni0263
Encoding: 611 611 535
Width: 536
GlyphClass: 2
Flags: W
LayerCount: 2
Fore
SplineSet
8 540 m 1,0,-1
 163 540 l 1,1,-1
 267 122 l 1,2,-1
 268 122 l 1,3,-1
 280 162 l 1,4,-1
 372 540 l 1,5,-1
 529 540 l 1,6,-1
 366 63 l 1,7,8
 395 41 395 41 413.5 7 c 128,-1,9
 432 -27 432 -27 432 -62 c 0,10,11
 432 -129 432 -129 387 -172 c 128,-1,12
 342 -215 342 -215 268 -215 c 0,13,14
 197 -215 197 -215 150 -173 c 128,-1,15
 103 -131 103 -131 103 -62 c 0,16,17
 103 8 103 8 168 61 c 1,18,-1
 8 540 l 1,0,-1
222 -61 m 0,19,20
 222 -83 222 -83 235 -99 c 128,-1,21
 248 -115 248 -115 268 -115 c 0,22,23
 290 -115 290 -115 303 -99 c 128,-1,24
 316 -83 316 -83 316 -61 c 0,25,26
 316 -43 316 -43 303 -20.5 c 128,-1,27
 290 2 290 2 268 15 c 1,28,29
 246 2 246 2 234 -19.5 c 128,-1,30
 222 -41 222 -41 222 -61 c 0,19,20
EndSplineSet
Substitution2: "'sups' Superscript lookup 5 subtable" uni02E0
Substitution2: "'aalt' Access All Alternates lookup 0 subtable" uni02E0
EndChar

StartChar: uni0264
Encoding: 612 612 536
Width: 492
GlyphClass: 2
Flags: W
LayerCount: 2
Fore
SplineSet
247 295 m 1,0,1
 198 231 198 231 198 177 c 0,2,3
 198 147 198 147 210.5 126.5 c 128,-1,4
 223 106 223 106 247 106 c 0,5,6
 269 106 269 106 281.5 126.5 c 128,-1,7
 294 147 294 147 294 177 c 0,8,9
 294 236 294 236 247 295 c 1,0,1
7 424 m 1,10,-1
 7 544 l 1,11,12
 57 556 57 556 90 556 c 0,13,14
 175 556 175 556 247 496 c 1,15,16
 312 556 312 556 407 556 c 0,17,18
 442 556 442 556 486 545 c 1,19,-1
 486 423 l 1,20,21
 449 433 449 433 408 433 c 0,22,23
 372 433 372 433 334 402 c 1,24,25
 369 355 369 355 385 330.5 c 128,-1,26
 401 306 401 306 416.5 263.5 c 128,-1,27
 432 221 432 221 432 175 c 0,28,29
 432 90 432 90 384 37 c 128,-1,30
 336 -16 336 -16 247 -16 c 0,31,32
 156 -16 156 -16 110 38 c 128,-1,33
 64 92 64 92 64 175 c 0,34,35
 64 238 64 238 90.5 291.5 c 128,-1,36
 117 345 117 345 162 402 c 1,37,38
 121 433 121 433 83 433 c 0,39,40
 70 433 70 433 7 424 c 1,10,-1
EndSplineSet
EndChar

StartChar: uni0265
Encoding: 613 613 537
Width: 562
GlyphClass: 2
Flags: W
LayerCount: 2
Fore
SplineSet
48 194 m 2,0,-1
 48 540 l 1,1,-1
 192 540 l 1,2,-1
 192 209 l 2,3,4
 192 106 192 106 262 106 c 0,5,6
 303 106 303 106 331.5 146 c 128,-1,7
 360 186 360 186 360 237 c 2,8,-1
 360 540 l 1,9,-1
 503 540 l 1,10,-1
 503 -212 l 1,11,-1
 360 -212 l 1,12,-1
 360 35 l 1,13,-1
 359 35 l 1,14,15
 313 -16 313 -16 232 -16 c 0,16,17
 199 -16 199 -16 169.5 -6 c 128,-1,18
 140 4 140 4 111.5 26 c 128,-1,19
 83 48 83 48 65.5 91 c 128,-1,20
 48 134 48 134 48 194 c 2,0,-1
EndSplineSet
EndChar

StartChar: uni0266
Encoding: 614 614 538
Width: 562
GlyphClass: 2
Flags: W
LayerCount: 2
Fore
SplineSet
61 0 m 1,0,-1
 61 610 l 2,1,2
 61 695 61 695 114.5 740.5 c 128,-1,3
 168 786 168 786 249 786 c 0,4,5
 297 786 297 786 351 782 c 1,6,-1
 351 655 l 1,7,8
 311 659 311 659 277 659 c 0,9,10
 246 659 246 659 224.5 639 c 128,-1,11
 203 619 203 619 203 583 c 2,12,-1
 203 505 l 1,13,-1
 204 505 l 1,14,15
 260 556 260 556 329 556 c 0,16,17
 364 556 364 556 395 546 c 128,-1,18
 426 536 426 536 453.5 512.5 c 128,-1,19
 481 489 481 489 497 447 c 128,-1,20
 513 405 513 405 513 346 c 2,21,-1
 513 0 l 1,22,-1
 370 0 l 1,23,-1
 370 330 l 2,24,25
 370 434 370 434 303 434 c 0,26,27
 259 434 259 434 231 395 c 128,-1,28
 203 356 203 356 203 303 c 2,29,-1
 203 0 l 1,30,-1
 61 0 l 1,0,-1
EndSplineSet
Substitution2: "'sups' Superscript lookup 5 subtable" uni02B1
Substitution2: "'aalt' Access All Alternates lookup 0 subtable" uni02B1
EndChar

StartChar: uni0267
Encoding: 615 615 539
Width: 563
GlyphClass: 2
Flags: W
LayerCount: 2
Fore
SplineSet
61 0 m 1,0,-1
 61 610 l 2,1,2
 61 695 61 695 114.5 740.5 c 128,-1,3
 168 786 168 786 249 786 c 0,4,5
 297 786 297 786 351 782 c 1,6,-1
 351 655 l 1,7,8
 326 659 326 659 277 659 c 0,9,10
 247 659 247 659 225 638 c 128,-1,11
 203 617 203 617 203 582 c 2,12,-1
 203 505 l 1,13,-1
 204 505 l 1,14,15
 260 556 260 556 329 556 c 0,16,17
 363 556 363 556 392.5 547 c 128,-1,18
 422 538 422 538 450.5 516 c 128,-1,19
 479 494 479 494 496 450.5 c 128,-1,20
 513 407 513 407 513 346 c 2,21,-1
 513 -7 l 2,22,23
 513 -115 513 -115 465 -164.5 c 128,-1,24
 417 -214 417 -214 320 -214 c 0,25,26
 279 -214 279 -214 220 -207 c 1,27,-1
 220 -85 l 1,28,29
 261 -92 261 -92 291 -92 c 0,30,31
 334 -92 334 -92 352 -73 c 128,-1,32
 370 -54 370 -54 370 2 c 2,33,-1
 370 330 l 2,34,35
 370 434 370 434 303 434 c 0,36,37
 259 434 259 434 231 395 c 128,-1,38
 203 356 203 356 203 303 c 2,39,-1
 203 0 l 1,40,-1
 61 0 l 1,0,-1
EndSplineSet
EndChar

StartChar: uni0268
Encoding: 616 616 540
Width: 267
GlyphClass: 2
Flags: W
LayerCount: 2
Fore
SplineSet
61 597 m 1,0,-1
 61 745 l 1,1,-1
 206 745 l 1,2,-1
 206 597 l 1,3,-1
 61 597 l 1,0,-1
-13 239 m 1,4,-1
 -13 357 l 1,5,-1
 63 357 l 1,6,-1
 63 540 l 1,7,-1
 205 540 l 1,8,-1
 205 357 l 1,9,-1
 280 357 l 1,10,-1
 280 239 l 1,11,-1
 205 239 l 1,12,-1
 205 0 l 1,13,-1
 63 0 l 1,14,-1
 63 239 l 1,15,-1
 -13 239 l 1,4,-1
EndSplineSet
EndChar

StartChar: uni0269
Encoding: 617 617 541
Width: 339
GlyphClass: 2
Flags: W
LayerCount: 2
Fore
SplineSet
49 168 m 2,0,-1
 49 540 l 1,1,-1
 192 540 l 1,2,-1
 192 176 l 2,3,4
 192 111 192 111 253 111 c 0,5,6
 294 111 294 111 329 118 c 1,7,-1
 329 -6 l 1,8,9
 250 -16 250 -16 222 -16 c 0,10,11
 188 -16 188 -16 159 -7 c 128,-1,12
 130 2 130 2 104.5 21.5 c 128,-1,13
 79 41 79 41 64 78.5 c 128,-1,14
 49 116 49 116 49 168 c 2,0,-1
EndSplineSet
EndChar

StartChar: uni026B
Encoding: 619 619 543
Width: 271
GlyphClass: 2
Flags: W
LayerCount: 2
Fore
SplineSet
-24 323 m 1,0,-1
 -24 447 l 1,1,2
 -19 448 -19 448 -9 451 c 128,-1,3
 1 454 1 454 7.5 456 c 128,-1,4
 14 458 14 458 24.5 459.5 c 128,-1,5
 35 461 35 461 46 461 c 2,6,-1
 65 461 l 1,7,-1
 65 757 l 1,8,-1
 208 757 l 1,9,-1
 208 435 l 1,10,11
 224 435 224 435 251 441 c 0,12,13
 287 447 287 447 296 450 c 1,14,-1
 296 326 l 1,15,16
 275 321 275 321 254 319 c 0,17,18
 233 315 233 315 208 315 c 1,19,-1
 208 0 l 1,20,-1
 65 0 l 1,21,-1
 65 338 l 1,22,23
 63 337 63 337 46 337 c 0,24,25
 23 337 23 337 -24 323 c 1,0,-1
EndSplineSet
EndChar

StartChar: uni026C
Encoding: 620 620 544
Width: 463
GlyphClass: 2
Flags: W
LayerCount: 2
Fore
SplineSet
29 414 m 0,0,1
 29 468 29 468 65 506.5 c 128,-1,2
 101 545 101 545 163 545 c 0,3,4
 199 545 199 545 235 528 c 1,5,-1
 235 757 l 1,6,-1
 379 757 l 1,7,-1
 379 376 l 1,8,-1
 480 376 l 1,9,-1
 480 261 l 1,10,-1
 379 261 l 1,11,-1
 379 0 l 1,12,-1
 235 0 l 1,13,-1
 235 261 l 1,14,-1
 219 261 l 2,15,16
 136 261 136 261 82.5 303 c 128,-1,17
 29 345 29 345 29 414 c 0,0,1
143 414 m 0,18,19
 143 397 143 397 157 386.5 c 128,-1,20
 171 376 171 376 192 376 c 2,21,-1
 236 376 l 1,22,-1
 235 393 l 2,23,24
 232 412 232 412 217 427.5 c 128,-1,25
 202 443 202 443 181 443 c 0,26,27
 143 443 143 443 143 414 c 0,18,19
EndSplineSet
EndChar

StartChar: uni026D
Encoding: 621 621 545
Width: 355
GlyphClass: 2
Flags: W
LayerCount: 2
Fore
SplineSet
65 -31 m 2,0,-1
 65 757 l 1,1,-1
 207 757 l 1,2,-1
 207 -22 l 2,3,4
 207 -89 207 -89 267 -89 c 0,5,6
 300 -89 300 -89 345 -81 c 1,7,-1
 345 -206 l 1,8,9
 266 -215 266 -215 236 -215 c 0,10,11
 202 -215 202 -215 173.5 -206 c 128,-1,12
 145 -197 145 -197 119.5 -177.5 c 128,-1,13
 94 -158 94 -158 79.5 -120.5 c 128,-1,14
 65 -83 65 -83 65 -31 c 2,0,-1
EndSplineSet
EndChar

StartChar: uni026E
Encoding: 622 622 546
Width: 737
GlyphClass: 3
Flags: W
LayerCount: 2
Fore
SplineSet
187 -49 m 1,0,-1
 315 -12 l 1,1,2
 351 -93 351 -93 432 -93 c 0,3,4
 486 -93 486 -93 519.5 -56.5 c 128,-1,5
 553 -20 553 -20 553 37 c 0,6,7
 553 93 553 93 515 133.5 c 128,-1,8
 477 174 477 174 413 174 c 2,9,-1
 315 174 l 1,10,-1
 315 270 l 1,11,-1
 450 419 l 1,12,-1
 207 419 l 1,13,-1
 207 0 l 1,14,-1
 64 0 l 1,15,-1
 64 757 l 1,16,-1
 207 757 l 1,17,-1
 207 540 l 1,18,-1
 663 540 l 1,19,-1
 663 453 l 1,20,-1
 492 278 l 1,21,22
 582 267 582 267 641 197 c 128,-1,23
 700 127 700 127 700 37 c 0,24,25
 700 -73 700 -73 626 -144 c 128,-1,26
 552 -215 552 -215 438 -215 c 0,27,28
 243 -215 243 -215 187 -49 c 1,0,-1
EndSplineSet
EndChar

StartChar: uni026F
Encoding: 623 623 547
Width: 826
GlyphClass: 2
Flags: W
LayerCount: 2
Fore
SplineSet
48 198 m 2,0,-1
 48 540 l 1,1,-1
 193 540 l 1,2,-1
 193 200 l 2,3,4
 193 154 193 154 206.5 132 c 128,-1,5
 220 110 220 110 251 110 c 0,6,7
 293 110 293 110 316 144.5 c 128,-1,8
 339 179 339 179 339 226 c 2,9,-1
 339 540 l 1,10,-1
 482 540 l 1,11,-1
 482 196 l 2,12,13
 482 110 482 110 539 110 c 0,14,15
 583 110 583 110 605.5 141.5 c 128,-1,16
 628 173 628 173 628 226 c 2,17,-1
 628 540 l 1,18,-1
 771 540 l 1,19,-1
 771 0 l 1,20,-1
 634 0 l 1,21,-1
 634 51 l 1,22,-1
 632 51 l 1,23,24
 582 -13 582 -13 503 -13 c 0,25,26
 419 -13 419 -13 376 69 c 1,27,28
 324 -13 324 -13 221 -13 c 0,29,30
 127 -13 127 -13 87.5 46.5 c 128,-1,31
 48 106 48 106 48 198 c 2,0,-1
EndSplineSet
EndChar

